<svg width="211" height="124" viewBox="0 0 211 124" fill="none" xmlns="http://www.w3.org/2000/svg">
<path d="M1.932 4.758H5.18V5.738H1.932V4.758ZM1.932 8.034H5.208V9.014H1.932V8.034ZM7.392 9.56H12.474V10.54H7.392V9.56ZM1.904 11.394H5.18V12.388H1.904V11.394ZM1.498 4.758H2.464V9.798C2.464 11.982 2.324 15.076 1.33 17.148C1.134 16.98 0.714 16.742 0.462 16.644C1.428 14.67 1.498 11.856 1.498 9.798V4.758ZM4.592 4.758H5.572V15.874C5.572 16.434 5.446 16.756 5.096 16.938C4.732 17.106 4.172 17.134 3.22 17.12C3.178 16.868 3.052 16.392 2.912 16.126C3.57 16.14 4.158 16.14 4.326 16.126C4.522 16.112 4.592 16.056 4.592 15.86V4.758ZM11.746 4.8H12.754V7.516C12.754 8.034 12.642 8.314 12.194 8.468C11.76 8.622 11.06 8.622 9.996 8.622C9.94 8.328 9.786 7.978 9.66 7.726C10.5 7.74 11.242 7.74 11.466 7.726C11.69 7.726 11.746 7.67 11.746 7.502V4.8ZM12.194 9.56H12.376L12.544 9.532L13.16 9.742C12.46 13.326 10.668 15.748 8.484 17.05C8.358 16.812 8.078 16.448 7.868 16.266C9.856 15.216 11.592 12.822 12.194 9.756V9.56ZM8.96 10.162C9.758 12.878 11.382 15.272 13.58 16.336C13.342 16.532 13.048 16.896 12.894 17.134C10.626 15.902 9.002 13.368 8.12 10.386L8.96 10.162ZM6.804 4.8H12.026V5.78H7.798V17.12H6.804V4.8ZM14.798 4.94H19.572V5.85H14.798V4.94ZM20.202 12.094H26.278V13.004H20.202V12.094ZM14.644 9.168H19.908V10.106H14.644V9.168ZM17.094 9.546H18.102V15.902C18.102 16.448 18.004 16.728 17.626 16.91C17.276 17.064 16.73 17.078 15.862 17.078C15.834 16.812 15.694 16.378 15.554 16.098C16.156 16.112 16.716 16.112 16.884 16.112C17.038 16.098 17.094 16.056 17.094 15.902V9.546ZM25.914 12.094H26.992C26.992 12.094 26.978 12.402 26.95 12.556C26.684 15.188 26.432 16.252 26.026 16.672C25.774 16.924 25.522 17.008 25.144 17.036C24.822 17.064 24.206 17.064 23.576 17.022C23.548 16.742 23.45 16.322 23.296 16.042C23.898 16.098 24.458 16.112 24.682 16.112C24.906 16.112 25.032 16.098 25.158 15.972C25.452 15.692 25.704 14.712 25.914 12.262V12.094ZM22.82 10.708H23.87C23.604 13.536 22.918 15.902 19.754 17.134C19.628 16.882 19.348 16.504 19.124 16.322C22.036 15.244 22.582 13.13 22.82 10.708ZM15.288 7.278L15.946 6.606C17.122 7.096 18.578 7.922 19.306 8.566L18.606 9.336C17.906 8.692 16.478 7.81 15.288 7.278ZM19.628 9.168H19.782L19.936 9.126L20.58 9.35C20.286 10.526 19.866 11.87 19.432 12.738L18.69 12.374C19.054 11.604 19.404 10.358 19.628 9.35V9.168ZM25.242 6.144L26.32 6.326C25.382 8.86 23.282 10.26 20.636 11.086C20.51 10.862 20.188 10.428 19.978 10.204C22.526 9.56 24.486 8.314 25.242 6.144ZM22.246 4.24L23.24 4.506C22.582 6.004 21.504 7.404 20.426 8.3C20.244 8.118 19.824 7.824 19.558 7.684C20.664 6.858 21.686 5.584 22.246 4.24ZM21.994 6.438C23.002 8.3 25.088 9.7 27.58 10.246C27.356 10.456 27.048 10.862 26.908 11.142C24.346 10.456 22.246 8.888 21.126 6.732L21.994 6.438ZM16.968 9.476L17.682 9.742C17.15 11.59 16.142 13.76 15.05 14.852C14.938 14.558 14.686 14.124 14.504 13.872C15.512 12.92 16.506 11.086 16.968 9.476ZM21.938 5.724H27.286V6.62H21.504L21.938 5.724ZM19.32 4.94H19.544L19.712 4.898L20.398 5.332C19.754 6.312 18.662 7.376 17.696 8.02C17.514 7.852 17.192 7.628 16.982 7.502C17.878 6.914 18.858 5.892 19.32 5.136V4.94ZM35.994 4.24L36.96 4.478C36.302 6.088 35.21 7.614 34.118 8.608C33.936 8.426 33.544 8.104 33.306 7.964C34.44 7.068 35.42 5.682 35.994 4.24ZM35.574 5.78H41.272V6.662H35.042L35.574 5.78ZM39.326 5.99L40.334 6.186C39.326 8.93 37.002 10.4 34.076 11.254C33.95 11.044 33.642 10.61 33.446 10.414C36.302 9.742 38.5 8.412 39.326 5.99ZM35.574 6.368C36.358 8.048 38.374 9.756 41.566 10.386C41.37 10.582 41.104 10.974 40.978 11.226C37.744 10.47 35.756 8.622 34.874 6.872L35.574 6.368ZM33.74 11.982H41.286V12.906H33.74V11.982ZM37.002 10.666H37.996V17.162H37.002V10.666ZM36.904 12.388L37.716 12.682C36.848 14.348 35.252 15.888 33.698 16.672C33.544 16.434 33.25 16.084 33.026 15.888C34.552 15.244 36.12 13.83 36.904 12.388ZM38.192 12.5C38.906 13.844 40.334 15.23 41.636 15.888C41.412 16.07 41.104 16.42 40.936 16.658C39.62 15.874 38.192 14.32 37.422 12.794L38.192 12.5ZM32.298 5.906H33.222V14.782H32.298V5.906ZM31.248 4.324L32.228 4.59C31.43 7.012 30.184 9.476 28.798 11.114C28.7 10.862 28.42 10.302 28.238 10.036C29.47 8.636 30.576 6.48 31.248 4.324ZM30.128 7.754L31.094 6.788L31.122 6.816V17.12H30.128V7.754ZM42.714 5.584H49.182V6.466H42.714V5.584ZM42.546 11.576H49.308V12.458H42.546V11.576ZM43.036 7.67H48.888V8.566H43.036V7.67ZM43.19 9.616H48.72V10.498H43.19V9.616ZM45.458 11.954H46.438V16.056C46.438 16.546 46.354 16.826 46.004 16.966C45.668 17.12 45.164 17.134 44.366 17.134C44.324 16.868 44.184 16.49 44.058 16.224C44.618 16.238 45.108 16.238 45.262 16.224C45.416 16.224 45.458 16.182 45.458 16.042V11.954ZM45.444 4.296H46.438V8.244H45.444V4.296ZM43.624 12.948L44.52 13.116C44.226 14.292 43.722 15.44 43.148 16.21C42.966 16.084 42.56 15.86 42.336 15.776C42.924 15.048 43.372 13.998 43.624 12.948ZM47.25 13.256L48.048 12.934C48.468 13.606 48.916 14.488 49.084 15.034L48.258 15.44C48.076 14.88 47.656 13.942 47.25 13.256ZM50.33 6.788H54.572V7.754H50.33V6.788ZM52.038 7.18H52.528V9.672C52.528 10.792 52.948 14.418 55.524 16.238C55.342 16.476 55.02 16.882 54.88 17.134C52.892 15.706 52.164 12.976 52.024 11.828C51.884 13.032 51.058 15.636 48.762 17.134C48.65 16.91 48.356 16.49 48.16 16.294C51.1 14.418 51.52 10.82 51.52 9.672V7.18H52.038ZM50.372 4.226L51.422 4.394C51.1 6.816 50.498 9.126 49.588 10.638C49.406 10.47 48.944 10.162 48.692 10.008C49.588 8.622 50.106 6.466 50.372 4.226ZM54.278 6.788H54.432L54.614 6.746L55.286 6.942C55.104 8.174 54.838 9.644 54.558 10.568L53.718 10.33C53.942 9.476 54.152 8.062 54.278 6.984V6.788Z" fill="black"/>
<path d="M6.104 34.842L7.014 35.066C6.594 36.13 5.95 37.264 5.32 37.992C5.152 37.838 4.774 37.572 4.55 37.446C5.194 36.76 5.768 35.808 6.104 34.842ZM5.026 41.38H11.62V42.052H5.026V41.38ZM11.508 41.324H13.426V42.094H11.508V41.324ZM6.104 37.166H11.872V37.866H6.104V37.166ZM5.194 38.622H12.88V39.336H5.194V38.622ZM8.456 37.46H9.422V38.958H8.456V37.46ZM6.79 44.068H7.728V45.79C7.728 46.07 7.812 46.112 8.316 46.112C8.54 46.112 9.744 46.112 10.052 46.112C10.444 46.112 10.514 46.014 10.556 45.132C10.738 45.272 11.116 45.412 11.368 45.454C11.27 46.644 11.004 46.938 10.15 46.938C9.926 46.938 8.442 46.938 8.218 46.938C7.07 46.938 6.79 46.7 6.79 45.79V44.068ZM11.872 34.254L12.614 34.898C11.046 35.36 8.596 35.654 6.552 35.78C6.51 35.584 6.398 35.248 6.286 35.066C8.26 34.912 10.612 34.618 11.872 34.254ZM5.81 39.994H12.152V43.466H5.81V42.78H11.214V40.666H5.81V39.994ZM10.892 44.348L11.634 43.9C12.362 44.6 13.16 45.552 13.51 46.224L12.712 46.742C12.39 46.07 11.606 45.062 10.892 44.348ZM8.106 35.85L8.876 35.556C9.17 35.962 9.45 36.522 9.576 36.886L8.75 37.222C8.652 36.844 8.372 36.27 8.106 35.85ZM10.906 35.682L11.62 35.248C12.25 35.878 13.006 36.774 13.342 37.348L12.6 37.852C12.264 37.264 11.536 36.34 10.906 35.682ZM7.7 43.746L8.288 43.214C8.946 43.536 9.716 44.096 10.122 44.474L9.492 45.076C9.1 44.67 8.316 44.082 7.7 43.746ZM5.432 44.096L6.244 44.376C5.978 45.258 5.558 46.238 4.802 46.812L4.088 46.28C4.746 45.79 5.208 44.894 5.432 44.096ZM1.12 34.856H4.186V35.808H2.044V47.134H1.12V34.856ZM3.878 34.856H4.046L4.186 34.814L4.844 35.192C4.508 36.34 4.032 37.796 3.626 38.944C4.522 40.106 4.732 41.114 4.732 41.968C4.732 42.71 4.578 43.298 4.214 43.578C4.032 43.704 3.808 43.774 3.542 43.816C3.304 43.844 2.996 43.858 2.702 43.844C2.688 43.592 2.604 43.2 2.464 42.948C2.744 42.962 2.982 42.976 3.164 42.962C3.332 42.962 3.472 42.92 3.57 42.836C3.752 42.682 3.822 42.29 3.822 41.856C3.808 41.114 3.626 40.148 2.73 39.042C3.178 37.754 3.626 36.088 3.878 35.136V34.856ZM17.416 35.402H18.452V47.078H17.416V35.402ZM14.7 38.342H20.916V39.336H14.7V38.342ZM17.458 38.734L18.144 39.056C17.472 41.072 16.156 43.592 14.952 44.908C14.84 44.614 14.574 44.18 14.392 43.914C15.54 42.766 16.856 40.512 17.458 38.734ZM19.964 34.338L20.748 35.122C19.236 35.738 16.954 36.214 14.994 36.48C14.938 36.242 14.798 35.892 14.672 35.668C16.562 35.374 18.76 34.898 19.964 34.338ZM18.396 40.148C18.858 40.512 20.496 42.052 20.86 42.43L20.216 43.228C19.754 42.612 18.382 41.17 17.822 40.652L18.396 40.148ZM22.946 34.534L24.122 34.744C23.534 38.314 22.512 42.934 21.644 45.86L20.622 45.636C21.49 42.696 22.47 37.992 22.946 34.534ZM19.418 45.426C21.126 45.272 23.856 44.992 26.488 44.684L26.516 45.664C24.066 45.986 21.49 46.308 19.67 46.518L19.418 45.426ZM24.262 41.408L25.242 41.1C26.236 42.906 27.188 45.272 27.496 46.77L26.404 47.12C26.124 45.65 25.214 43.242 24.262 41.408ZM32.97 35.36H41.412V36.172H32.97V35.36ZM35.154 34.254H36.106V36.886H35.154V34.254ZM38.29 34.254H39.256V36.858H38.29V34.254ZM38.416 37.88V39.21H39.97V37.88H38.416ZM37.59 37.166H40.824V39.924H37.59V37.166ZM34.482 37.88V39.21H36.008V37.88H34.482ZM33.67 37.166H36.862V39.924H33.67V37.166ZM34.566 42.696H40.67V43.438H34.566V42.696ZM34.566 44.25H40.67V45.006H34.566V44.25ZM34.566 45.818H41.3V46.616H34.566V45.818ZM37.03 41.478H37.982V46.364H37.03V41.478ZM35.014 41.17H41.146V41.898H35.014V47.148H34.034V42.108L34.958 41.17H35.014ZM37.478 39.938L38.486 40.134C38.178 40.722 37.856 41.352 37.59 41.758L36.834 41.562C37.058 41.1 37.338 40.414 37.478 39.938ZM34.874 39.812L35.784 40.064C35.154 41.422 34.16 42.766 33.194 43.634C33.04 43.466 32.69 43.13 32.466 42.976C33.432 42.192 34.342 41.016 34.874 39.812ZM28.714 37.278H33.096V38.272H28.714V37.278ZM30.59 34.24H31.556V47.106H30.59V34.24ZM30.576 37.866L31.206 38.076C30.8 40.288 29.918 43.046 28.966 44.446C28.84 44.18 28.602 43.788 28.434 43.564C29.316 42.29 30.212 39.868 30.576 37.866ZM31.472 39.042C31.78 39.42 32.914 41.1 33.166 41.506L32.606 42.276C32.312 41.604 31.374 39.98 31.038 39.462L31.472 39.042ZM42.7 35.234H49.14V36.242H42.7V35.234ZM46.158 39.322H48.622V40.33H46.158V39.322ZM45.682 35.78H46.704V44.628H45.682V35.78ZM43.302 38.37H44.254V45.02H43.302V38.37ZM42.462 44.782C44.1 44.474 46.69 43.886 49.126 43.34L49.224 44.306C46.886 44.866 44.408 45.44 42.658 45.832L42.462 44.782ZM50.092 36.858H55.426V37.838H50.092V36.858ZM50.568 34.24L51.618 34.422C51.1 37.04 50.232 39.49 49.056 41.1C48.874 40.904 48.454 40.554 48.202 40.4C49.364 38.944 50.134 36.634 50.568 34.24ZM53.48 37.362L54.53 37.474C53.816 42.304 52.318 45.314 48.818 47.162C48.72 46.91 48.398 46.462 48.202 46.238C51.506 44.642 52.878 41.8 53.48 37.362ZM50.54 37.754C51.226 41.66 52.71 44.908 55.552 46.238C55.314 46.448 54.992 46.854 54.824 47.134C51.856 45.566 50.386 42.206 49.616 37.922L50.54 37.754ZM56.938 38.314H68.992V39.238H56.938V38.314ZM62.51 37.432H63.616V47.12H62.51V37.432ZM57.946 40.33H67.648V41.24H59.052V43.956H57.946V40.33ZM67.13 40.33H68.208V42.948C68.208 43.424 68.11 43.662 67.732 43.802C67.368 43.956 66.808 43.956 66.01 43.956C65.94 43.676 65.772 43.354 65.66 43.116C66.234 43.144 66.766 43.144 66.92 43.13C67.088 43.13 67.13 43.074 67.13 42.948V40.33ZM62.608 42.318L63.42 42.654C62.09 44.516 59.668 45.986 57.26 46.672C57.12 46.406 56.826 46.014 56.588 45.79C58.982 45.244 61.404 43.914 62.608 42.318ZM63.364 42.276C64.386 43.606 66.766 45.09 69.538 45.692C69.328 45.93 69.02 46.336 68.866 46.616C66.122 45.888 63.868 44.236 62.804 42.878L63.364 42.276ZM58.366 35.472H62.79V36.382H58.366V35.472ZM63.742 35.472H69.174V36.382H63.742V35.472ZM58.66 34.198L59.668 34.464C59.108 35.822 58.226 37.152 57.33 38.006C57.134 37.852 56.7 37.558 56.448 37.432C57.372 36.634 58.184 35.416 58.66 34.198ZM64.078 34.198L65.114 34.45C64.596 35.85 63.672 37.166 62.72 38.02C62.538 37.838 62.104 37.53 61.838 37.39C62.804 36.634 63.644 35.458 64.078 34.198ZM59.192 36.158L60.088 35.878C60.438 36.438 60.844 37.194 60.984 37.684L60.06 38.02C59.92 37.53 59.556 36.746 59.192 36.158ZM64.988 36.102L65.884 35.822C66.304 36.382 66.766 37.152 66.962 37.67L66.024 37.992C65.842 37.474 65.408 36.69 64.988 36.102Z" fill="black"/>
<path d="M6.272 65.486H13.454V66.494H6.272V65.486ZM9.73 65.906H10.78V75.748C10.78 76.462 10.612 76.77 10.15 76.938C9.688 77.12 8.89 77.134 7.658 77.134C7.616 76.84 7.434 76.378 7.28 76.056C8.232 76.098 9.114 76.098 9.38 76.084C9.646 76.084 9.73 76 9.73 75.748V65.906ZM1.19 68.482H5.558V69.322H1.19V68.482ZM1.274 64.744H5.572V65.584H1.274V64.744ZM1.19 70.358H5.558V71.198H1.19V70.358ZM0.532 66.578H6.104V67.446H0.532V66.578ZM1.68 72.248H5.516V76.336H1.68V75.454H4.578V73.116H1.68V72.248ZM1.176 72.248H2.114V76.98H1.176V72.248ZM19.194 72.304V73.438H22.652V72.304H19.194ZM18.34 71.618H23.548V74.138H18.34V71.618ZM21.364 73.872H22.274V75.664C22.274 75.93 22.302 75.958 22.568 75.958C22.694 75.958 23.268 75.958 23.422 75.958C23.674 75.958 23.716 75.86 23.744 75.02C23.926 75.146 24.276 75.272 24.528 75.328C24.444 76.462 24.192 76.742 23.548 76.742C23.38 76.742 22.624 76.742 22.442 76.742C21.574 76.742 21.364 76.518 21.364 75.664V73.872ZM19.348 74.124H20.23C20.02 75.538 19.362 76.35 17.528 76.84C17.43 76.63 17.178 76.266 16.996 76.112C18.606 75.776 19.18 75.188 19.348 74.124ZM15.862 66.69H19.67V67.418H15.862V66.69ZM20.09 69.84H22.61V70.624H20.09V69.84ZM22.162 66.69H26.012V67.418H22.162V66.69ZM25.592 64.926H26.642V75.832C26.642 76.392 26.544 76.714 26.222 76.896C25.9 77.078 25.396 77.106 24.71 77.106C24.682 76.812 24.556 76.308 24.402 76.028C24.85 76.042 25.256 76.042 25.41 76.028C25.55 76.028 25.592 75.986 25.592 75.832V64.926ZM15.89 64.926H20.286V69.238H15.89V68.454H19.292V65.696H15.89V64.926ZM26.18 64.926V65.696H22.54V68.454H26.18V69.238H21.546V64.926H26.18ZM15.344 64.926H16.38V77.106H15.344V64.926ZM21.826 69.84H22.778C23.128 70.736 23.996 71.52 24.836 71.912C24.626 72.052 24.318 72.346 24.164 72.542C23.296 72.038 22.442 71.212 22.064 70.288H21.826V69.84ZM18.928 70.078L19.796 70.288C19.376 71.184 18.564 72.094 17.696 72.626C17.542 72.458 17.262 72.206 17.08 72.066C17.878 71.604 18.606 70.82 18.928 70.078ZM30.786 72.71H39.172V73.424H30.786V72.71ZM30.814 70.988H39.774V75.16H30.814V74.39H38.738V71.744H30.814V70.988ZM34.398 71.366H35.406V75.594C35.406 76.07 35.574 76.168 36.47 76.168C36.89 76.168 39.046 76.168 39.592 76.168C40.348 76.168 40.474 75.916 40.544 74.502C40.782 74.67 41.174 74.81 41.468 74.866C41.314 76.574 40.992 77.008 39.662 77.008C39.298 77.008 36.764 77.008 36.414 77.008C34.846 77.008 34.398 76.728 34.398 75.58V71.366ZM30.268 70.988H31.276V75.888H30.268V70.988ZM29.876 64.842H40.11V65.668H29.876V64.842ZM30.744 68.048H33.712V68.72H30.744V68.048ZM30.464 69.49H33.726V70.148H30.464V69.49ZM36.204 69.49H39.564V70.148H36.204V69.49ZM36.204 68.048H39.228V68.72H36.204V68.048ZM34.44 65.164H35.462V70.512H34.44V65.164ZM29.064 66.522H40.95V69.252H39.956V67.292H30.016V69.252H29.064V66.522ZM42.658 70.498H55.37V71.548H42.658V70.498ZM48.482 68.244H49.574V75.776C49.574 76.476 49.378 76.798 48.846 76.966C48.328 77.134 47.418 77.162 46.074 77.162C45.99 76.854 45.794 76.378 45.612 76.07C46.746 76.112 47.782 76.112 48.09 76.098C48.384 76.084 48.482 76.014 48.482 75.762V68.244ZM44.1 65.22H53.242V66.256H44.1V65.22ZM52.878 65.22H53.158L53.396 65.164L54.194 65.752C52.92 67.04 50.932 68.426 49.294 69.266C49.14 69.028 48.818 68.692 48.608 68.51C50.134 67.782 51.996 66.452 52.878 65.458V65.22ZM63.784 69.658H68.362V70.526H63.784V69.658ZM63.252 64.898H68.264V65.836H64.218V77.134H63.252V64.898ZM67.76 64.898H68.74V67.6C68.74 68.118 68.628 68.398 68.194 68.552C67.76 68.706 67.06 68.72 65.982 68.72C65.94 68.44 65.8 68.062 65.66 67.796C66.528 67.824 67.256 67.824 67.48 67.81C67.704 67.796 67.76 67.74 67.76 67.586V64.898ZM65.156 70.232C65.912 72.85 67.494 75.244 69.594 76.266C69.356 76.476 69.034 76.854 68.866 77.12C66.71 75.902 65.156 73.354 64.33 70.442L65.156 70.232ZM68.04 69.658H68.236L68.418 69.602L69.062 69.84C68.516 72.878 67.13 75.636 64.89 77.148C64.736 76.91 64.428 76.616 64.19 76.434C66.29 75.062 67.606 72.444 68.04 69.882V69.658ZM57.078 65.682H62.272V66.592H57.078V65.682ZM56.91 73.34H62.454V74.25H56.91V73.34ZM56.574 67.992H62.804V68.902H56.574V67.992ZM56.77 70.904H62.636V71.814H56.77V70.904ZM59.234 64.268H60.214V68.314H59.234V64.268ZM59.234 71.282H60.214V77.092H59.234V71.282ZM61.124 68.846L62.02 69.084C61.74 69.756 61.474 70.484 61.208 70.974L60.424 70.736C60.662 70.218 60.97 69.392 61.124 68.846ZM57.554 69.07L58.352 68.874C58.66 69.462 58.94 70.26 59.01 70.75L58.17 70.988C58.1 70.484 57.834 69.686 57.554 69.07Z" fill="black"/>
<path d="M7.77 105.824H11.648V106.692H7.77V105.824ZM6.874 109.646H9.17V110.402H6.874V109.646ZM6.874 111.564H9.17V112.362H6.874V111.564ZM10.346 108.078H11.116V113.006H10.346V108.078ZM9.716 103.276C9.016 104.508 7.714 105.95 6.3 106.86C6.188 106.594 5.95 106.23 5.782 106.006C7.182 105.152 8.54 103.626 9.198 102.296H10.15C11.018 103.724 12.432 105.124 13.748 105.824C13.538 106.076 13.328 106.454 13.174 106.748C11.886 105.922 10.5 104.536 9.716 103.276ZM6.398 107.77H9.016V108.568H7.168V115.078H6.398V107.77ZM8.778 107.77H9.548V114.224C9.548 114.602 9.478 114.826 9.254 114.98C9.002 115.106 8.666 115.12 8.162 115.12C8.134 114.91 8.022 114.574 7.938 114.364C8.26 114.364 8.54 114.364 8.638 114.364C8.736 114.364 8.778 114.322 8.778 114.21V107.77ZM12.222 107.546H13.09V114.098C13.09 114.56 12.992 114.798 12.684 114.952C12.348 115.078 11.844 115.078 11.018 115.078C10.99 114.868 10.864 114.518 10.752 114.294C11.34 114.308 11.858 114.308 12.012 114.294C12.166 114.28 12.222 114.238 12.222 114.084V107.546ZM0.714 103.752H6.048V104.69H0.714V103.752ZM0.546 111.746H6.006V112.684H0.546V111.746ZM2.856 102.24H3.794V106.09H2.856V102.24ZM2.968 106.146H3.682V110.22H3.794V115.148H2.856V110.22H2.968V106.146ZM1.708 108.554V109.828H4.942V108.554H1.708ZM1.708 106.538V107.798H4.942V106.538H1.708ZM0.924 105.74H5.74V110.612H0.924V105.74ZM17.178 103.094H21.14V104.158H17.178V103.094ZM20.608 103.094H21.686C21.686 105.6 21.994 110.92 27.524 114.196C27.286 114.378 26.866 114.826 26.67 115.078C21.07 111.69 20.608 105.726 20.608 103.094ZM20.216 105.838L21.406 106.062C20.398 110.332 18.55 113.286 15.456 115.106C15.26 114.882 14.784 114.448 14.504 114.252C17.612 112.628 19.362 109.8 20.216 105.838ZM33.656 102.912H40.138V103.766H33.656V102.912ZM33.488 106.79H40.39V107.658H33.488V106.79ZM33.488 108.736H40.362V109.604H33.488V108.736ZM33.894 113.594H39.97V114.462H33.894V113.594ZM32.34 104.844H41.454V105.726H32.34V104.844ZM33.348 110.682H40.516V115.078H39.466V111.536H34.356V115.12H33.348V110.682ZM31.864 102.282L32.858 102.59C31.906 104.956 30.408 107.308 28.854 108.862C28.756 108.624 28.462 108.078 28.266 107.826C29.68 106.496 31.052 104.41 31.864 102.282ZM30.408 105.894L31.402 104.9L31.416 104.914V115.092H30.408V105.894ZM48.958 106.734H54.782V115.036H53.718V107.686H49.966V115.106H48.958V106.734ZM42.826 107.826H48.524V108.792H42.826V107.826ZM49.448 109.086H54.222V109.898H49.448V109.086ZM49.448 111.326H54.222V112.166H49.448V111.326ZM49.448 113.622H54.222V114.504H49.448V113.622ZM45.276 106.23H46.298V115.134H45.276V106.23ZM46.144 109.198C46.592 109.548 48.188 111.046 48.538 111.41L47.866 112.25C47.418 111.62 46.116 110.192 45.556 109.674L46.144 109.198ZM44.324 103.598H48.818V104.508H44.324V103.598ZM49.826 103.612H55.258V104.508H49.826V103.612ZM44.576 102.184L45.598 102.436C45.066 103.962 44.24 105.502 43.386 106.51C43.19 106.342 42.756 106.048 42.504 105.922C43.386 104.998 44.142 103.598 44.576 102.184ZM50.078 102.184L51.1 102.436C50.638 103.976 49.812 105.446 48.916 106.398C48.72 106.216 48.272 105.922 48.02 105.782C48.944 104.928 49.672 103.584 50.078 102.184ZM45.164 104.284L46.032 103.962C46.396 104.592 46.802 105.474 46.942 106.02L46.018 106.412C45.892 105.852 45.528 104.956 45.164 104.284ZM50.904 104.298L51.758 103.962C52.29 104.578 52.864 105.446 53.102 106.02L52.192 106.398C51.982 105.838 51.422 104.942 50.904 104.298ZM45.262 108.316L46.032 108.764C45.43 110.444 44.212 112.474 43.134 113.622C42.994 113.37 42.7 113.02 42.462 112.81C43.512 111.83 44.688 109.912 45.262 108.316Z" fill="#BDBCBD"/>
<line y1="123.5" x2="210" y2="123.5" stroke="#5C6F89"/>
<path d="M198.886 117.139L198 116.253L203.228 111.07L198 105.886L198.886 105L205 111.07L198.886 117.139Z" fill="#134563"/>
</svg>
