<svg width="50" height="50" viewBox="0 0 50 50" fill="none" xmlns="http://www.w3.org/2000/svg">
<g id="Frame 42">
<g id="Group">
<path id="Vector" d="M25 50C11.1925 50 0 38.8075 0 25C0 11.1925 11.1925 0 25 0C38.8075 0 50 11.1925 50 25C50 38.8075 38.8075 50 25 50ZM25 2.71966C12.7615 2.71966 2.71966 12.7615 2.71966 25C2.71966 37.2385 12.7615 47.2803 25 47.2803C37.2385 47.2803 47.2803 37.2385 47.2803 25C47.2803 12.7615 37.2385 2.71966 25 2.71966Z" fill="#496B8C" fill-opacity="0.5"/>
<path id="Vector_2" d="M26.2209 37.4L11.4985 23.7L26.2209 10L28.1553 11.9L15.5821 23.7L28.1553 35.5L26.2209 37.4Z" fill="#496B8C" fill-opacity="0.5"/>
<path id="Vector_3" d="M13.5403 22H39.3313V24.8H13.5403V22Z" fill="#496B8C" fill-opacity="0.5"/>
</g>
</g>
</svg>
