<svg width="50" height="50" viewBox="0 0 50 50" fill="none" xmlns="http://www.w3.org/2000/svg">
<g id="logo" clip-path="url(#clip0_226_2323)">
<g id="&#229;&#156;&#150;&#229;&#177;&#164; 1">
<g id="Group">
<path id="Vector" d="M24.7651 10.078C26.5314 11.8287 28.0137 11.4693 29.7981 10.5061C29.1339 9.6035 28.5378 8.64638 27.4136 8.23647C26.4294 7.87704 25.5292 8.09916 24.6771 8.63224C24.487 8.29099 24.6851 7.74983 24.105 7.71348C23.6829 7.68723 23.5688 8.01233 23.4888 8.32936C23.3368 8.32532 23.2848 8.23041 23.2148 8.16378C22.8767 7.82656 22.5386 7.50348 22.0726 7.33184C21.2104 7.01078 20.3862 7.16828 19.5481 7.43685C18.4498 7.78618 18.4518 7.768 19.04 8.76551C19.5101 9.56312 20.1302 10.1608 21.0624 10.3446C21.8305 10.496 22.5246 10.2921 23.1908 9.89832C23.6529 9.62572 23.7009 9.6661 23.7109 10.2214C23.7209 10.7747 23.7289 11.3259 23.6589 11.8792C23.6129 12.2487 23.6449 12.6364 23.1228 12.6829C22.7767 12.7132 22.5386 13.0665 22.1006 12.9171C21.3144 12.6465 20.4922 12.6808 19.6961 12.9373C17.7797 13.5552 16.5355 15.4836 16.6835 17.6361C16.7095 18.0117 16.6215 18.1147 16.2614 18.1651C15.0452 18.3408 13.8429 18.5993 12.6667 18.9587C11.0684 19.4453 9.52409 20.0531 8.27585 21.2324C7.46369 21.9997 6.84557 22.9185 6.80756 24.0553C6.74155 25.9473 6.77355 27.8454 6.79756 29.7395C6.80556 30.4462 7.15963 30.9975 7.81976 31.2782C8.06981 31.3852 8.13782 31.5225 8.13582 31.7668C8.13182 32.6048 8.12382 33.4448 8.14382 34.2828C8.15182 34.5978 8.0278 34.7129 7.74174 34.7957C7.06961 34.9896 6.42549 35.2702 5.85537 35.6842C5.14723 36.1971 4.59113 36.8271 4.4711 37.7438C4.29907 39.0584 4.94519 40.1387 6.35547 40.8474C8.25584 41.8005 10.3323 42.0852 12.3967 42.3639C15.2452 42.7475 18.1118 42.903 20.9863 42.9373C26.4374 43.002 31.8785 42.901 37.2335 41.6854C38.2577 41.4532 39.2639 41.1644 40.1661 40.6071C42.1505 39.3814 42.2345 37.1078 40.3561 35.7286C39.758 35.2884 39.0879 34.9956 38.3898 34.7775C38.1597 34.7048 38.0697 34.5998 38.0757 34.3555C38.0897 33.8184 38.0877 33.2813 38.0757 32.7462C38.0717 32.5362 38.1377 32.415 38.3317 32.3181C39.0799 31.9405 39.3919 31.3024 39.3879 30.4745C39.3799 29.0328 39.3879 27.589 39.3859 26.1472C39.3859 25.5273 39.428 24.8993 39.3459 24.2875C39.1079 22.5348 38.0157 21.3778 36.5934 20.4853C34.9171 19.4352 33.0507 18.9001 31.1463 18.4923C30.8103 18.4196 30.7503 18.3065 30.7823 17.9693C30.9823 15.841 29.694 14.0438 27.6657 13.5774C27.5336 13.5471 27.4056 13.5128 27.3076 13.4159C26.6474 12.7576 25.8613 12.4264 24.9291 12.4426C24.8411 12.4426 24.6691 12.487 24.7031 12.2992C24.8291 11.5844 24.7111 10.8655 24.7631 10.0861L24.7651 10.078ZM16.4054 11.4854C16.4034 11.3401 15.6113 10.5081 15.4853 10.4839C15.2072 10.4294 14.305 11.2775 14.4471 11.4794C14.6871 11.8247 14.9912 12.1316 15.3052 12.4123C15.4533 12.5456 15.6273 12.3982 15.7113 12.2467C15.8213 12.0488 15.9734 11.9135 16.1634 11.8025C16.2914 11.7278 16.4034 11.6228 16.4074 11.4854H16.4054ZM32.9767 12.695C32.7907 12.693 32.0385 13.4199 32.0265 13.6137C32.0145 13.7935 32.8067 14.6678 32.9787 14.6638C33.1347 14.6617 33.9189 13.8985 33.9249 13.743C33.9329 13.5229 33.1887 12.697 32.9787 12.695H32.9767Z" fill="#F3ACB2"/>
<path id="Vector_2" d="M49.876 46.0004C49.876 31.9605 49.876 17.9207 49.874 3.88079C49.874 3.03674 49.964 3.12761 49.1278 3.12761C32.4186 3.12761 15.7093 3.12761 -1 3.12559C-0.909982 2.91761 -0.729947 3.03069 -0.601922 3.03069C1.47449 3.02261 3.55289 3.02463 5.6293 3.02463C20.2702 3.02463 34.909 3.02463 49.5499 3.01453C49.904 3.01453 49.986 3.07915 49.986 3.44867C49.974 17.4986 49.976 31.5486 49.97 45.5965C49.97 45.7278 50.082 45.9075 49.876 45.9984V46.0004Z" fill="#FCFCFC"/>
<path id="Vector_3" d="M24.765 10.078C24.713 10.8575 24.831 11.5763 24.705 12.2911C24.671 12.4809 24.843 12.4365 24.9311 12.4345C25.8632 12.4183 26.6514 12.7495 27.3095 13.4078C27.4076 13.5067 27.5356 13.539 27.6676 13.5693C29.696 14.0358 30.9843 15.8329 30.7842 17.9612C30.7522 18.3004 30.8142 18.4135 31.1483 18.4842C33.0547 18.8921 34.921 19.4272 36.5954 20.4772C38.0196 21.3697 39.1118 22.5247 39.3479 24.2794C39.4299 24.8892 39.3859 25.5172 39.3879 26.1392C39.3919 27.5809 39.3819 29.0247 39.3899 30.4664C39.3939 31.2963 39.0818 31.9324 38.3337 32.31C38.1397 32.4089 38.0736 32.5281 38.0776 32.7381C38.0896 33.2752 38.0916 33.8123 38.0776 34.3474C38.0716 34.5918 38.1617 34.6968 38.3917 34.7695C39.0918 34.9896 39.76 35.2823 40.3581 35.7205C42.2365 37.1017 42.1524 39.3754 40.1681 40.599C39.2639 41.1564 38.2577 41.4451 37.2355 41.6773C31.8804 42.8929 26.4394 42.9939 20.9883 42.9293C18.1157 42.8949 15.2472 42.7394 12.3986 42.3558C10.3342 42.0771 8.2578 41.7944 6.35742 40.8393C4.94515 40.1306 4.30102 39.0483 4.47305 37.7357C4.59308 36.819 5.14919 36.189 5.85732 35.6761C6.42944 35.2622 7.07156 34.9815 7.74369 34.7876C8.02975 34.7048 8.15378 34.5897 8.14577 34.2747C8.12577 33.4368 8.13377 32.5967 8.13777 31.7588C8.13777 31.5164 8.07176 31.3771 7.82171 31.2701C7.16158 30.9914 6.80951 30.4382 6.79951 29.7314C6.77551 27.8374 6.7455 25.9393 6.80951 24.0472C6.84952 22.9104 7.46564 21.9936 8.2778 21.2243C9.52604 20.0451 11.0703 19.4373 12.6687 18.9506C13.8449 18.5912 15.0471 18.3327 16.2634 18.1571C16.6234 18.1046 16.7115 18.0036 16.6854 17.628C16.5374 15.4735 17.7817 13.5471 19.698 12.9292C20.4922 12.6728 21.3144 12.6384 22.1025 12.909C22.5386 13.0584 22.7786 12.7051 23.1247 12.6748C23.6468 12.6304 23.6148 12.2427 23.6608 11.8711C23.7308 11.3178 23.7228 10.7666 23.7128 10.2133C23.7028 9.65802 23.6548 9.61764 23.1927 9.89024C22.5266 10.284 21.8325 10.4879 21.0643 10.3365C20.1321 10.1527 19.512 9.55504 19.0419 8.75743C18.4538 7.75992 18.4538 7.7781 19.55 7.42877C20.3882 7.16222 21.2123 7.0027 22.0745 7.32376C22.5406 7.49742 22.8787 7.81848 23.2167 8.1557C23.2847 8.22435 23.3388 8.31724 23.4908 8.32128C23.5708 8.00425 23.6828 7.67915 24.1069 7.7054C24.685 7.74175 24.487 8.28291 24.679 8.62416C25.5312 8.09108 26.4314 7.86896 27.4156 8.22839C28.5398 8.64032 29.1359 9.59543 29.8 10.498C28.0157 11.4612 26.5334 11.8206 24.767 10.0699L24.765 10.078ZM26.6594 18.0541C26.3753 19.1748 25.9113 20.1965 25.0871 21.0244C24.9491 21.1637 24.9891 21.2607 25.1571 21.3132C25.3151 21.3616 25.4772 21.406 25.6412 21.4262C28.2177 21.7513 30.2741 19.5665 29.862 16.9637C29.74 16.1923 29.474 15.5038 28.8778 14.9909C27.9977 14.2357 27.0135 13.9348 25.8853 14.379C25.7092 14.4477 25.5032 14.4962 25.7332 14.7405C26.2273 15.2675 26.4674 15.9217 26.6534 16.6043C26.6554 17.0869 26.6594 17.5695 26.6614 18.0521L26.6594 18.0541ZM5.56127 37.7398C5.36323 38.598 5.7153 39.2461 6.68949 39.7853C7.73769 40.3648 8.88792 40.6334 10.0441 40.8615C13.4508 41.536 16.9035 41.7561 20.3642 41.8409C22.7326 41.8994 25.1031 41.9418 27.4716 41.7743C28.8958 41.6733 30.3241 41.6006 31.7464 41.4633C33.8548 41.2573 35.9552 40.9787 37.9916 40.3587C38.8158 40.1084 39.646 39.8398 40.2441 39.1553C40.6541 38.6848 40.8662 38.1638 40.5441 37.5479C40.054 36.5 39.0638 36.1769 38.0896 35.8316C37.8916 35.7609 37.8276 35.9083 37.7556 36.0456C37.2315 37.0492 36.3793 37.6671 35.3571 38.0528C33.2187 38.8605 30.9622 39.0584 28.7158 39.2522C24.701 39.5975 20.6842 39.5389 16.6734 39.1553C14.9551 38.9917 13.2428 38.7736 11.5824 38.2607C10.4842 37.9215 9.49404 37.4167 8.75589 36.4818C8.56986 36.2455 8.55785 35.7932 8.20178 35.7892C7.90773 35.7851 7.60567 35.975 7.31561 36.0981C7.08757 36.1951 6.86152 36.3061 6.65348 36.4414C6.16138 36.7604 5.69729 37.1138 5.56327 37.7418L5.56127 37.7398ZM36.6274 32.1081C36.3793 31.7487 36.1113 31.4013 35.9352 30.9834C34.571 32.1364 33.7348 32.1747 32.2745 31.1873C32.2185 31.151 32.1645 31.1106 32.1065 31.0783C31.4844 30.731 30.9062 30.947 30.6702 31.6194C30.6202 31.7608 30.5882 31.9082 30.5482 32.0536C30.2521 33.15 29.44 33.7901 28.3817 33.7619C27.3035 33.7336 26.4554 33.041 26.2233 31.9566C26.1293 31.5164 26.1073 31.0621 26.0513 30.6138C25.9953 30.1595 25.7332 29.9071 25.3051 29.7799C24.9491 29.6749 24.615 29.7375 24.2769 29.8324C23.2667 30.1171 22.2525 30.1757 21.2303 29.895C20.6502 29.7355 20.1081 29.4891 19.58 29.2024C19.1499 28.9702 18.9299 29.0974 18.8579 29.582C18.8139 29.8788 18.7959 30.1837 18.7258 30.4745C18.5058 31.4013 17.5736 32.0515 16.5814 31.993C15.5432 31.9304 14.7571 31.2337 14.639 30.2463C14.563 29.6143 14.531 28.9782 14.457 28.3462C14.373 27.6334 13.9989 27.1024 13.3068 26.9146C12.4366 26.6783 11.6245 26.8176 10.9723 27.5163C10.4522 28.0736 10.1742 28.744 10.0922 29.4972C10.0261 30.1009 9.85011 30.6502 9.37001 31.0439C9.17998 31.1994 9.18998 31.3832 9.19198 31.5831C9.19598 32.5564 9.21398 33.5276 9.19398 34.5009C9.17998 35.2521 9.48604 35.8235 10.0441 36.2859C10.6343 36.7746 11.3264 37.0512 12.0485 37.2612C14.201 37.8872 16.4194 38.0891 18.6398 38.2183C22.6906 38.4546 26.7434 38.4506 30.7802 37.9356C32.2125 37.7539 33.6528 37.5843 35.003 37.027C35.9352 36.6433 36.7374 36.1022 36.9834 35.0178C37.0734 34.2566 36.9914 33.4893 37.0354 32.728C37.0554 32.3908 36.9514 32.1909 36.6334 32.102L36.6274 32.1081ZM17.6576 20.4348C17.5076 20.142 17.3016 19.8633 17.2176 19.5524C17.1095 19.1546 16.8995 19.1425 16.5654 19.201C15.2052 19.4332 13.8609 19.722 12.5466 20.148C11.4024 20.5196 10.2942 20.9739 9.34401 21.7291C8.54785 22.3611 7.88972 23.1264 7.86972 24.2108C7.83371 26.0221 7.85772 27.8333 7.85772 29.6446C7.85772 29.7112 7.86372 29.7799 7.87772 29.8445C7.92973 30.0727 8.05776 30.2403 8.2918 30.2948C8.53385 30.3513 8.71188 30.2342 8.84191 30.0383C9.00594 29.794 9.02795 29.5093 9.07196 29.2266C9.25999 27.9989 9.78209 26.965 10.8363 26.2623C12.3486 25.2527 15.0871 25.6626 15.4932 28.1705C15.5872 28.7521 15.6372 29.3336 15.6552 29.9212C15.6753 30.529 16.0233 30.9046 16.5954 30.9389C17.1915 30.9773 17.6496 30.632 17.7477 30.0646C17.7857 29.8506 17.7977 29.6325 17.8317 29.4164C18.0297 28.1746 18.9079 27.6637 19.9921 28.2533C21.4024 29.0206 22.8227 29.164 24.367 28.7359C25.5732 28.4007 27.1535 29.0752 27.1395 30.8925C27.1395 31.0924 27.1715 31.2923 27.2035 31.4902C27.3315 32.2858 27.7116 32.6876 28.3497 32.7139C29.0019 32.7401 29.4359 32.3948 29.582 31.5891C29.866 30.0101 31.4944 29.3861 32.8526 30.3029C34.2029 31.2115 34.765 31.0076 35.2911 29.481C35.4071 29.1438 35.6252 28.9358 35.9692 28.9015C36.2993 28.8672 36.5353 29.057 36.7154 29.3175C36.8514 29.5154 36.8794 29.7516 36.9154 29.9838C36.9594 30.2645 36.9914 30.5492 37.0734 30.8198C37.1695 31.1388 37.3615 31.4296 37.7396 31.3731C38.1096 31.3186 38.2997 31.0399 38.3157 30.6603C38.3257 30.4422 38.3277 30.2241 38.3277 30.006C38.3297 28.429 38.2777 26.8499 38.3497 25.2769C38.4197 23.7625 37.7796 22.664 36.6294 21.8038C35.0891 20.6529 33.2967 20.1016 31.4643 19.6654C30.4601 19.4251 30.4562 19.4373 30.0201 20.4005C29.9861 20.4368 29.948 20.4671 29.922 20.5075C28.6698 22.3652 26.3093 23.0154 24.2989 22.028C24.0309 21.8967 23.8429 21.9492 23.6088 22.0522C22.6706 22.4661 21.7004 22.5611 20.6922 22.3753C19.418 22.139 18.4638 21.406 17.6616 20.4287L17.6576 20.4348ZM21.6744 21.5191C23.1807 21.5494 25.0591 20.5055 25.6652 18.6599C26.2573 16.8627 25.5792 15.4957 24.739 14.8334C24.1269 14.3508 23.9529 14.3649 23.5288 15.0131C23.2487 15.4412 22.9287 15.7057 22.3786 15.6047C22.1365 15.5603 22.0485 15.4008 21.9685 15.2271C21.8765 15.0292 21.9765 14.8758 22.1485 14.7607C22.3005 14.6577 22.4446 14.5446 22.5946 14.4396C22.9107 14.2175 22.8367 14.0741 22.5226 13.9227C21.2263 13.3008 19.8041 13.5269 18.7859 14.5668C17.7357 15.6391 17.4976 16.9233 17.8477 18.3671C18.2938 20.2046 19.8701 21.5232 21.6744 21.5191ZM20.9983 7.8831C20.5942 7.81848 20.2001 8.05272 19.7761 8.10925C19.59 8.13349 19.646 8.23041 19.692 8.34955C20.1661 9.59139 21.8225 10.0518 22.9107 9.25215C23.0947 9.11686 23.0987 9.01994 22.9587 8.85638C22.4526 8.2607 21.8605 7.84271 20.9983 7.8831ZM27.3976 10.5727C27.7156 10.5828 28.0677 10.5001 28.4117 10.3688C28.5858 10.3022 28.6558 10.2093 28.5298 10.0336C27.7716 8.96542 26.7134 8.45051 25.4292 8.99773C25.1891 9.10071 25.1411 9.21581 25.3031 9.44196C25.8072 10.1487 26.4574 10.5788 27.3976 10.5748V10.5727ZM26.1653 13.5047C25.7132 13.2543 25.2851 13.1695 24.833 13.1897C24.695 13.1958 24.561 13.2099 24.507 13.3593C24.443 13.533 24.2069 13.749 24.407 13.8843C24.663 14.058 24.9811 14.2437 25.3251 14.0277C25.5892 13.8621 25.8552 13.6965 26.1653 13.5027V13.5047Z" fill="#1A3B58"/>
<path id="Vector_4" d="M16.4054 11.4855C16.4014 11.6228 16.2874 11.7278 16.1614 11.8025C15.9714 11.9135 15.8193 12.0488 15.7093 12.2467C15.6253 12.3982 15.4513 12.5456 15.3032 12.4123C14.9892 12.1316 14.6851 11.8227 14.4451 11.4794C14.303 11.2755 15.2052 10.4294 15.4833 10.4839C15.6093 10.5081 16.4014 11.3421 16.4034 11.4855H16.4054Z" fill="#FCFCFC"/>
<path id="Vector_5" d="M32.9747 12.695C33.1847 12.699 33.9289 13.5229 33.9209 13.743C33.9149 13.8985 33.1327 14.6617 32.9747 14.6638C32.8046 14.6658 32.0125 13.7914 32.0225 13.6138C32.0345 13.4199 32.7886 12.691 32.9727 12.695H32.9747Z" fill="#FCFCFC"/>
<path id="Vector_6" d="M30.0181 20.4045C30.4542 19.4413 30.4582 19.4292 31.4624 19.6695C33.2947 20.1077 35.0871 20.6569 36.6274 21.8079C37.7776 22.6661 38.4177 23.7645 38.3477 25.281C38.2757 26.854 38.3277 28.433 38.3257 30.0101C38.3257 30.2282 38.3237 30.4462 38.3137 30.6643C38.2977 31.046 38.1077 31.3226 37.7376 31.3771C37.3595 31.4337 37.1675 31.1429 37.0715 30.8238C36.9895 30.5533 36.9595 30.2685 36.9135 29.9879C36.8774 29.7557 36.8494 29.5194 36.7134 29.3215C36.5334 29.061 36.2973 28.8712 35.9673 28.9056C35.6232 28.9399 35.4052 29.1479 35.2891 29.4851C34.763 31.0096 34.2009 31.2156 32.8507 30.3069C31.4904 29.3902 29.8621 30.0141 29.58 31.5932C29.436 32.4009 28.9999 32.7442 28.3478 32.7179C27.7097 32.6917 27.3296 32.2898 27.2015 31.4942C27.1695 31.2963 27.1355 31.0944 27.1375 30.8965C27.1515 29.0792 25.5712 28.4048 24.365 28.74C22.8227 29.1681 21.4004 29.0247 19.9901 28.2574C18.9059 27.6678 18.0298 28.1786 17.8297 29.4205C17.7957 29.6345 17.7837 29.8546 17.7457 30.0686C17.6457 30.6361 17.1896 30.9813 16.5935 30.943C16.0234 30.9066 15.6733 30.5311 15.6533 29.9253C15.6353 29.3377 15.5853 28.7561 15.4913 28.1746C15.0852 25.6667 12.3466 25.2568 10.8343 26.2664C9.78013 26.9711 9.25803 28.0029 9.06999 29.2307C9.02599 29.5133 9.00398 29.7981 8.83995 30.0424C8.70992 30.2362 8.53189 30.3554 8.28984 30.2988C8.0558 30.2443 7.92777 30.0767 7.87576 29.8485C7.86176 29.7839 7.85376 29.7153 7.85576 29.6486C7.85576 27.8374 7.83375 26.0261 7.86776 24.2148C7.88976 23.1285 8.54589 22.3652 9.34205 21.7332C10.2942 20.978 11.4025 20.5216 12.5447 20.1521C13.8589 19.726 15.2032 19.4373 16.5635 19.2051C16.8975 19.1485 17.1076 19.1586 17.2156 19.5564C17.2996 19.8674 17.5036 20.146 17.6557 20.4388C17.6337 20.5741 17.5197 20.6064 17.4196 20.669C16.7495 21.0971 16.7555 21.6241 17.4396 22.0017C17.6997 22.1451 17.9737 22.2723 18.2538 22.3712C19.5801 22.8417 20.9743 22.9629 22.3586 23.0376C24.513 23.1507 26.6634 23.0315 28.7759 22.5388C29.336 22.4076 29.9101 22.2541 30.3622 21.8584C30.8423 21.4384 30.8143 21.0971 30.2962 20.7296C30.1741 20.6428 30.0301 20.5862 30.0121 20.4085L30.0181 20.4045ZM12.5227 22.0603C12.1426 22.0583 11.8465 22.0502 11.5505 22.1289C11.3945 22.1693 11.3144 22.2703 11.3084 22.4076C11.2984 22.5772 11.4105 22.6923 11.5745 22.7186C11.7045 22.7388 11.8385 22.7246 11.9726 22.7246C13.9389 22.7246 15.8473 22.9669 17.5597 24.0533C17.8037 24.2067 18.1038 24.5036 18.3218 24.132C18.5238 23.7867 18.1118 23.6716 17.8957 23.5242C16.2454 22.4015 14.363 22.1552 12.5227 22.0603ZM28.5718 25.5536C29.9201 25.5496 31.1003 25.3981 32.2505 25.0427C32.4546 24.9801 32.7046 24.8973 32.6066 24.6045C32.5166 24.338 32.2945 24.3683 32.0665 24.4349C30.1341 25.0104 28.1717 24.9781 26.2014 24.6994C25.9513 24.6651 25.6953 24.657 25.6372 24.9458C25.5692 25.283 25.8753 25.3012 26.0953 25.3335C26.9655 25.4647 27.8377 25.5677 28.5718 25.5536Z" fill="#FCFCFC"/>
<path id="Vector_7" d="M36.6274 32.1061C36.0773 32.7078 35.5612 33.3439 34.707 33.5498C34.0409 33.7094 33.4588 33.5801 32.9227 33.1743C32.8026 33.0834 32.6846 32.9925 32.5586 32.9097C31.8244 32.4211 31.3844 32.6109 31.2323 33.4792C30.9603 35.03 30.1501 35.9386 28.6258 36.1708C27.1255 36.399 25.8553 35.5328 25.5472 34.0486C25.4832 33.7397 25.4512 33.4186 25.4432 33.1036C25.4192 32.1323 24.8391 31.3872 23.8929 31.2338C23.4268 31.157 22.9587 31.0601 22.4626 31.1792C21.9605 31.3004 21.4384 31.1651 20.9323 31.0783C20.1822 30.947 19.9421 31.0864 19.7621 31.8456C19.502 32.9501 18.8339 33.7255 17.8537 34.2223C16.0654 35.1309 14.131 33.9375 14.061 31.9122C14.041 31.3448 14.113 30.7754 13.9969 30.208C13.9349 29.9071 13.8169 29.6386 13.7029 29.3599C13.2388 28.2271 11.8405 28.1564 11.1804 29.1721C10.5383 30.1615 10.2422 31.3226 10.0902 32.4817C9.95216 33.5236 10.2882 33.9416 11.2804 34.3475C11.5165 34.4444 11.7445 34.5494 11.7625 34.8583C11.7785 35.1128 11.6285 35.2703 11.4344 35.3793C11.2424 35.4883 11.0504 35.4156 10.8603 35.3328C10.6823 35.2541 10.4423 35.1128 10.3302 35.3409C10.2062 35.5933 10.5103 35.666 10.6603 35.7569C11.4525 36.2334 12.3306 36.504 13.2168 36.7241C15.6073 37.3137 18.0457 37.5237 20.4982 37.6711C22.5266 37.7923 24.555 37.8004 26.5754 37.7216C29.292 37.6186 31.9985 37.3238 34.621 36.5343C35.3071 36.3263 35.9553 36.0275 36.4454 35.4601C36.5934 35.2884 36.7254 35.0784 36.9775 35.0259C36.7314 36.1103 35.9292 36.6514 34.9971 37.0351C33.6468 37.5924 32.2065 37.76 30.7742 37.9437C26.7374 38.4587 22.6847 38.4627 18.6339 38.2264C16.4154 38.0972 14.195 37.8953 12.0426 37.2693C11.3204 37.0593 10.6283 36.7827 10.0382 36.294C9.48006 35.8316 9.174 35.2581 9.18801 34.509C9.20601 33.5377 9.18801 32.5645 9.18601 31.5912C9.18601 31.3913 9.176 31.2075 9.36404 31.052C9.84414 30.6583 10.0202 30.109 10.0862 29.5053C10.1682 28.7521 10.4463 28.0817 10.9664 27.5244C11.6185 26.8257 12.4326 26.6864 13.3008 26.9227C13.9929 27.1105 14.367 27.6415 14.451 28.3543C14.5271 28.9863 14.5571 29.6224 14.6331 30.2544C14.7511 31.2439 15.5373 31.9405 16.5755 32.0011C17.5676 32.0617 18.4998 31.4094 18.7199 30.4826C18.7899 30.1918 18.8079 29.8869 18.8519 29.5901C18.9239 29.1055 19.146 28.9783 19.574 29.2105C20.1021 29.4952 20.6443 29.7436 21.2244 29.9031C22.2466 30.1817 23.2608 30.1252 24.271 29.8405C24.609 29.7456 24.9431 29.683 25.2992 29.788C25.7273 29.9152 25.9893 30.1696 26.0453 30.6219C26.1013 31.0702 26.1233 31.5245 26.2173 31.9647C26.4494 33.0491 27.2976 33.7417 28.3758 33.7699C29.434 33.7982 30.2461 33.1561 30.5422 32.0617C30.5822 31.9163 30.6142 31.7689 30.6642 31.6275C30.9003 30.9571 31.4764 30.7411 32.1005 31.0864C32.1585 31.1187 32.2125 31.157 32.2685 31.1954C33.7288 32.1828 34.565 32.1444 35.9292 30.9915C36.1053 31.4074 36.3713 31.7547 36.6214 32.1162L36.6274 32.1061Z" fill="#E0B8AF"/>
<path id="Vector_8" d="M40.5422 37.5459C40.8642 38.1618 40.6522 38.6828 40.2421 39.1533C39.644 39.8378 38.8138 40.1063 37.9897 40.3567C35.9533 40.9766 33.8528 41.2553 31.7444 41.4613C30.3221 41.6006 28.8959 41.6733 27.4696 41.7722C25.1011 41.9398 22.7307 41.8974 20.3622 41.8389C16.9015 41.7541 13.4488 41.534 10.0422 40.8595C8.88595 40.6314 7.73572 40.3628 6.68752 39.7833C5.71333 39.2461 5.36326 38.5959 5.55929 37.7378C6.5955 38.3132 7.68971 38.7555 8.83594 39.0382C12.3426 39.9024 15.9273 40.2174 19.518 40.3325C22.2186 40.4214 24.9271 40.4375 27.6336 40.28C29.718 40.1588 31.7924 39.9852 33.8548 39.6581C35.6892 39.3673 37.5196 39.0563 39.2499 38.3456C39.72 38.1517 40.2241 37.9942 40.5422 37.5439V37.5459Z" fill="#FEF5F1"/>
<path id="Vector_9" d="M40.5421 37.546C40.2241 37.9963 39.72 38.1538 39.2499 38.3476C37.5175 39.0604 35.6892 39.3693 33.8548 39.6601C31.7924 39.9872 29.718 40.1609 27.6336 40.282C24.9271 40.4395 22.2185 40.4234 19.518 40.3345C15.9273 40.2174 12.3446 39.9044 8.83591 39.0402C7.68968 38.7575 6.59547 38.3153 5.55927 37.7398C5.69529 37.1118 6.15738 36.7584 6.64948 36.4394C6.85752 36.3041 7.08356 36.1931 7.31161 36.0961C7.60167 35.973 7.90372 35.7852 8.19778 35.7872C8.55385 35.7912 8.56585 36.2415 8.75189 36.4798C9.49004 37.4147 10.4802 37.9215 11.5784 38.2588C13.2388 38.7716 14.9511 38.9897 16.6694 39.1533C20.6802 39.5369 24.697 39.5955 28.7118 39.2502C30.9582 39.0564 33.2147 38.8585 35.3531 38.0508C36.3733 37.6651 37.2275 37.0472 37.7516 36.0436C37.8216 35.9083 37.8876 35.7609 38.0856 35.8296C39.0598 36.1749 40.05 36.4959 40.5401 37.546H40.5421Z" fill="#E0B8AF"/>
<path id="Vector_10" d="M21.6745 21.5171C19.8701 21.5211 18.2938 20.2046 17.8477 18.3651C17.4977 16.9213 17.7357 15.637 18.7859 14.5648C19.8041 13.5249 21.2264 13.2987 22.5226 13.9207C22.8367 14.0721 22.9107 14.2155 22.5947 14.4376C22.4446 14.5426 22.3006 14.6557 22.1486 14.7587C21.9765 14.8738 21.8785 15.0272 21.9685 15.2251C22.0485 15.3988 22.1366 15.5583 22.3786 15.6027C22.9287 15.7037 23.2468 15.4392 23.5288 15.0111C23.9529 14.3649 24.125 14.3508 24.7391 14.8314C25.5812 15.4937 26.2574 16.8607 25.6653 18.6578C25.0591 20.5034 23.1808 21.5454 21.6745 21.5171ZM23.0948 16.6871C22.8127 16.6891 22.5326 16.6972 22.2606 16.79C21.7125 16.9778 21.5965 17.3857 21.9785 17.8259C22.2326 18.1167 22.5406 18.3449 22.8787 18.5266C23.4268 18.8214 24.0369 18.7164 24.459 18.254C24.9071 17.7633 24.8051 17.1858 24.207 16.9031C23.8569 16.7396 23.4808 16.679 23.0948 16.685V16.6871Z" fill="#E52958"/>
<path id="Vector_11" d="M26.6515 16.6063C26.4654 15.9238 26.2274 15.2695 25.7313 14.7425C25.5032 14.4982 25.7073 14.4497 25.8833 14.3811C27.0115 13.9368 27.9977 14.2377 28.8759 14.9929C29.472 15.5058 29.7381 16.1923 29.8601 16.9657C30.2722 19.5685 28.2158 21.7534 25.6393 21.4283C25.4752 21.4081 25.3132 21.3636 25.1552 21.3152C24.9871 21.2627 24.9471 21.1637 25.0851 21.0264C25.9093 20.1965 26.3734 19.1748 26.6555 18.0561C27.5676 18.2197 28.2138 18.0036 28.5398 17.4221C28.6919 17.1515 28.7919 16.8748 28.5998 16.574C28.4138 16.2812 28.1257 16.2287 27.8177 16.2448C27.3996 16.2691 26.9995 16.3619 26.6475 16.6083L26.6515 16.6063Z" fill="#E52958"/>
<path id="Vector_12" d="M30.0181 20.4045C30.0341 20.5822 30.1781 20.6387 30.3021 20.7256C30.8202 21.0911 30.8482 21.4343 30.3681 21.8543C29.916 22.2501 29.3419 22.4036 28.7818 22.5348C26.6694 23.0275 24.519 23.1467 22.3646 23.0336C20.9803 22.9609 19.588 22.8397 18.2598 22.3672C17.9797 22.2683 17.7056 22.1411 17.4456 21.9977C16.7615 21.6201 16.7535 21.0931 17.4256 20.665C17.5236 20.6024 17.6376 20.5701 17.6616 20.4348C18.4638 21.4121 19.418 22.1431 20.6922 22.3814C21.7004 22.5692 22.6706 22.4722 23.6088 22.0583C23.8429 21.9553 24.0309 21.9028 24.2989 22.034C26.3093 23.0215 28.6698 22.3713 29.922 20.5136C29.948 20.4732 29.9881 20.4429 30.0201 20.4065L30.0181 20.4045Z" fill="#E0B8AF"/>
<path id="Vector_13" d="M20.9963 7.88108C21.8585 7.84069 22.4506 8.25666 22.9567 8.85436C23.0967 9.01792 23.0927 9.11484 22.9087 9.25013C21.8205 10.0498 20.1641 9.58735 19.69 8.34753C19.644 8.22839 19.588 8.13349 19.7741 8.10724C20.1981 8.0507 20.5922 7.81646 20.9963 7.88108Z" fill="#568E35"/>
<path id="Vector_14" d="M27.3956 10.5708C26.4554 10.5748 25.8073 10.1447 25.3012 9.43795C25.1391 9.21179 25.1871 9.09669 25.4272 8.99371C26.7114 8.4465 27.7697 8.96141 28.5278 10.0296C28.6538 10.2053 28.5818 10.2982 28.4098 10.3648C28.0657 10.4981 27.7136 10.5788 27.3956 10.5687V10.5708Z" fill="#568E35"/>
<path id="Vector_15" d="M26.6514 16.6063C27.0035 16.3599 27.4056 16.2671 27.8217 16.2428C28.1297 16.2247 28.4178 16.2772 28.6038 16.572C28.7959 16.8728 28.6938 17.1495 28.5438 17.4201C28.2177 18.0016 27.5716 18.2156 26.6594 18.0541C26.6574 17.5715 26.6534 17.0889 26.6514 16.6063Z" fill="#FEF5F1"/>
<path id="Vector_16" d="M26.1633 13.5027C25.8533 13.6965 25.5872 13.8621 25.3232 14.0277C24.9791 14.2438 24.661 14.058 24.405 13.8843C24.2029 13.749 24.441 13.533 24.505 13.3593C24.559 13.2099 24.693 13.1958 24.8311 13.1897C25.2852 13.1675 25.7112 13.2543 26.1633 13.5047V13.5027Z" fill="#E52958"/>
<path id="Vector_17" d="M12.5226 22.0623C14.363 22.1572 16.2474 22.4036 17.8957 23.5263C18.1117 23.6737 18.5238 23.7868 18.3218 24.1341C18.1037 24.5056 17.8017 24.2088 17.5596 24.0553C15.8473 22.969 13.9389 22.7267 11.9725 22.7267C11.8405 22.7267 11.7045 22.7408 11.5744 22.7206C11.4104 22.6943 11.3004 22.5793 11.3084 22.4096C11.3164 22.2723 11.3964 22.1714 11.5504 22.131C11.8445 22.0522 12.1426 22.0603 12.5226 22.0623Z" fill="#1A3B58"/>
<path id="Vector_18" d="M28.5718 25.5556C27.8376 25.5677 26.9635 25.4648 26.0953 25.3355C25.8753 25.3032 25.5692 25.2871 25.6372 24.9478C25.6952 24.6591 25.9513 24.6651 26.2013 24.7015C28.1717 24.9801 30.1341 25.0124 32.0665 24.437C32.2945 24.3683 32.5166 24.34 32.6066 24.6066C32.7046 24.8994 32.4526 24.9822 32.2505 25.0447C31.1003 25.4001 29.9201 25.5516 28.5718 25.5556Z" fill="#1A3B58"/>
<path id="Vector_19" d="M36.6274 32.1061C36.0772 32.7078 35.5611 33.3439 34.707 33.5498C34.0408 33.7094 33.4587 33.5801 32.9226 33.1743C32.8026 33.0834 32.6846 32.9925 32.5586 32.9097C31.8244 32.4211 31.3843 32.6109 31.2323 33.4792C30.9602 35.03 30.1501 35.9386 28.6258 36.1708C27.1255 36.399 25.8552 35.5327 25.5472 34.0486C25.4832 33.7396 25.4512 33.4186 25.4432 33.1036C25.4192 32.1323 24.839 31.3872 23.8929 31.2338C23.4268 31.157 22.9587 31.0601 22.4626 31.1792C21.9605 31.3004 21.4384 31.1651 20.9323 31.0783C20.1821 30.947 19.9421 31.0864 19.762 31.8456C19.502 32.9501 18.8339 33.7255 17.8537 34.2223C16.0653 35.1309 14.1309 33.9375 14.0609 31.9122C14.0409 31.3448 14.1129 30.7754 13.9969 30.208C13.9349 29.9071 13.8169 29.6385 13.7029 29.3599C13.2388 28.2271 11.8405 28.1564 11.1804 29.1721C10.5382 30.1636 10.2422 31.3226 10.0901 32.4817C9.95212 33.5236 10.2882 33.9416 11.2804 34.3474C11.5164 34.4444 11.7445 34.5494 11.7625 34.8583C11.7785 35.1127 11.6284 35.2702 11.4344 35.3793C11.2424 35.4883 11.0503 35.4156 10.8603 35.3328C10.6823 35.2541 10.4422 35.1127 10.3302 35.3409C10.2062 35.5933 10.5102 35.666 10.6603 35.7569C11.4524 36.2334 12.3306 36.504 13.2168 36.7241C15.6072 37.3137 18.0457 37.5237 20.4982 37.6711C22.5266 37.7923 24.555 37.8004 26.5754 37.7216C29.2919 37.6186 31.9984 37.3238 34.621 36.5343C35.3071 36.3263 35.9552 36.0275 36.4453 35.4601C36.5933 35.2884 36.7254 35.0784 36.9774 35.0259C37.0674 34.2626 36.9854 33.4973 37.0294 32.7361C37.0494 32.3989 36.9454 32.199 36.6274 32.1101V32.1061Z" fill="#FEF5F1"/>
<path id="Vector_20" d="M23.0947 16.685C23.4808 16.679 23.8589 16.7375 24.2069 16.9031C24.8051 17.1838 24.9071 17.7633 24.459 18.254C24.0369 18.7164 23.4268 18.8214 22.8787 18.5266C22.5386 18.3448 22.2306 18.1167 21.9785 17.8259C21.5964 17.3857 21.7125 16.9778 22.2606 16.79C22.5326 16.6971 22.8127 16.6891 23.0947 16.687V16.685Z" fill="#FEF5F1"/>
</g>
</g>
</g>
<defs>
<clipPath id="clip0_226_2323">
<rect width="50" height="50" fill="white"/>
</clipPath>
</defs>
</svg>
