<svg width="143" height="22" viewBox="0 0 143 22" fill="none" xmlns="http://www.w3.org/2000/svg">
<path d="M28.9473 20.6035C28.7103 20.5853 28.4733 20.5762 28.2363 20.5762C27.9993 20.5762 27.7624 20.5762 27.5254 20.5762C26.2129 20.5762 24.9186 20.6354 23.6426 20.7539C22.3757 20.8633 21.1178 21.0273 19.8691 21.2461H19.7324C19.5228 21.2461 19.3542 21.1732 19.2266 21.0273C19.099 20.8906 19.0352 20.7311 19.0352 20.5488C19.0352 20.3848 19.0853 20.2344 19.1855 20.0977C19.2949 19.9609 19.4408 19.8789 19.623 19.8516C19.9603 19.7786 20.3021 19.7148 20.6484 19.6602C20.9948 19.6055 21.3548 19.5553 21.7285 19.5098C21.7103 19.2363 21.6784 18.8262 21.6328 18.2793C21.5964 17.7324 21.5417 17.0853 21.4688 16.3379C21.4049 15.5905 21.3229 14.7611 21.2227 13.8496C21.1224 12.9382 21.0039 11.9766 20.8672 10.9648C20.7305 9.95312 20.571 8.91406 20.3887 7.84766C20.2064 6.77214 19.9967 5.70573 19.7598 4.64844C19.5137 5.25 19.2402 5.93815 18.9395 6.71289C18.6478 7.48763 18.3424 8.30794 18.0234 9.17383C17.7135 10.0306 17.3991 10.9102 17.0801 11.8125C16.7611 12.7148 16.4512 13.5944 16.1504 14.4512C15.8587 15.3079 15.5807 16.1146 15.3164 16.8711C15.0612 17.6276 14.8379 18.293 14.6465 18.8672C14.4551 19.4414 14.3001 19.9017 14.1816 20.248C14.0723 20.5853 14.0176 20.763 14.0176 20.7812C13.972 20.9362 13.8854 21.0501 13.7578 21.123C13.6302 21.2051 13.4935 21.2461 13.3477 21.2461C13.2109 21.2461 13.0833 21.2142 12.9648 21.1504C12.8464 21.0866 12.7598 21 12.7051 20.8906L6.07422 7.92969C5.8737 9.44271 5.69141 10.9056 5.52734 12.3184C5.45443 12.9199 5.38151 13.5443 5.30859 14.1914C5.24479 14.8294 5.18099 15.4583 5.11719 16.0781C5.05339 16.6888 4.9987 17.2721 4.95312 17.8281C4.91667 18.3841 4.88932 18.8809 4.87109 19.3184C5.26302 19.3366 5.65951 19.373 6.06055 19.4277C6.46159 19.4733 6.8763 19.5417 7.30469 19.6328C7.46875 19.6602 7.60091 19.7422 7.70117 19.8789C7.81055 20.0065 7.86523 20.1569 7.86523 20.3301C7.86523 20.5671 7.7832 20.7448 7.61914 20.8633C7.45508 20.9727 7.30469 21.0273 7.16797 21.0273H7.01758C6.48893 20.9271 5.96484 20.8542 5.44531 20.8086C4.9349 20.7539 4.42448 20.7266 3.91406 20.7266C3.52214 20.7266 3.13477 20.7402 2.75195 20.7676C2.37826 20.7949 2 20.8451 1.61719 20.918H1.50781C1.29818 20.918 1.125 20.8451 0.988281 20.6992C0.851562 20.5534 0.783203 20.3848 0.783203 20.1934C0.783203 20.0202 0.837891 19.8698 0.947266 19.7422C1.05664 19.6055 1.19792 19.5189 1.37109 19.4824C1.70833 19.4277 2.04557 19.3867 2.38281 19.3594C2.72917 19.332 3.07096 19.3092 3.4082 19.291C3.42643 18.8353 3.46289 18.252 3.51758 17.541C3.58138 16.8301 3.6543 16.0326 3.73633 15.1484C3.82747 14.2643 3.93685 13.3118 4.06445 12.291C4.19206 11.2611 4.33789 10.1992 4.50195 9.10547C4.66602 8.01172 4.84831 6.9043 5.04883 5.7832C5.25846 4.66211 5.48633 3.5638 5.73242 2.48828C5.22201 2.47005 4.71615 2.42904 4.21484 2.36523C3.72266 2.29232 3.23047 2.1875 2.73828 2.05078C2.58333 2.00521 2.45573 1.91862 2.35547 1.79102C2.25521 1.66341 2.20508 1.52214 2.20508 1.36719C2.20508 1.15755 2.27799 0.984375 2.42383 0.847656C2.57878 0.710938 2.7474 0.642578 2.92969 0.642578C2.96615 0.642578 2.99805 0.642578 3.02539 0.642578C3.05273 0.642578 3.08919 0.651693 3.13477 0.669922C3.62695 0.797526 4.11914 0.897786 4.61133 0.970703C5.10352 1.03451 5.60938 1.06641 6.12891 1.06641C6.33854 1.06641 6.51628 1.06185 6.66211 1.05273C6.81706 1.04362 6.96745 1.03906 7.11328 1.03906C7.3776 1.03906 7.5918 1.15755 7.75586 1.39453L14.7285 14.2188C14.9928 13.444 15.2663 12.6465 15.5488 11.8262C15.8405 10.9967 16.1322 10.181 16.4238 9.37891C16.7246 8.56771 17.0163 7.78385 17.2988 7.02734C17.5814 6.27083 17.8503 5.57357 18.1055 4.93555C18.3698 4.29753 18.6068 3.73698 18.8164 3.25391C19.0352 2.77083 19.222 2.39714 19.377 2.13281C19.5137 1.90495 19.7188 1.79102 19.9922 1.79102C20.8125 1.7181 21.569 1.6543 22.2617 1.59961C22.9544 1.54492 23.5697 1.49935 24.1074 1.46289C24.6452 1.41732 25.0918 1.38086 25.4473 1.35352C25.8118 1.32617 26.0716 1.30339 26.2266 1.28516C26.2539 1.28516 26.2767 1.2806 26.2949 1.27148C26.3132 1.26237 26.3314 1.25781 26.3496 1.25781C26.5592 1.25781 26.7324 1.33529 26.8691 1.49023C27.0059 1.63607 27.0742 1.80013 27.0742 1.98242C27.0742 2.16471 27.015 2.32422 26.8965 2.46094C26.7871 2.58854 26.6413 2.66602 26.459 2.69336C26.3132 2.7207 26.0853 2.75716 25.7754 2.80273C25.4655 2.83919 25.0781 2.88477 24.6133 2.93945C24.668 3.32227 24.75 3.86003 24.8594 4.55273C24.9779 5.23633 25.1009 6.02474 25.2285 6.91797C25.3652 7.80208 25.5065 8.76367 25.6523 9.80273C25.7982 10.8418 25.9395 11.8991 26.0762 12.9746C26.2129 14.0501 26.3314 15.1165 26.4316 16.1738C26.541 17.2311 26.623 18.2246 26.6777 19.1543H27.5254C27.7624 19.1543 28.0039 19.1543 28.25 19.1543C28.4961 19.1543 28.7376 19.1634 28.9746 19.1816C29.1751 19.1816 29.3392 19.25 29.4668 19.3867C29.6035 19.5143 29.6719 19.6784 29.6719 19.8789C29.6719 20.0885 29.599 20.2617 29.4531 20.3984C29.3164 20.5352 29.1478 20.6035 28.9473 20.6035ZM48.375 7C48.375 6.36198 48.2702 5.80599 48.0605 5.33203C47.8509 4.84896 47.5547 4.43424 47.1719 4.08789C46.7982 3.74154 46.347 3.45898 45.8184 3.24023C45.2897 3.01237 44.7109 2.83464 44.082 2.70703C43.4531 2.57031 42.7786 2.47917 42.0586 2.43359C41.3477 2.37891 40.6139 2.35156 39.8574 2.35156C39.6478 2.35156 39.4564 2.35156 39.2832 2.35156C39.11 2.35156 38.946 2.36068 38.791 2.37891L38.5449 11.6758C38.8913 11.7487 39.2695 11.7988 39.6797 11.8262C40.0898 11.8535 40.5137 11.8672 40.9512 11.8672C41.4889 11.8672 42.0449 11.8353 42.6191 11.7715C43.1934 11.7077 43.7539 11.6029 44.3008 11.457C44.8568 11.3112 45.3809 11.1198 45.873 10.8828C46.3652 10.6367 46.7936 10.3359 47.1582 9.98047C47.5319 9.61589 47.8281 9.1875 48.0469 8.69531C48.2656 8.20312 48.375 7.63802 48.375 7ZM50.6445 15.6543C50.6445 15.6725 50.6491 15.7227 50.6582 15.8047C50.6673 15.8776 50.6719 15.987 50.6719 16.1328C50.6719 16.8711 50.5579 17.5547 50.3301 18.1836C50.1113 18.8125 49.7969 19.3548 49.3867 19.8105C48.9766 20.2572 48.4798 20.6081 47.8965 20.8633C47.3132 21.1185 46.6615 21.2461 45.9414 21.2461H45.9004C45.235 21.2279 44.6471 21.1185 44.1367 20.918C43.6354 20.7174 43.1934 20.4531 42.8105 20.125C42.4368 19.7878 42.1224 19.3958 41.8672 18.9492C41.612 18.5026 41.4069 18.0241 41.252 17.5137C41.097 16.9941 40.9831 16.4564 40.9102 15.9004C40.8464 15.3444 40.8145 14.793 40.8145 14.2461C40.8145 14.082 40.819 13.9225 40.8281 13.7676C40.8372 13.6035 40.8418 13.4577 40.8418 13.3301C40.4316 13.3301 40.0306 13.3118 39.6387 13.2754C39.2559 13.2389 38.8822 13.1934 38.5176 13.1387L38.3125 20.2207C38.3125 20.4395 38.2396 20.6126 38.0938 20.7402C37.957 20.8587 37.7884 20.918 37.5879 20.918C37.5788 20.918 37.3919 20.9225 37.0273 20.9316C36.6719 20.9316 36.2116 20.9408 35.6465 20.959C35.0814 20.9772 34.457 21.0091 33.7734 21.0547C33.0898 21.1003 32.4199 21.1641 31.7637 21.2461H31.6816C31.472 21.2461 31.2988 21.1732 31.1621 21.0273C31.0254 20.8906 30.957 20.7311 30.957 20.5488C30.957 20.3665 31.0117 20.207 31.1211 20.0703C31.2396 19.9336 31.39 19.8516 31.5723 19.8242C31.9095 19.7786 32.2513 19.7422 32.5977 19.7148C32.9531 19.6875 33.2995 19.6602 33.6367 19.6328L33.9512 2.77539C33.2767 2.88477 32.7663 2.98047 32.4199 3.0625C32.0736 3.14453 31.8913 3.18555 31.873 3.18555C31.8092 3.23112 31.7454 3.25391 31.6816 3.25391C31.472 3.25391 31.2988 3.18099 31.1621 3.03516C31.0254 2.88932 30.957 2.71615 30.957 2.51562C30.957 2.36068 31.0026 2.22396 31.0938 2.10547C31.1849 1.97786 31.3079 1.89128 31.4629 1.8457C31.4902 1.83659 31.6816 1.7819 32.0371 1.68164C32.3926 1.58138 32.9167 1.47656 33.6094 1.36719C34.3112 1.25781 35.1771 1.15755 36.207 1.06641C37.2461 0.97526 38.4629 0.929688 39.8574 0.929688C40.7507 0.97526 41.612 1.03906 42.4414 1.12109C43.2799 1.20312 44.0684 1.33073 44.8066 1.50391C45.5449 1.66797 46.2194 1.89128 46.8301 2.17383C47.4408 2.44727 47.9648 2.80273 48.4023 3.24023C48.849 3.67773 49.1908 4.20638 49.4277 4.82617C49.6738 5.43685 49.7969 6.16146 49.7969 7C49.7969 7.66536 49.6921 8.29427 49.4824 8.88672C49.2819 9.47005 48.9993 10.0033 48.6348 10.4863C48.2702 10.9603 47.8281 11.375 47.3086 11.7305C46.7982 12.0768 46.2376 12.3503 45.627 12.5508C45.6087 12.7604 45.5951 12.9746 45.5859 13.1934C45.5768 13.4121 45.5723 13.6354 45.5723 13.8633C45.5723 14.0547 45.5768 14.3236 45.5859 14.6699C45.5951 15.0163 45.6178 15.3945 45.6543 15.8047C45.6908 16.2148 45.7454 16.6341 45.8184 17.0625C45.9004 17.4909 46.0052 17.8828 46.1328 18.2383C46.2695 18.5846 46.4382 18.8717 46.6387 19.0996C46.8392 19.3184 47.0807 19.4277 47.3633 19.4277C47.7279 19.4277 48.0286 19.3047 48.2656 19.0586C48.5026 18.8125 48.694 18.5163 48.8398 18.1699C48.9857 17.8145 49.0859 17.4499 49.1406 17.0762C49.2044 16.7025 49.2363 16.388 49.2363 16.1328C49.2363 16.0326 49.2318 15.9505 49.2227 15.8867C49.2135 15.8229 49.209 15.7637 49.209 15.709C49.209 15.4993 49.2819 15.3307 49.4277 15.2031C49.5827 15.0755 49.7513 15.0117 49.9336 15.0117C50.1159 15.0117 50.2754 15.0755 50.4121 15.2031C50.5488 15.3216 50.6263 15.472 50.6445 15.6543ZM57.3301 19.5098C57.3301 19.8014 57.2754 20.0749 57.166 20.3301C57.0566 20.5853 56.9062 20.8086 56.7148 21C56.5326 21.1914 56.3138 21.3418 56.0586 21.4512C55.8034 21.5605 55.5299 21.6152 55.2383 21.6152C54.9466 21.6152 54.6732 21.5605 54.418 21.4512C54.1628 21.3418 53.9395 21.1914 53.748 21C53.5566 20.8086 53.4062 20.5853 53.2969 20.3301C53.1875 20.0749 53.1328 19.8014 53.1328 19.5098C53.1328 19.2272 53.1875 18.9583 53.2969 18.7031C53.4062 18.4479 53.5566 18.2292 53.748 18.0469C53.9395 17.8646 54.1628 17.7188 54.418 17.6094C54.6732 17.5 54.9466 17.4453 55.2383 17.4453C55.5299 17.4453 55.8034 17.5 56.0586 17.6094C56.3138 17.7188 56.5326 17.8646 56.7148 18.0469C56.9062 18.2292 57.0566 18.4479 57.166 18.7031C57.2754 18.9583 57.3301 19.2272 57.3301 19.5098ZM76.4707 7.92969C76.4251 8.08464 76.3385 8.20312 76.2109 8.28516C76.0833 8.35807 75.9421 8.39453 75.7871 8.39453C75.5775 8.39453 75.4043 8.31706 75.2676 8.16211C75.1309 8.00716 75.0625 7.85221 75.0625 7.69727C75.0625 7.62435 75.0807 7.55143 75.1172 7.47852L75.9922 4.92188C75.7643 4.55729 75.4863 4.21094 75.1582 3.88281C74.8392 3.54557 74.4883 3.24935 74.1055 2.99414C73.7227 2.73893 73.3171 2.53841 72.8887 2.39258C72.4603 2.23763 72.0273 2.16016 71.5898 2.16016C70.7604 2.16016 70.0176 2.28776 69.3613 2.54297C68.7142 2.79818 68.1445 3.14453 67.6523 3.58203C67.1693 4.01953 66.7546 4.53451 66.4082 5.12695C66.0618 5.71029 65.7793 6.33464 65.5605 7C65.3509 7.66536 65.196 8.35352 65.0957 9.06445C65.0046 9.76628 64.959 10.459 64.959 11.1426C64.959 11.735 64.9909 12.3685 65.0547 13.043C65.1185 13.7083 65.2279 14.3783 65.3828 15.0527C65.5378 15.7181 65.7428 16.3607 65.998 16.9805C66.2533 17.5911 66.5677 18.1335 66.9414 18.6074C67.3242 19.0814 67.7708 19.4596 68.2812 19.7422C68.7917 20.0247 69.3841 20.166 70.0586 20.166C70.8516 20.166 71.6035 20.0521 72.3145 19.8242C73.0345 19.5964 73.6862 19.2728 74.2695 18.8535C74.862 18.4251 75.377 17.9147 75.8145 17.3223C76.2611 16.7298 76.6074 16.069 76.8535 15.3398C76.8991 15.1758 76.9857 15.0436 77.1133 14.9434C77.2409 14.834 77.3867 14.7793 77.5508 14.7793C77.7513 14.7793 77.9199 14.8568 78.0566 15.0117C78.1934 15.1667 78.2617 15.3353 78.2617 15.5176V15.6816C78.2526 15.6999 78.2207 15.791 78.166 15.9551C78.1204 16.1191 78.0384 16.3333 77.9199 16.5977C77.8105 16.8529 77.6602 17.1491 77.4688 17.4863C77.2865 17.8145 77.054 18.1562 76.7715 18.5117C76.3522 19.0312 75.8828 19.4824 75.3633 19.8652C74.8438 20.248 74.2923 20.5671 73.709 20.8223C73.1348 21.0775 72.5378 21.2689 71.918 21.3965C71.2982 21.5241 70.6784 21.5879 70.0586 21.5879C68.5 21.5605 67.1009 21.3099 65.8613 20.8359C64.6309 20.3529 63.5827 19.6829 62.7168 18.8262C61.86 17.9603 61.1992 16.9212 60.7344 15.709C60.2786 14.4967 60.0508 13.1432 60.0508 11.6484C60.0508 10.263 60.1966 9.02799 60.4883 7.94336C60.7799 6.85872 61.1764 5.91081 61.6777 5.09961C62.1882 4.2793 62.7852 3.58659 63.4688 3.02148C64.1523 2.44727 64.877 1.98242 65.6426 1.62695C66.4173 1.27148 67.2194 1.01628 68.0488 0.861328C68.8783 0.697266 69.694 0.615234 70.4961 0.615234C71.2982 0.615234 72.0182 0.701823 72.6562 0.875C73.2943 1.03906 73.8639 1.25326 74.3652 1.51758C74.8665 1.7819 75.2949 2.07357 75.6504 2.39258C76.015 2.70247 76.3158 2.9987 76.5527 3.28125L77.3047 1.12109C77.3594 0.966146 77.4505 0.843099 77.5781 0.751953C77.7057 0.660807 77.8379 0.615234 77.9746 0.615234C78.1751 0.615234 78.3438 0.692708 78.4805 0.847656C78.6263 0.99349 78.6992 1.15755 78.6992 1.33984C78.6992 1.42188 78.681 1.49935 78.6445 1.57227L76.4707 7.92969ZM92.9043 13.8086C92.5671 12.7786 92.2116 11.8307 91.8379 10.9648C91.4642 10.0898 91.0951 9.30599 90.7305 8.61328C90.375 7.91146 90.0332 7.30078 89.7051 6.78125C89.3861 6.2526 89.1126 5.81966 88.8848 5.48242C88.0371 6.92253 87.276 8.33073 86.6016 9.70703C85.9362 11.0742 85.3438 12.4414 84.8242 13.8086C85.5534 13.8906 86.2552 13.959 86.9297 14.0137C87.6042 14.0592 88.2741 14.082 88.9395 14.082C89.5957 14.082 90.2474 14.0592 90.8945 14.0137C91.5508 13.959 92.2207 13.8906 92.9043 13.8086ZM102.229 21.3145C102.21 21.3145 102.192 21.3099 102.174 21.3008C102.156 21.3008 102.137 21.2917 102.119 21.2734C101.29 21.1458 100.469 21.0547 99.6582 21C98.8561 20.9453 98.054 20.918 97.252 20.918C96.459 20.918 95.6751 20.9453 94.9004 21C94.1348 21.0547 93.3691 21.1458 92.6035 21.2734C92.5853 21.2917 92.5671 21.3008 92.5488 21.3008C92.5306 21.3099 92.5124 21.3145 92.4941 21.3145C92.2936 21.3145 92.1204 21.237 91.9746 21.082C91.8379 20.9271 91.7695 20.7585 91.7695 20.5762C91.7695 20.4121 91.8242 20.2617 91.9336 20.125C92.0521 19.9883 92.2025 19.9062 92.3848 19.8789C92.7493 19.806 93.1185 19.7513 93.4922 19.7148C93.8659 19.6693 94.2487 19.6237 94.6406 19.5781C94.5951 19.4049 94.5404 19.1908 94.4766 18.9355C94.4128 18.6712 94.3262 18.3613 94.2168 18.0059C94.1165 17.6504 93.9935 17.2402 93.8477 16.7754C93.7109 16.3014 93.5469 15.7682 93.3555 15.1758C92.5807 15.2852 91.8333 15.3717 91.1133 15.4355C90.3932 15.4902 89.6686 15.5176 88.9395 15.5176C88.2012 15.5176 87.4538 15.4902 86.6973 15.4355C85.9408 15.3717 85.1478 15.2852 84.3184 15.1758C83.8353 16.6159 83.4434 18.0423 83.1426 19.4551C83.7077 19.4733 84.2728 19.5189 84.8379 19.5918C85.4121 19.6556 85.9954 19.7513 86.5879 19.8789C86.752 19.9062 86.8841 19.9883 86.9844 20.125C87.0938 20.2617 87.1484 20.4121 87.1484 20.5762C87.1484 20.7858 87.0664 20.959 86.9023 21.0957C86.7474 21.2415 86.5833 21.3145 86.4102 21.3145C86.3828 21.3145 86.36 21.3053 86.3418 21.2871C86.3236 21.278 86.3008 21.2734 86.2734 21.2734C85.6719 21.1458 85.0794 21.0501 84.4961 20.9863C83.9219 20.9225 83.3477 20.8906 82.7734 20.8906C82.2083 20.8906 81.6523 20.9225 81.1055 20.9863C80.5586 21.0501 80.0026 21.1458 79.4375 21.2734C79.4102 21.2734 79.3874 21.278 79.3691 21.2871C79.3509 21.3053 79.3281 21.3145 79.3008 21.3145C79.0911 21.3145 78.918 21.2415 78.7812 21.0957C78.6445 20.9499 78.5762 20.7767 78.5762 20.5762C78.5762 20.4121 78.6263 20.2663 78.7266 20.1387C78.8268 20.0111 78.9635 19.9245 79.1367 19.8789C79.5469 19.7786 79.957 19.7012 80.3672 19.6465C80.7865 19.5918 81.2148 19.5462 81.6523 19.5098C81.9622 18.0059 82.3678 16.502 82.8691 14.998C83.3704 13.4941 83.9674 11.9766 84.6602 10.4453C85.362 8.90495 86.1641 7.3418 87.0664 5.75586C87.9688 4.16992 88.985 2.53841 90.1152 0.861328C90.1973 0.751953 90.2884 0.674479 90.3887 0.628906C90.498 0.583333 90.6029 0.560547 90.7031 0.560547C90.8125 0.560547 90.9173 0.583333 91.0176 0.628906C91.1178 0.665365 91.1999 0.724609 91.2637 0.806641C93.1777 3.24935 94.8184 6.02018 96.1855 9.11914C97.5618 12.209 98.6921 15.6862 99.5762 19.5508C100.506 19.6328 101.431 19.7422 102.352 19.8789C102.534 19.9062 102.68 19.9883 102.789 20.125C102.908 20.2617 102.967 20.4121 102.967 20.5762C102.967 20.7767 102.885 20.9499 102.721 21.0957C102.566 21.2415 102.402 21.3145 102.229 21.3145ZM125.621 19.5098C125.621 19.6829 125.562 19.8379 125.443 19.9746C125.334 20.1113 125.188 20.1934 125.006 20.2207L118.143 21.1914H118.061C117.896 21.1914 117.746 21.1413 117.609 21.041C117.473 20.9408 117.391 20.804 117.363 20.6309C117.354 20.6217 117.313 20.485 117.24 20.2207C117.176 19.9564 117.067 19.6009 116.912 19.1543C116.757 18.7077 116.548 18.1882 116.283 17.5957C116.028 16.9941 115.709 16.3561 115.326 15.6816C114.952 15.0072 114.506 14.3145 113.986 13.6035C113.476 12.8926 112.883 12.1953 112.209 11.5117C111.926 11.7305 111.676 11.9173 111.457 12.0723C111.238 12.2272 111.061 12.3548 110.924 12.4551L111.061 19.6055C111.398 19.6328 111.74 19.6602 112.086 19.6875C112.432 19.7148 112.774 19.7422 113.111 19.7695C113.294 19.7969 113.444 19.8789 113.562 20.0156C113.69 20.1523 113.754 20.3118 113.754 20.4941C113.754 20.722 113.672 20.8952 113.508 21.0137C113.344 21.1322 113.184 21.1914 113.029 21.1914H112.934C112.25 21.1185 111.553 21.0638 110.842 21.0273C110.14 20.9909 109.429 20.9727 108.709 20.9727C107.98 20.9727 107.251 20.9909 106.521 21.0273C105.801 21.0638 105.077 21.1185 104.348 21.1914H104.266C104.056 21.1914 103.883 21.123 103.746 20.9863C103.618 20.8405 103.555 20.6764 103.555 20.4941C103.555 20.3118 103.614 20.1523 103.732 20.0156C103.86 19.8789 104.015 19.7969 104.197 19.7695C104.571 19.7422 104.936 19.7148 105.291 19.6875C105.656 19.6602 106.011 19.6328 106.357 19.6055L105.906 2.77539C105.56 2.75716 105.214 2.73893 104.867 2.7207C104.53 2.69336 104.188 2.66602 103.842 2.63867C103.66 2.62044 103.505 2.54297 103.377 2.40625C103.258 2.26953 103.199 2.11003 103.199 1.92773C103.199 1.70898 103.277 1.53581 103.432 1.4082C103.587 1.27148 103.751 1.20312 103.924 1.20312H103.979C104.525 1.25781 105.072 1.29427 105.619 1.3125C106.166 1.33073 106.722 1.33984 107.287 1.33984C108.217 1.33984 109.151 1.3125 110.09 1.25781C111.029 1.19401 111.977 1.09375 112.934 0.957031H113.029C113.239 0.957031 113.412 1.02995 113.549 1.17578C113.686 1.3125 113.754 1.48112 113.754 1.68164C113.754 1.8457 113.695 1.99609 113.576 2.13281C113.467 2.26953 113.321 2.35156 113.139 2.37891C112.729 2.43359 112.327 2.48372 111.936 2.5293C111.544 2.56576 111.152 2.60221 110.76 2.63867L110.896 10.6914C111.334 10.3542 111.844 9.94401 112.428 9.46094C113.02 8.96875 113.635 8.38997 114.273 7.72461C114.921 7.05013 115.559 6.28906 116.188 5.44141C116.826 4.58464 117.404 3.6276 117.924 2.57031H115.996C115.796 2.57031 115.622 2.50651 115.477 2.37891C115.331 2.24219 115.258 2.07357 115.258 1.87305C115.258 1.66341 115.331 1.49023 115.477 1.35352C115.622 1.2168 115.796 1.14844 115.996 1.14844H122.121C122.322 1.14844 122.49 1.2168 122.627 1.35352C122.773 1.49023 122.846 1.66341 122.846 1.87305C122.846 2.07357 122.773 2.24219 122.627 2.37891C122.49 2.50651 122.322 2.57031 122.121 2.57031H119.523C119.241 3.19922 118.94 3.78255 118.621 4.32031C118.311 4.84896 117.988 5.35026 117.65 5.82422C117.313 6.28906 116.962 6.73112 116.598 7.15039C116.233 7.56966 115.864 7.98438 115.49 8.39453C115.691 8.56771 115.951 8.8138 116.27 9.13281C116.589 9.44271 116.939 9.82552 117.322 10.2812C117.705 10.737 118.102 11.2656 118.512 11.8672C118.931 12.4596 119.341 13.1296 119.742 13.877C120.143 14.6243 120.517 15.4447 120.863 16.3379C121.219 17.2311 121.52 18.1973 121.766 19.2363L124.814 18.7852H124.896C125.106 18.7852 125.279 18.8581 125.416 19.0039C125.553 19.1497 125.621 19.3184 125.621 19.5098ZM142.041 20.6309C142.014 20.8132 141.932 20.959 141.795 21.0684C141.658 21.1868 141.499 21.2461 141.316 21.2461H141.289C138.837 21.082 136.445 21 134.111 21C131.742 21 129.458 21.082 127.262 21.2461H127.193C126.984 21.2279 126.811 21.1549 126.674 21.0273C126.537 20.8997 126.469 20.7311 126.469 20.5215C126.469 20.3392 126.533 20.1842 126.66 20.0566C126.788 19.9199 126.947 19.8424 127.139 19.8242C127.43 19.7969 127.722 19.7786 128.014 19.7695C128.314 19.7513 128.611 19.7331 128.902 19.7148V3.04883C128.611 3.0306 128.319 3.02148 128.027 3.02148C127.745 3.02148 127.458 3.02148 127.166 3.02148C126.975 3.00326 126.811 2.93034 126.674 2.80273C126.537 2.66602 126.469 2.4974 126.469 2.29688C126.469 2.09635 126.542 1.92773 126.688 1.79102C126.833 1.64518 127.002 1.57227 127.193 1.57227C127.54 1.59049 127.872 1.59961 128.191 1.59961C128.52 1.59961 128.843 1.59961 129.162 1.59961C131.104 1.59961 133.027 1.53581 134.932 1.4082C136.837 1.2806 138.737 1.08919 140.633 0.833984H140.756C140.938 0.833984 141.093 0.897786 141.221 1.02539C141.348 1.14388 141.426 1.28516 141.453 1.44922L142.041 6.07031V6.16602C142.041 6.37565 141.964 6.54427 141.809 6.67188C141.663 6.79948 141.499 6.86328 141.316 6.86328C141.143 6.86328 140.988 6.80859 140.852 6.69922C140.724 6.58073 140.642 6.43034 140.605 6.24805L140.113 2.35156C139.056 2.4974 137.994 2.61589 136.928 2.70703C135.87 2.78906 134.804 2.85742 133.729 2.91211V11.9219C133.947 11.9128 134.239 11.8991 134.604 11.8809C134.968 11.8626 135.36 11.8353 135.779 11.7988C136.208 11.7624 136.641 11.7214 137.078 11.6758C137.525 11.6211 137.939 11.5573 138.322 11.4844H138.459C138.65 11.4844 138.819 11.5573 138.965 11.7031C139.111 11.8398 139.184 11.9993 139.184 12.1816C139.184 12.3639 139.129 12.5189 139.02 12.6465C138.91 12.7741 138.769 12.8607 138.596 12.9062C138.176 12.9883 137.725 13.0566 137.242 13.1113C136.768 13.166 136.303 13.2116 135.848 13.248C135.401 13.2754 134.991 13.2982 134.617 13.3164C134.243 13.3346 133.947 13.3483 133.729 13.3574V19.5781H134.111C135.196 19.5781 136.285 19.5918 137.379 19.6191C138.482 19.6465 139.589 19.6966 140.701 19.7695L141.193 16.1055C141.23 15.9232 141.312 15.7773 141.439 15.668C141.576 15.5495 141.731 15.4902 141.904 15.4902C142.123 15.4902 142.296 15.5677 142.424 15.7227C142.561 15.8776 142.629 16.0326 142.629 16.1875V16.2969L142.041 20.6309Z" fill="#283C54"/>
</svg>
