<svg width="119" height="148" viewBox="0 0 119 148" fill="none" xmlns="http://www.w3.org/2000/svg">
<g id="Layer_1" clip-path="url(#clip0_358_9684)">
<path id="Vector" d="M83.6006 107.443C82.8911 107.487 82.1842 107.531 81.4747 107.572C80.6306 107.454 79.789 107.469 78.9553 107.657C78.7326 107.668 78.5099 107.678 78.2898 107.691C78.0101 107.513 77.7279 107.539 77.4431 107.67C70.9515 107.624 64.4599 107.575 57.971 107.529C57.1087 107.516 56.249 107.503 55.3868 107.49C54.9699 107.358 54.5452 107.33 54.1154 107.41L54.0144 107.351C54.0972 106.696 54.4986 106.175 54.7601 105.598C55.6509 103.626 55.8969 101.628 55.2029 99.525C54.6747 97.9268 53.5431 96.7746 52.5022 95.5425C52.8932 95.094 53.323 94.6713 53.6648 94.1893C54.5193 92.9881 54.6307 91.5704 53.9004 90.6064C53.0434 89.4748 51.8445 89.3356 50.5472 89.6423C48.6932 90.0805 47.3623 91.225 46.3291 92.7638C44.9671 92.6865 43.6879 93.0242 42.4476 93.5474C42.1136 93.3747 41.9919 93.0628 41.865 92.7355C41.0442 90.6347 40.7386 88.4282 40.648 86.2063C40.56 84.0695 40.5574 81.9249 40.8448 79.7932C41.0364 79.703 41.2255 79.6102 41.4197 79.5251C43.6905 78.5095 43.9158 77.6486 42.4243 75.7051C42.2431 75.4705 42.0748 75.2256 41.8987 74.9859C42.5771 73.0836 42.6729 71.0241 43.4937 69.1604C44.6667 69.7069 45.8423 70.2327 47.1914 70.0987C48.2375 69.9956 48.8512 69.4672 48.9522 68.4026C49.0531 67.3148 48.9573 66.2322 48.4084 65.2837C47.8465 64.3119 48.2245 64.214 49.1256 64.1908C50.8812 64.1418 52.3934 63.5077 53.4836 62.0642C54.6048 64.6986 55.4385 67.4566 56.9818 69.9105C58.0331 71.5834 59.0611 73.2718 60.6199 74.5322C61.0678 74.8957 61.5987 75.2952 62.2641 75.0091C62.9633 74.7075 63.1212 74.0786 63.1212 73.4135C63.1212 72.6454 63.0694 71.8773 62.9943 71.1143C62.7095 68.2041 61.6815 65.459 61.0653 62.6236L61.0937 62.5952C61.4744 62.6029 61.7022 62.8813 61.9793 63.0772C71.7128 69.9775 82.3422 74.4188 94.4553 74.7745C95.2968 78.8884 95.781 83.0358 95.4962 87.2348C95.3615 89.2273 95.0923 91.2147 94.1808 93.0448C93.9788 92.9752 93.7535 92.9443 93.5801 92.8334C91.695 91.6297 89.5976 91.64 87.4795 91.7508C86.9098 91.7818 86.3609 91.8849 86.089 92.488C84.9212 91.0729 83.6058 89.8923 81.6896 89.5908C80.3898 89.3871 79.2608 89.6423 78.5513 90.8074C77.8548 91.9519 78.0723 93.1015 78.8051 94.1764C79.4498 95.1198 80.4001 95.7075 81.322 96.3313C81.2909 96.5865 81.2935 96.8494 81.2261 97.0942C80.1671 100.968 80.716 104.471 83.6032 107.446L83.6006 107.443ZM70.1825 94.1583C70.1462 93.9856 70.2239 93.6299 69.8251 93.5397C69.473 93.4598 69.4315 93.715 69.359 93.983C68.9784 95.3904 68.3621 95.6121 67.2901 94.6249C66.8007 94.1738 66.6117 94.2485 66.1793 94.6713C65.1616 95.6662 64.5376 95.4858 64.1155 94.1609C64.0275 93.8877 64.0275 93.4881 63.5795 93.6505C63.2533 93.7691 63.2274 94.0939 63.2585 94.4161C63.3853 95.759 64.8095 96.5349 66.0653 95.857C66.5936 95.5709 66.8965 95.5064 67.4714 95.8415C68.7945 96.6122 70.2291 95.7255 70.1825 94.1609V94.1583ZM81.2236 77.8574C81.1407 77.4063 80.7704 77.1691 80.4208 76.95C80.0376 76.7103 79.6699 76.3417 79.1676 76.45C78.9449 76.499 78.8879 76.7928 79.0252 76.9784C79.4913 77.6151 80.1697 77.9579 80.9051 78.1796C81.0889 78.2363 81.1925 78.0584 81.2261 77.8574H81.2236ZM52.2277 78.2853C52.6705 77.896 53.5431 77.8213 53.7762 76.9655C53.8383 76.7335 53.626 76.5402 53.3929 76.5995C52.6239 76.7928 52.0128 77.2362 51.6606 77.9476C51.5545 78.1641 51.8186 78.2904 52.2277 78.2878V78.2853Z" fill="#FCFDFD"/>
<path id="Vector_2" d="M55.1589 43.7862C59.2346 42.6083 63.375 41.9406 67.6397 41.9278C72.3032 41.9149 76.8087 42.7526 81.2547 44.0466C81.5602 44.3533 81.9331 44.5466 82.3267 44.7296C84.1522 45.5828 86.0088 46.3664 87.7592 47.3872C89.9136 48.6425 91.9799 50.0215 93.9737 51.5011C94.4424 51.8491 95.4393 52.1893 94.7557 53.1714C94.2922 53.4652 93.6837 53.6354 93.7225 54.3623C93.518 55.0041 93.8908 55.4217 94.3051 55.816C95.1078 56.579 95.9054 57.3472 96.7236 58.0921C97.1457 58.4762 97.1845 58.7906 96.8298 59.2804C96.053 60.3553 95.3538 61.4843 94.6236 62.5901C92.7411 62.1313 90.9597 61.3734 89.1445 60.7187C88.8312 60.6053 88.4143 60.381 88.2175 60.7548C88.0104 61.144 88.4324 61.3941 88.725 61.51C90.6722 62.2859 92.5677 63.2371 94.7143 63.3814C95.0664 63.9872 95.7008 64.1676 96.2886 64.4176C96.1617 65.7245 95.3176 66.6911 94.6288 67.7041C93.1813 69.8332 91.3817 71.6659 89.5355 73.4522C89.1911 73.4264 88.8441 73.4316 88.5049 73.3749C79.8409 71.8902 71.8811 68.6759 64.6179 63.75C63.5511 63.0283 62.5542 62.206 61.5055 61.4559C61.1223 61.1827 60.6743 60.912 60.1901 61.1982C59.6644 61.51 59.8198 62.0024 59.9545 62.4638C60.1487 63.1211 60.3377 63.7809 60.5422 64.4357C61.3631 67.0597 62.0752 69.7095 62.1114 72.483C62.1166 72.929 62.3419 73.5424 61.8499 73.7873C61.2517 74.0837 60.9384 73.4471 60.6096 73.1017C57.4868 69.8538 55.8425 65.8095 54.4054 61.6518C53.9005 60.1929 53.4163 58.7803 55.3557 57.9632C55.379 57.9529 55.379 57.8833 55.3894 57.8421C55.8607 57.8446 56.3319 57.8524 56.8032 57.8498C58.7064 57.8395 59.1647 57.293 58.8462 55.4036C58.4966 53.3312 57.8363 51.349 57.0285 49.4158C56.2413 47.5315 55.3972 45.6679 54.5789 43.7965C54.7731 43.7914 54.9673 43.7888 55.1589 43.7837V43.7862Z" fill="#5C6F89"/>
<path id="Vector_3" d="M40.8423 79.7906C40.5548 81.9223 40.5574 84.0669 40.6455 86.2038C40.7361 88.4283 41.0391 90.6321 41.8625 92.7329C41.9919 93.0603 42.1111 93.3722 42.4451 93.5449C42.4037 95.1069 43.5999 96.0709 44.2654 97.2902C44.5994 97.9062 45.2494 98.4604 44.7315 99.2672C44.2395 100.033 43.4912 100.213 42.6186 100.26C41.3834 100.324 40.2674 99.7338 39.0582 99.7183C38.807 99.5533 38.5766 99.342 38.3047 99.2285C35.1612 97.9294 33.2036 95.424 31.505 92.6479C31.1088 91.9983 30.9793 91.1838 30.2931 90.7121C30.0834 88.8794 29.3558 87.1549 29.2211 85.3016C29.0658 83.1622 28.8923 81.0305 29.0943 78.8137C28.1983 79.9839 27.3102 81.1593 26.4091 82.3244C23.9854 85.4563 21.3546 88.4128 18.5322 91.1889C17.4731 92.2303 17.2504 93.2536 17.7165 94.6249C18.7186 97.5711 20.3007 100.033 23.0791 101.613C23.742 101.989 24.5887 102.327 24.2677 103.332C23.9388 104.363 22.9678 104.245 22.191 104.19C17.8848 103.894 14.6766 101.698 12.183 98.3186C11.6962 97.3649 11.0463 96.5143 10.5932 95.5296C9.29847 92.7252 9.34249 89.6939 8.94373 86.7348C9.33731 81.8373 9.73607 76.9398 11.3001 72.2304C11.3493 72.0809 11.2819 71.8953 11.269 71.7252C11.7817 71.4545 11.8775 70.9287 12.0717 70.4544C14.1561 65.4023 17.0045 60.9378 21.8181 58.007C22.5172 57.5817 22.9238 57.0559 23.149 56.2362C24.0683 52.8672 25.7099 50.0215 28.9389 48.2481C30.7644 47.2454 32.6754 47.413 34.5993 47.3923C34.9281 48.5213 35.2596 49.6503 35.5884 50.7793C34.2135 51.599 33.9701 52.9471 33.8976 54.3751C29.9954 54.6561 26.5437 56.0635 23.5193 58.5148C21.51 60.1439 21.4193 61.1157 23.3044 62.9071C26.3547 65.807 29.493 68.614 32.5925 71.4597C32.5925 71.6736 32.5666 71.8902 32.5977 72.1015C32.7323 73.0939 32.5278 73.728 31.3626 74.0193C30.4123 74.2564 29.7209 75.0787 29.1668 75.9216C28.8923 76.3366 28.7473 76.7825 29.0114 77.2491C29.638 78.3497 30.3372 79.404 31.7691 79.4993C32.463 79.5457 32.6598 79.8009 32.5148 80.4711C32.1963 81.9223 32.7764 83.157 33.5583 84.3221C33.8354 84.7345 34.1901 85.0541 34.7443 84.8273C36.0985 84.2731 37.1964 83.4689 37.7687 82.0332C38.069 81.2779 37.6211 80.1412 38.3176 79.8009C38.9986 79.4684 39.9904 79.7648 40.8474 79.7855L40.8423 79.7906ZM17.8848 71.635C19.2935 71.5113 20.3007 70.0368 21.1319 68.4104C21.844 67.0159 21.5333 65.6652 20.4276 64.8403C19.1692 63.8995 17.9185 63.9356 16.6575 64.9666C15.7823 65.6832 15.1505 66.5777 14.6662 67.6061C13.6616 69.7456 14.8268 71.635 17.8848 71.6324V71.635ZM21.2044 71.1762C21.2226 72.2536 21.945 72.9547 22.9807 72.9006C24.1201 72.8413 25.1325 71.6427 25.0885 70.408C25.0548 69.4466 24.3324 68.8176 23.2837 68.8305C22.2454 68.8434 21.1837 70.0394 21.2044 71.1787V71.1762Z" fill="#5C6F89"/>
<path id="Vector_4" d="M94.7557 53.1741C95.4419 52.192 94.445 51.8517 93.9737 51.5037C91.9799 50.0242 89.9135 48.6452 87.7592 47.3898C86.0088 46.3691 84.1522 45.5855 82.3267 44.7323C81.9331 44.5467 81.5602 44.356 81.2547 44.0492C81.309 42.6186 80.7938 41.2705 80.6229 39.8709C79.1909 28.189 80.0998 16.8423 85.3847 6.1013C86.0295 4.78929 86.7597 3.52367 87.6996 2.39209C89.9576 -0.327315 92.9405 -0.693339 95.8121 1.40486C97.6066 2.71687 98.7381 4.52895 99.59 6.53177C101.452 10.9137 102.021 15.5561 102.146 20.2448C102.374 28.8463 101.247 37.203 97.0602 44.9127C96.4673 46.0057 95.7966 47.0599 95.1208 48.1038C94.7919 48.6116 94.7893 48.9674 95.2192 49.452C96.7029 51.1171 98.1322 52.8338 99.5797 54.5299C98.9738 56.2724 98.8857 56.2853 97.6454 55.0686C96.8142 54.2541 96.0866 53.2488 94.7583 53.1741H94.7557ZM84.6442 37.118C84.8513 39.1569 85.0792 41.8196 86.4127 44.209C87.5624 46.266 89.5743 46.4155 91.0037 44.6008C92.1068 43.1986 92.8344 41.5876 93.4403 39.9379C94.1705 37.9557 94.6547 35.9323 94.2378 33.7696C93.839 31.6946 92.3501 29.9857 90.4728 29.6609C88.4661 29.3155 86.6794 30.3027 85.6074 32.2875C84.8902 33.6124 84.6209 35.0198 84.6416 37.1205L84.6442 37.118Z" fill="#FCFDFD"/>
<path id="Vector_5" d="M34.5993 47.3976C32.6754 47.4182 30.7644 47.2506 28.9389 48.2533C25.7099 50.0268 24.0683 52.8725 23.149 56.2414C22.9264 57.0611 22.5172 57.587 21.8181 58.0123C17.0044 60.943 14.1561 65.4075 12.0717 70.4597C11.8775 70.9339 11.7817 71.4598 11.269 71.7304C8.70549 71.4624 6.45273 70.4571 4.4615 68.8589C3.853 68.3718 3.23932 67.8021 3.40504 66.9257C3.57076 66.0545 4.37088 65.9127 5.08554 65.7374C5.89602 65.539 6.61069 65.1472 7.28134 64.6729C7.63349 64.4228 7.99082 64.1367 7.96752 63.6495C7.93904 63.0696 7.40304 63.0618 7.01981 62.9355C4.7541 62.1906 2.8302 60.9482 1.2947 59.1181C0.818251 58.551 0.437613 57.9324 0.189032 57.239C-0.339201 55.7723 0.271892 54.9036 1.81516 55.1382C3.74166 55.4321 5.57753 55.3779 7.37714 54.5634C8.57861 54.0169 9.18971 53.3029 9.20783 51.8363C9.29587 44.6704 11.8438 38.5099 17.2582 33.6768C20.5182 30.7667 24.3402 29.6841 28.6592 30.6945C32.0177 31.4807 34.0555 33.7361 35.3502 36.7854C35.6505 37.4943 35.9535 38.2006 36.2539 38.9094C36.3471 39.3734 36.3497 39.8039 36.1089 40.2575C34.9255 42.4897 34.475 44.8844 34.6019 47.395L34.5993 47.3976Z" fill="#FCFDFD"/>
<path id="Vector_6" d="M55.1589 43.7863C54.9647 43.7914 54.7705 43.794 54.5789 43.7991C54.0558 42.8042 53.3101 42.6882 52.3857 43.2424C51.917 43.5233 51.4431 43.7966 50.9719 44.0724C50.5679 43.9641 50.3271 43.6909 50.1847 43.3145C50.7414 42.5645 50.8372 41.6417 51.0495 40.7833C51.7047 38.1541 52.2251 35.5043 51.1505 32.8468C50.2002 30.496 48.2582 29.3077 45.8889 29.6273C43.9469 29.8902 42.2793 31.7358 41.9505 33.9835C39.7417 34.9527 38.3668 36.7983 37.0022 38.6542C35.9561 36.9736 35.7075 35.0403 35.3993 33.1612C34.1254 25.4283 33.9778 17.7032 35.9871 10.0528C36.7225 7.25087 37.7971 4.57529 39.8324 2.42296C41.6242 0.528401 43.7371 -0.610914 46.4249 0.342811C48.1287 0.948555 49.2473 2.28635 50.1433 3.78395C52.6446 7.95456 54.206 12.486 55.1925 17.2212C56.9197 25.5082 57.0258 33.8263 55.5628 42.1623C55.467 42.7088 55.2935 43.2424 55.1537 43.7837L55.1589 43.7863Z" fill="#FCFDFD"/>
<path id="Vector_7" d="M94.1756 93.0448C95.0871 91.2147 95.3564 89.2273 95.491 87.2348C95.7759 83.0359 95.2891 78.8859 94.4501 74.772C97.3062 74.741 100.16 74.7333 102.941 73.9136C103.917 73.6275 104.841 73.13 105.898 73.1481C107.257 78.507 107.747 83.8839 106.24 89.3047C106.139 89.6707 106.149 90.0676 106.107 90.4491C105.711 90.6631 105.489 90.9982 105.315 91.4132C103.816 95.0296 101.296 97.7078 97.7982 99.4837C97.345 99.6178 96.8919 99.7518 96.4387 99.8807C95.3564 100.19 94.2559 100.388 93.1347 100.159C91.6458 99.8524 91.2755 99.0842 91.9669 97.7516C92.2414 97.2232 92.6039 96.7386 92.9094 96.223C93.4998 95.2306 94.1161 94.246 94.173 93.0422L94.1756 93.0448Z" fill="#5C6F89"/>
<path id="Vector_8" d="M50.1847 43.3146C50.3271 43.6909 50.5679 43.9667 50.9719 44.0724C51.4328 45.2632 52.541 45.9437 53.2531 46.9413C53.7658 47.6604 54.206 48.4853 53.4059 49.0936C51.7254 50.3721 49.9102 51.4779 48.1521 52.6559C45.8449 52.3853 43.6155 52.4548 41.7744 54.1432C40.4979 55.3134 40.4254 55.3109 39.7858 53.7256C39.6459 53.3802 39.6175 52.9884 39.5398 52.6198C42.4036 51.2691 43.7139 49.0292 43.4342 45.8767C43.3721 45.1937 43.2892 44.5132 43.2452 43.8275C43.1908 42.9434 42.8205 42.8996 42.1913 43.3816C40.2907 44.8379 38.9831 46.6088 39.053 49.1297C39.0789 50.0293 39.0841 50.9289 39.0996 51.8311C37.9007 51.5785 36.8831 50.7227 35.591 50.782C35.2621 49.653 34.9307 48.524 34.6018 47.3949C34.475 44.8843 34.9229 42.4897 36.1089 40.2575C36.3497 39.8038 36.3471 39.3734 36.2539 38.9094C36.5335 38.9094 36.8391 38.979 37.0074 38.6542C38.3694 36.7957 39.7443 34.9527 41.9557 33.9835C43.253 34.133 43.921 35.0764 44.5891 36.0353C46.3421 38.5485 47.8569 41.2421 50.1873 43.3146H50.1847Z" fill="#5C6F89"/>
<path id="Vector_9" d="M80.3665 142.262C84.4111 142.443 88.4298 142.845 92.3812 143.747C93.1761 143.927 94.3491 143.984 94.3206 145.049C94.2947 145.995 93.1735 146.105 92.4045 146.281C88.914 147.075 85.3562 147.399 81.7958 147.624C73.7092 148.134 65.6044 148.034 57.5126 147.848C51.7616 147.716 45.9847 147.544 40.3166 146.363C39.3792 146.167 37.9784 146.16 37.9603 145.007C37.9421 143.863 39.3611 143.798 40.27 143.595C44.2706 142.693 48.3618 142.543 52.4349 142.272C52.901 143.371 53.3826 144.463 53.8305 145.569C54.1956 146.469 54.8275 146.912 55.814 146.897C57.3625 146.874 58.9109 146.886 60.4568 146.881C61.6116 146.879 62.2875 146.306 62.5542 145.188C62.8079 144.113 63.1161 143.051 63.3983 141.984C63.5045 141.945 63.608 141.906 63.7142 141.868C65.5734 141.896 67.4351 141.924 69.2943 141.955C69.8536 142.889 69.8795 143.976 70.1721 144.987C70.5372 146.252 71.2415 146.964 72.6476 146.904C73.9733 146.85 75.3094 146.814 76.63 146.912C77.8626 147.002 78.5099 146.422 79.0304 145.42C79.5586 144.396 79.6674 143.203 80.3665 142.26V142.262Z" fill="#5C6F89"/>
<path id="Vector_10" d="M51.7151 139.398C50.9175 139.365 49.9802 139.607 49.4804 138.782C48.613 137.357 47.3157 137.192 45.8579 137.334C45.8294 137.04 46.0547 136.764 45.5549 136.519C43.6776 135.599 43.2944 134.501 43.9806 132.447C44.3353 132.601 44.6745 132.833 45.0448 132.9C50.1563 133.841 55.3014 134.679 60.4801 134.955C64.8898 135.189 69.3358 135.223 73.7688 134.808C78.686 134.346 83.6058 133.962 88.4014 132.689C89.0746 134.552 88.7328 135.532 86.9591 136.481C86.5396 136.705 86.3583 136.906 86.4645 137.349C86.1667 137.344 85.8431 137.414 85.5738 137.323C84.6727 137.017 84.1082 137.233 83.6395 138.115C83.1035 139.125 81.9357 139.133 80.975 139.434C79.6622 139.2 78.8466 138.197 77.8652 137.447C77.9558 137.024 78.3572 136.56 77.7849 136.207C77.4302 135.988 76.9719 136.011 76.7466 136.354C76.0215 137.457 77.1712 137.303 77.6399 137.602C76.1976 140.36 73.7533 140.744 71.2079 138.61C70.7677 137.963 70.5657 136.707 69.4031 137.916C67.4119 138.226 65.4051 138.153 63.4009 138.13C63.4579 137.463 63.0747 137.115 62.492 137.259C62.0311 137.372 62.0441 137.813 62.3781 138.169C62.2849 138.316 62.1917 138.46 62.0985 138.607C61.2958 138.708 60.7831 139.362 60.0684 139.654C58.2248 140.401 56.8524 139.95 55.8529 138.195C56.0523 137.777 56.6996 137.388 56.0808 136.89C55.6665 136.558 55.1356 136.385 54.843 137.112C54.0015 138.146 53.0175 138.986 51.7176 139.401L51.7151 139.398ZM84.8332 135.648C84.8384 135.228 84.5976 135.042 84.2092 135.024C83.7949 135.004 83.4479 135.099 83.3987 135.599C83.3495 136.081 83.5877 136.298 84.0564 136.298C84.4966 136.298 84.7711 136.096 84.8358 135.648H84.8332ZM47.9372 136.063C48.2479 136.053 48.5508 136.001 48.556 135.609C48.5612 135.228 48.3126 134.967 47.9579 134.913C47.5643 134.851 47.3028 135.127 47.2717 135.486C47.2354 135.908 47.5695 136.032 47.9372 136.063Z" fill="#9AC5C7"/>
<path id="Vector_11" d="M94.1757 93.0449C94.1161 94.2487 93.4998 95.2333 92.9121 96.2257C92.6065 96.7412 92.244 97.2258 91.9695 97.7542C91.2782 99.0843 91.6484 99.855 93.1373 100.162C94.2585 100.394 95.359 100.195 96.4414 99.8834C96.8945 99.7545 97.3477 99.6179 97.8008 99.4864C97.8396 100.038 97.7568 100.574 97.6895 101.123C97.4694 102.897 96.5346 104.368 95.7526 105.905C91.7909 107.121 87.7048 107.348 83.6007 107.444C80.7135 104.469 80.1646 100.966 81.2236 97.0918C81.2909 96.8469 81.2883 96.584 81.3168 96.3262C82.8005 96.8753 84.305 97.3495 85.6514 96.0633C86.7519 95.0142 86.5241 93.746 86.0813 92.483C86.3532 91.8798 86.9021 91.7767 87.4718 91.7458C89.5873 91.6349 91.6873 91.6246 93.5723 92.8284C93.7458 92.9392 93.9711 92.9727 94.1731 93.0398L94.1757 93.0449ZM88.7224 100.569C88.7458 100.572 88.7716 100.574 88.795 100.579C88.795 100.878 88.782 101.177 88.8001 101.474C88.8131 101.698 88.9192 101.904 89.1626 101.935C89.4578 101.971 89.6883 101.786 89.7245 101.52C89.8592 100.554 89.9628 99.5844 90.0534 98.6126C90.0767 98.3548 89.9938 98.0636 89.6805 98.03C89.3206 97.9888 89.1367 98.2414 89.0772 98.5636C88.9503 99.2312 88.839 99.9014 88.7224 100.572V100.569ZM86.9953 99.5251C86.871 99.0843 87.1921 98.4399 86.6276 98.3832C86.0761 98.3291 85.9777 98.9296 85.9259 99.4168C85.8638 100.005 85.7498 100.59 85.6955 101.177C85.667 101.487 85.7602 101.817 86.1046 101.884C86.48 101.958 86.6199 101.659 86.6768 101.345C86.7908 100.721 86.8943 100.095 86.9927 99.5225L86.9953 99.5251Z" fill="#FBC6C2"/>
<path id="Vector_12" d="M85.061 113.898C88.189 116.857 90.6929 120.262 92.4434 124.193C93.3755 126.286 92.8706 127.165 90.5738 127.616C90.1595 127.467 89.7141 127.307 89.4604 127.83C89.0487 128.676 88.2486 128.987 87.4743 129.346C86.7364 129.103 85.9026 129.119 85.3536 129.547C84.1004 130.526 82.5882 130.413 81.1951 130.748C80.3328 130.954 79.3877 130.825 78.5747 130.387C78.1785 130.173 77.8885 130.114 77.5259 130.395C75.672 131.828 73.8205 131.807 71.9821 130.356C71.8759 130.093 71.7672 129.828 71.661 129.565C72.7615 128.663 73.7998 127.683 75.0531 126.982C76.876 128.24 78.2872 127.91 79.1987 126.01C79.6 126.152 79.9962 126.314 80.4053 126.428C82.0315 126.887 83.0051 126.487 83.3443 125.237C83.3728 125.16 83.5851 125.131 83.409 125C83.3857 125.077 83.3624 125.154 83.3391 125.232C82.2749 125.796 81.1563 125.938 79.991 125.629C79.6 125.526 79.3126 125.569 79.1987 126.008C78.0464 126.58 76.8967 127.188 75.558 126.58C77.5337 124.776 79.7839 123.286 81.6482 121.352C82.2283 120.788 82.7565 120.159 83.3987 119.677C84.3567 118.953 84.147 118.285 83.4919 117.525C82.741 116.653 81.7259 116.004 81.2546 114.895C82.3189 114.921 83.3857 114.934 84.4474 114.981C85.4028 115.022 85.452 114.591 85.061 113.898ZM88.0906 126.454C87.1869 127.016 86.1408 127.01 84.973 127.193C86.3635 127.956 87.4096 127.696 88.0906 126.454ZM90.5868 125.495C91.058 125.453 91.6044 125.577 91.7727 124.969C91.8633 124.642 91.5863 124.451 91.3247 124.564C90.7939 124.796 89.942 124.422 89.74 125.077C89.5821 125.59 90.2709 125.405 90.5842 125.492L90.5868 125.495ZM84.8539 125.25C87.0833 125.157 87.5546 124.874 87.565 123.574C86.9591 124.796 85.6566 124.569 84.8539 125.25ZM76.1432 129.56C75.8998 129.034 75.5321 128.98 75.2395 128.825C74.9314 128.663 74.5896 128.526 74.2918 128.825C74.1882 128.928 74.095 129.152 74.139 129.274C74.2866 129.694 74.688 129.606 75.0168 129.614C75.3535 129.622 75.6927 129.585 76.1432 129.562V129.56Z" fill="#F0E2DC"/>
<path id="Vector_13" d="M89.5355 73.4574C91.3791 71.6686 93.1813 69.8359 94.6288 67.7093C95.3175 66.6963 96.1617 65.7297 96.2886 64.4228C96.5294 64.3197 96.7702 64.2192 97.0136 64.1161C98.8339 64.3945 100.657 64.6548 102.503 64.6625C102.674 64.6651 102.845 64.6703 103.016 64.6729C103.632 64.8584 104.036 64.4898 104.445 64.1316C106.579 64.2527 108.466 63.5052 110.271 62.4819C110.937 62.1055 111.579 61.4792 112.356 62.1468C113.083 62.7706 112.785 63.5799 112.495 64.2862C111.144 67.5675 108.78 69.9751 105.815 71.8541C103.101 73.1687 100.188 73.71 97.2181 73.9034C94.6495 74.0709 92.0756 73.9755 89.5381 73.4574H89.5355Z" fill="#FCFDFD"/>
<path id="Vector_14" d="M41.6217 127.485C40.037 126.077 39.9308 125.559 40.8526 123.592C42.3389 120.417 44.514 117.703 46.6658 114.97C46.8496 114.736 47.0205 114.493 47.1966 114.256C47.3338 114.893 47.7896 114.991 48.3489 114.96C49.4571 114.901 50.5654 114.865 51.6736 114.818C51.2257 115.62 50.5214 116.2 49.8896 116.839C47.9605 118.785 47.9553 118.922 49.9621 120.77C50.3738 121.149 50.7881 121.523 51.2153 121.883C52.9554 123.348 54.698 124.806 56.4407 126.265C54.6229 125.665 52.7353 125.93 50.7285 125.67C51.1765 126.451 51.7513 126.869 52.3857 126.696C53.6286 126.361 54.7369 126.606 55.8632 127.072C56.3397 127.268 56.855 127.351 57.3754 127.201C58.8721 127.722 60.0425 128.704 61.1171 129.823C61.0006 130.078 60.884 130.33 60.7675 130.586C60.3636 130.604 60.058 130.836 59.7188 131.019C58.6235 131.611 57.4635 131.66 56.42 130.998C55.5888 130.47 54.8534 130.258 53.9264 130.717C53.3023 131.026 52.4893 131.111 51.9196 130.82C50.7881 130.243 49.6358 129.972 48.3903 129.802C47.3131 129.655 46.2774 129.188 45.2235 128.864C44.9335 128.454 44.9982 127.65 44.2369 127.76C43.3229 127.892 42.4995 127.51 41.6217 127.479V127.485ZM50.1381 124.819C49.2008 124.685 48.3774 125.299 47.7145 124.776C46.456 123.788 45.1251 123.025 43.5197 122.768C43.0691 122.695 42.7351 121.675 42.3571 122.208C41.9842 122.731 42.8464 123.167 43.2763 123.538C43.675 123.881 44.2085 124.064 44.7212 123.876C45.4565 123.608 45.7595 123.938 46.135 124.523C47.0775 125.987 48.8383 126.155 50.1381 124.822V124.819ZM46.3007 127.333C47.1862 128.129 47.9087 128.137 48.6596 127.964C48.7839 127.936 48.9418 127.748 48.9574 127.616C48.9833 127.423 48.7839 127.34 48.6078 127.338C47.9475 127.327 47.2872 127.333 46.2981 127.333H46.3007Z" fill="#F0E2DC"/>
<path id="Vector_15" d="M39.0581 99.721C40.2674 99.7364 41.3834 100.327 42.6185 100.262C43.4912 100.216 44.2395 100.035 44.7315 99.2699C45.2493 98.4631 44.5994 97.9089 44.2654 97.2928C43.5999 96.071 42.4036 95.107 42.445 93.5475C43.6854 93.0243 44.9645 92.6866 46.3265 92.7639C46.2799 93.014 46.2307 93.264 46.1893 93.5166C45.8371 95.7282 47.2406 97.1588 49.4778 96.8753C50.6171 96.7309 51.5519 96.1226 52.497 95.5452C53.5353 96.7799 54.6695 97.9295 55.1977 99.5276C55.8943 101.631 55.6483 103.631 54.7549 105.601C54.4934 106.181 54.0921 106.699 54.0092 107.353C53.2842 107.423 52.5488 107.098 51.8289 107.4C49.1697 107.07 46.5078 106.763 43.8563 106.394C42.849 106.255 41.8184 106.17 40.8578 105.789C39.6615 103.941 38.7759 102.002 39.0607 99.721H39.0581ZM47.6652 99.7313C47.4555 99.4013 47.8776 98.7337 47.3105 98.6667C46.7305 98.5971 46.9091 99.2802 46.7926 99.6514C46.6217 100.185 46.5389 100.729 46.5855 101.291C46.6062 101.543 46.5984 101.853 46.9195 101.902C47.2639 101.956 47.3079 101.654 47.3571 101.402C47.4607 100.86 47.5617 100.316 47.6704 99.7313H47.6652ZM50.7492 99.6256C50.6352 99.2415 50.9227 98.6744 50.3556 98.6487C49.9491 98.6306 49.9905 99.1384 49.9232 99.4632C49.7911 100.087 49.615 100.706 49.6927 101.355C49.7186 101.561 49.7134 101.817 49.9879 101.848C50.2442 101.876 50.3634 101.665 50.4074 101.456C50.5368 100.832 50.643 100.203 50.7492 99.6256Z" fill="#FBC6C2"/>
<path id="Vector_16" d="M89.5355 73.4574C92.0731 73.9755 94.6469 74.0709 97.2156 73.9033C100.188 73.71 103.099 73.1687 105.812 71.8541C105.841 72.2846 105.869 72.7176 105.898 73.1481C104.841 73.1274 103.914 73.6249 102.941 73.9136C100.162 74.7307 97.3062 74.741 94.4501 74.772C82.337 74.4163 71.7076 69.975 61.9742 63.0747C61.6971 62.8788 61.4692 62.6004 61.0886 62.5927C61.0549 62.5823 61.0213 62.572 60.9876 62.5617C61.0109 62.5823 61.0342 62.6004 61.0601 62.621C61.6764 65.459 62.7018 68.2016 62.9892 71.1117C63.0643 71.8747 63.1135 72.6454 63.1161 73.411C63.1161 74.0734 62.9581 74.705 62.259 75.0065C61.5935 75.2952 61.0653 74.8931 60.6147 74.5297C59.0559 73.2666 58.028 71.5809 56.9767 69.908C55.4334 67.4541 54.5996 64.696 53.4784 62.0617C53.5147 60.2058 52.6654 59.216 50.4126 58.4942C50.5006 57.6513 51.0781 57.4657 51.7876 57.5199C52.989 57.6101 54.1905 57.7338 55.3894 57.8447C55.379 57.8859 55.379 57.9555 55.3557 57.9658C53.4163 58.7855 53.9005 60.198 54.4054 61.6544C55.8451 65.8121 57.4868 69.8564 60.6096 73.1042C60.941 73.4471 61.2543 74.0863 61.8499 73.7899C62.3419 73.545 62.1166 72.9341 62.1114 72.4856C62.0751 69.7121 61.3657 67.0649 60.5422 64.4382C60.3377 63.7835 60.1487 63.1236 59.9544 62.4664C59.8198 62.005 59.6644 61.5126 60.1901 61.2007C60.6743 60.9146 61.1223 61.1853 61.5055 61.4585C62.5542 62.2086 63.5511 63.0283 64.6179 63.7526C71.8785 68.6785 79.8409 71.8953 88.5049 73.3775C88.8415 73.4342 89.1911 73.4316 89.5355 73.4548V73.4574Z" fill="#5C6F89"/>
<path id="Vector_17" d="M51.715 139.398C53.0149 138.983 53.9989 138.143 54.8404 137.109C54.9207 137.708 55.3479 137.983 55.8503 138.192C56.8472 139.947 58.2195 140.401 60.0658 139.651C60.7804 139.362 61.2931 138.705 62.0958 138.607C62.0648 139.806 62.8209 139.785 63.6702 139.62C63.6728 139.806 63.6779 139.994 63.6805 140.179C63.6054 140.618 63.5278 141.053 63.4527 141.491L63.3983 141.989C63.1135 143.056 62.8079 144.118 62.5542 145.193C62.2875 146.312 61.6142 146.884 60.4568 146.886C58.9083 146.892 57.3599 146.879 55.814 146.902C54.8275 146.917 54.1956 146.474 53.8305 145.574C53.3826 144.469 52.901 143.376 52.4349 142.278C52.1941 141.319 51.9532 140.362 51.715 139.404V139.398Z" fill="#463231"/>
<path id="Vector_18" d="M77.8626 137.447C78.8439 138.197 79.6622 139.197 80.9724 139.435C81.0242 140.432 80.4882 141.303 80.3691 142.265C79.6674 143.208 79.5612 144.402 79.0304 145.425C78.5099 146.43 77.8626 147.01 76.63 146.917C75.3094 146.819 73.9733 146.856 72.6476 146.91C71.2415 146.966 70.5372 146.255 70.1721 144.992C69.8795 143.981 69.8536 142.894 69.2943 141.961C69.2891 141.631 69.2814 141.298 69.2762 140.968C69.3073 140.579 69.3357 140.192 69.3668 139.803C70.1773 139.829 70.9334 139.79 70.7444 138.641C70.8971 138.633 71.0525 138.623 71.2053 138.615C73.7532 140.749 76.195 140.365 77.6373 137.607C77.7124 137.555 77.7875 137.504 77.86 137.452L77.8626 137.447Z" fill="#463231"/>
<path id="Vector_19" d="M95.7526 105.905C96.5346 104.366 97.4693 102.897 97.6894 101.123C97.7567 100.574 97.8396 100.038 97.8008 99.4864C101.299 97.713 103.818 95.0322 105.318 91.4158C105.489 91.0008 105.711 90.6657 106.11 90.4518C108.05 94.9343 106.612 100.033 102.547 102.984C100.509 104.464 98.2306 105.423 95.7526 105.905Z" fill="#FCFDFD"/>
<path id="Vector_20" d="M39.0581 99.721C38.7759 102.002 39.6589 103.943 40.8552 105.789C38.1001 105.144 35.4978 104.155 33.2424 102.404C29.6561 99.623 28.4132 94.6534 30.2905 90.7122C30.9741 91.1813 31.1062 91.9984 31.5023 92.648C33.1984 95.4266 35.1585 97.9295 38.302 99.2287C38.5739 99.3421 38.807 99.5534 39.0556 99.7184L39.0581 99.721Z" fill="#FCFDFD"/>
<path id="Vector_21" d="M8.94368 86.7374C9.34244 89.6966 9.29842 92.7279 10.5931 95.5323C11.0463 96.517 11.6962 97.3676 12.183 98.3213C11.2767 99.3807 11.2249 100.747 10.8728 102.002C10.7588 102.412 10.72 102.842 10.6604 103.265C10.5672 103.907 10.518 104.59 9.73603 104.796C8.85564 105.028 8.3533 104.423 7.939 103.827C5.29784 100.005 5.08551 95.852 6.41386 91.5525C6.95245 89.81 7.53506 88.0469 8.94368 86.7349V86.7374Z" fill="#5C6F89"/>
<path id="Vector_22" d="M87.4718 129.348C88.246 128.987 89.0461 128.678 89.4578 127.833C89.7116 127.309 90.1569 127.469 90.5712 127.619C91.708 129.98 93.2979 132.065 94.6832 134.274C95.3823 135.388 95.157 135.89 94.0462 136.411C92.4537 137.158 90.926 138.045 89.3594 138.844C87.7385 139.672 87.6401 139.623 86.871 137.991C86.7649 137.764 86.5991 137.563 86.4619 137.349C86.3532 136.903 86.537 136.705 86.9565 136.481C88.7302 135.532 89.0746 134.552 88.3988 132.689C88.2538 132.186 88.1087 131.681 87.9637 131.178L87.4718 129.348Z" fill="#5C6F89"/>
<path id="Vector_23" d="M43.978 132.447C43.2918 134.501 43.675 135.599 45.5523 136.519C46.0521 136.764 45.8294 137.04 45.8553 137.334C44.9179 138.794 43.6155 139.106 41.9479 138.269C40.9096 137.749 39.8661 137.236 38.8407 136.695C36.9452 135.694 36.8779 135.45 37.9939 133.686C39.1851 131.802 40.3865 129.923 41.5828 128.041C42.818 128.132 44.0764 128.152 44.9697 129.217C44.9568 129.279 44.9205 129.31 44.8584 129.312C44.7315 129.392 44.6409 129.482 44.7937 129.621C44.6331 130.142 44.4726 130.663 44.312 131.184C44.2007 131.604 44.0919 132.026 43.9806 132.447H43.978Z" fill="#5C6F89"/>
<path id="Vector_24" d="M104.445 64.1289C104.039 64.4898 103.632 64.8558 103.016 64.6702C102.92 64.1985 102.581 64.1495 102.185 64.1959C102.397 63.2293 102.071 62.5024 101.343 61.8168C99.9577 60.5125 98.4921 59.3036 97.3813 57.6977C96.4465 56.3445 95.012 55.4036 93.7251 54.3623C93.6837 53.6354 94.2948 53.4678 94.7582 53.1714C96.0892 53.2461 96.8142 54.2514 97.6454 55.0659C98.8831 56.28 98.9738 56.2697 99.5797 54.5272C101.765 54.1432 102.27 54.8958 101.439 57.3085C100.6 57.8034 100.621 58.3344 101.307 58.9762C101.827 59.4634 102.28 60.0202 102.762 60.5486L102.757 60.5434C102.837 60.6156 102.92 60.6878 103 60.7599C103.692 61.7936 104.81 62.6442 104.443 64.1289H104.445Z" fill="#4B3837"/>
<path id="Vector_25" d="M78.9527 107.66C79.7865 107.474 80.628 107.456 81.4722 107.575C81.7518 108.621 82.64 109.212 83.2925 109.977C83.8751 110.66 84.5173 111.31 84.3024 112.328C83.7638 112.64 83.2252 112.952 82.6866 113.261C82.0108 112.813 81.5033 112.199 80.9957 111.583C80.5737 110.323 79.4421 109.521 78.8958 108.341C78.9139 108.114 78.9346 107.887 78.9527 107.66Z" fill="#3C4856"/>
<path id="Vector_26" d="M51.829 107.4C52.5488 107.098 53.2842 107.423 54.0093 107.353L54.1102 107.413C54.1102 107.877 53.7736 108.173 53.5483 108.521C52.7249 109.799 51.886 111.068 51.0548 112.341C50.8865 112.506 50.7182 112.668 50.5498 112.833C50.1148 112.217 49.3484 112.161 48.7684 111.789C48.4861 110.887 49.1671 110.39 49.6358 109.83C50.3375 108.995 51.0936 108.209 51.829 107.402V107.4Z" fill="#3C4856"/>
<path id="Vector_27" d="M118.052 88.6035C116.32 88.3329 114.704 88.0828 113.091 87.8199C112.672 87.7503 112.33 87.5312 112.405 87.0518C112.49 86.5079 112.936 86.5852 113.322 86.6445C114.896 86.8843 116.468 87.124 118.039 87.3791C118.505 87.4565 119.08 87.5467 118.99 88.1834C118.904 88.7865 118.335 88.5778 118.052 88.601V88.6035Z" fill="#47677E"/>
<path id="Vector_28" d="M48.7709 111.787C49.3509 112.158 50.1174 112.215 50.5524 112.831C50.5343 113.292 49.9258 113.553 50.1329 114.171H52.0154C51.9015 114.388 51.7901 114.604 51.6762 114.821C50.5679 114.867 49.4597 114.906 48.3514 114.963C47.7921 114.991 47.3338 114.895 47.1992 114.259C48.3851 113.852 48.222 112.594 48.7735 111.787H48.7709Z" fill="#5C6F89"/>
<path id="Vector_29" d="M112.234 80.6542C111.853 80.6207 111.416 80.7341 111.385 80.2289C111.356 79.7855 111.745 79.685 112.086 79.6205C113.821 79.2958 115.559 78.9787 117.296 78.6694C117.713 78.5946 118.112 78.6694 118.179 79.172C118.239 79.6051 117.905 79.7726 117.54 79.8293C115.756 80.1129 113.966 80.3835 112.231 80.6516L112.234 80.6542Z" fill="#47677E"/>
<path id="Vector_30" d="M82.6866 113.261C83.2252 112.949 83.7638 112.637 84.3024 112.328C84.3075 112.97 84.5561 113.496 85.0611 113.898C85.4521 114.594 85.4054 115.024 84.4474 114.981C83.3831 114.934 82.3189 114.921 81.2547 114.895C81.1692 114.599 81.0864 114.305 81.0009 114.009C81.4256 114.035 81.8528 114.058 82.2775 114.091C83.1216 114.158 82.9688 113.743 82.6866 113.261Z" fill="#5C6F89"/>
<path id="Vector_31" d="M102.762 60.5512C102.28 60.0254 101.827 59.4661 101.307 58.9789C100.618 58.3371 100.597 57.8061 101.439 57.3112C101.724 58.453 102.617 59.3526 102.762 60.5512Z" fill="#BCD4D1"/>
<path id="Vector_32" d="M115.81 91.9855C115.693 92.4494 115.364 92.55 115.015 92.4546C114.476 92.3077 113.904 92.1092 113.953 91.3978C113.979 91.0369 114.305 90.9106 114.627 91.0085C115.155 91.1684 115.665 91.39 115.81 91.9855Z" fill="#47677E"/>
<path id="Vector_33" d="M44.9697 129.217C44.0764 128.152 42.818 128.132 41.5828 128.041C41.5958 127.856 41.6087 127.67 41.6217 127.485C42.4995 127.513 43.3229 127.897 44.2369 127.766C44.9982 127.655 44.9335 128.459 45.2235 128.869C45.138 128.985 45.0526 129.101 44.9671 129.217H44.9697Z" fill="#47677E"/>
<path id="Vector_34" d="M115.471 83.2112C115.888 83.2937 116.535 83.1106 116.538 83.7783C116.538 84.366 115.95 84.2783 115.554 84.2551C115.131 84.2293 114.484 84.3866 114.484 83.7061C114.484 83.0978 115.072 83.2653 115.473 83.2112H115.471Z" fill="#47677E"/>
<path id="Vector_35" d="M115.134 76.8264C115.01 77.3497 114.588 77.5043 114.103 77.5404C113.801 77.5636 113.428 77.5121 113.466 77.1254C113.529 76.5274 114 76.3109 114.549 76.2877C114.878 76.2722 115.119 76.4217 115.134 76.8264Z" fill="#406F88"/>
<path id="Vector_36" d="M40.8422 79.7906C39.9851 79.77 38.9934 79.4736 38.3124 79.8061C37.6159 80.1463 38.0664 81.2831 37.7634 82.0383C37.1938 83.4715 36.0959 84.2757 34.7391 84.8325C34.1849 85.0593 33.8302 84.7397 33.5531 84.3272C32.7711 83.1622 32.1911 81.9275 32.5096 80.4763C32.6572 79.8061 32.4604 79.5509 31.7639 79.5045C30.3319 79.4091 29.6328 78.3549 29.0062 77.2542C28.7395 76.7877 28.8871 76.3417 29.1615 75.9267C29.7157 75.0864 30.407 74.2642 31.3573 74.0244C32.5225 73.7332 32.7297 73.0991 32.5925 72.1067C32.564 71.8953 32.5873 71.6788 32.5873 71.4649C33.2036 71.4236 33.5764 71.1143 33.6671 70.4931C33.7188 70.4802 33.7577 70.4518 33.7836 70.4029C33.9156 70.2946 34.0503 70.1863 34.1823 70.0755C34.9799 70.0265 34.9773 70.6709 35.1456 71.171C35.6868 72.7846 36.5594 73.5012 38.0172 73.5373C38.1752 74.1276 38.4885 74.5142 39.1721 74.4601C40.125 74.3853 41.0053 74.6998 41.8883 74.9833C42.0644 75.223 42.2327 75.4653 42.414 75.7025C43.9054 77.646 43.6802 78.507 41.4093 79.5225C41.2177 79.6076 41.0261 79.7004 40.8344 79.7906H40.8422ZM36.4843 80.0999C36.4403 79.7184 36.4403 79.3241 36.3419 78.9555C36.2331 78.5585 36.1969 78.0352 35.679 77.9399C35.0964 77.8342 34.853 78.3239 34.6407 78.7364C34.0917 79.8138 34.0451 80.9815 34.2393 82.1337C34.3714 82.9199 34.8323 83.1261 35.5081 82.5152C36.2383 81.8579 36.5646 81.0717 36.4817 80.0974L36.4843 80.0999ZM32.3361 75.5169C31.5023 75.5556 30.5106 75.6484 30.4485 76.6175C30.4044 77.2929 31.2771 77.7079 31.971 77.6898C32.7426 77.6692 33.6256 77.3908 33.7007 76.4861C33.7654 75.7051 33.0767 75.4628 32.3387 75.5169H32.3361Z" fill="#D47E92"/>
<path id="Vector_37" d="M57.9658 107.531C64.4574 107.578 70.9489 107.626 77.4379 107.673C77.425 107.781 77.4094 107.892 77.3965 108C76.5239 108.168 75.4726 107.407 74.7812 108.503H69.3021C71.138 108.663 72.9428 109.142 74.7864 108.982C74.7294 109.513 74.9366 110.088 74.5119 110.555C74.2142 110.524 73.919 110.495 73.6212 110.464C72.3084 110.325 70.9981 110.173 69.6827 110.052C69.3953 110.026 68.9862 110.029 68.9914 110.421C68.9966 110.812 69.4031 110.769 69.6957 110.784C69.9935 110.8 70.3042 110.743 70.5916 110.805C71.8242 111.07 73.168 110.769 74.2996 111.534C74.2918 111.807 74.2866 112.083 74.2789 112.356C72.7408 112.163 73.5331 113.627 72.992 114.145C72.5285 113.707 72.0184 113.339 71.4306 113.078C70.6227 111.931 69.4186 112.086 68.2508 112.114C68.1006 112.037 67.9479 111.959 67.7977 111.882C67.9686 111.137 68.1705 110.395 68.3052 109.642C68.445 108.864 68.1628 108.444 67.2746 108.462C63.9913 108.529 64.4859 108.109 64.4548 111.099C64.4522 111.354 64.46 111.612 64.4626 111.867L64.4807 111.851C63.924 111.813 63.3906 111.921 62.8468 112.042C62.1347 112.202 61.2362 111.98 61.0523 113.052C60.5811 113.359 60.1098 113.668 59.6411 113.975C59.0456 113.519 58.9472 112.655 58.2455 112.289C58.1315 110.704 57.8752 109.129 57.9736 107.531H57.9658Z" fill="#5C3E4D"/>
<path id="Vector_38" d="M52.4996 95.5426C51.5545 96.1226 50.6223 96.7283 49.4804 96.8727C47.2432 97.1562 45.8397 95.7256 46.1919 93.514C46.2307 93.2614 46.2825 93.0114 46.3291 92.7613C47.3623 91.2225 48.6932 90.078 50.5472 89.6398C51.8445 89.3331 53.0434 89.4723 53.9005 90.6038C54.6307 91.5679 54.5193 92.9856 53.6648 94.1868C53.3204 94.6688 52.8906 95.0915 52.5022 95.54L52.4996 95.5426Z" fill="#5C3E4D"/>
<path id="Vector_39" d="M86.0839 92.4856C86.5241 93.7486 86.7519 95.0168 85.654 96.0659C84.3076 97.3521 82.8031 96.8778 81.3194 96.3288C80.3976 95.7076 79.4473 95.1173 78.8025 94.1765C78.0672 93.1016 77.8522 91.952 78.5488 90.8075C79.2583 89.6424 80.3872 89.3847 81.6871 89.5909C83.6032 89.8925 84.9212 91.0704 86.0865 92.4881L86.0839 92.4856Z" fill="#5C3E4D"/>
<path id="Vector_40" d="M57.9658 107.531C57.8674 109.127 58.1237 110.704 58.2377 112.289C57.7224 112.318 57.1864 112.261 56.697 112.387C55.2987 112.746 53.771 112.207 52.4478 113.016C52.1966 112.967 51.9429 112.918 51.6917 112.872C52.686 110.918 54.263 109.361 55.3842 107.492C56.2464 107.505 57.1061 107.518 57.9684 107.531H57.9658Z" fill="#3C4856"/>
<path id="Vector_41" d="M38.0224 73.5373C40.1716 72.0319 40.9821 69.7765 41.3938 66.9978C42.1162 68.016 42.8076 68.583 43.4886 69.1579C42.6652 71.0215 42.5719 73.081 41.8935 74.9833C41.008 74.6998 40.1302 74.3853 39.1773 74.46C38.4937 74.5142 38.1804 74.1275 38.0224 73.5373Z" fill="#3C4856"/>
<path id="Vector_42" d="M70.1825 94.161C70.2291 95.7282 68.7946 96.6149 67.4714 95.8416C66.8966 95.5065 66.5936 95.571 66.0654 95.8571C64.8095 96.535 63.3854 95.7591 63.2585 94.4162C63.2274 94.094 63.2559 93.7692 63.5796 93.6506C64.0249 93.4883 64.0275 93.8878 64.1156 94.161C64.5376 95.4859 65.1617 95.6663 66.1793 94.6714C66.6091 94.2512 66.8008 94.1765 67.2901 94.625C68.3621 95.6122 68.981 95.3905 69.3591 93.9832C69.4316 93.7125 69.473 93.4573 69.8251 93.5398C70.2213 93.63 70.1462 93.9857 70.1825 94.1584V94.161Z" fill="#5C3E4D"/>
<path id="Vector_43" d="M55.3842 107.493C54.263 109.361 52.686 110.918 51.6943 112.872C51.4872 112.692 51.3888 112.38 51.0573 112.341C51.8885 111.068 52.7275 109.8 53.5509 108.521C53.7762 108.173 54.1128 107.877 54.1128 107.413C54.5426 107.333 54.9673 107.358 55.3842 107.493Z" fill="white"/>
<path id="Vector_44" d="M77.399 107.998C77.412 107.889 77.4275 107.779 77.4405 107.67C77.7253 107.539 78.0101 107.513 78.2872 107.691C78.4892 107.908 78.6937 108.124 78.8957 108.338C79.4395 109.519 80.5736 110.323 80.9957 111.581C81.019 112.204 81.2857 112.985 80.1593 112.869C80.1205 112.821 80.0842 112.769 80.0506 112.717C80.4467 112.692 80.9594 112.702 80.4726 112.114C79.5042 110.947 78.8077 109.568 77.6942 108.513C77.601 108.377 77.5052 108.243 77.412 108.106L77.399 107.995V107.998Z" fill="white"/>
<path id="Vector_45" d="M81.2236 77.86C81.1925 78.0611 81.0863 78.239 80.9025 78.1822C80.1671 77.958 79.4887 77.6177 79.0226 76.9811C78.888 76.7955 78.9423 76.5016 79.165 76.4527C79.6674 76.3444 80.0351 76.713 80.4183 76.9527C80.7704 77.1718 81.1407 77.409 81.221 77.86H81.2236Z" fill="#BCD4D1"/>
<path id="Vector_46" d="M52.2277 78.2879C51.8186 78.2879 51.5545 78.1642 51.6606 77.9477C52.0102 77.2388 52.6239 76.7929 53.3929 76.5996C53.626 76.5403 53.8383 76.7336 53.7761 76.9656C53.5431 77.8213 52.6731 77.8987 52.2277 78.2853V78.2879Z" fill="#BCD4D1"/>
<path id="Vector_47" d="M78.8957 108.341C78.6938 108.124 78.4892 107.907 78.2872 107.694C78.5099 107.683 78.7326 107.673 78.9527 107.66C78.9346 107.887 78.9139 108.114 78.8957 108.341Z" fill="#5C3E4D"/>
<path id="Vector_48" d="M50.4126 58.4969C50.0656 58.4866 49.7161 58.4634 49.4312 58.7211C48.9108 58.7185 48.3877 58.7134 47.8672 58.7108C47.8621 58.3706 47.8569 58.0303 47.8491 57.6901C48.2039 57.2673 48.5897 56.8652 48.9108 56.4167C50.0087 54.8727 49.7834 53.9551 48.1236 53.0709C48.134 52.9343 48.1417 52.7951 48.1521 52.6585C49.9103 51.4831 51.7228 50.3747 53.4059 49.0962C54.206 48.4879 53.7684 47.6631 53.2532 46.9439C52.5411 45.9464 51.4328 45.2659 50.9719 44.075C51.4432 43.7992 51.917 43.526 52.3857 43.245C53.3075 42.6908 54.0559 42.8068 54.5789 43.8018C55.3972 45.6731 56.2413 47.5368 57.0285 49.421C57.8364 51.3542 58.4966 53.3364 58.8462 55.4089C59.1673 57.2983 58.709 57.8447 56.8032 57.855C56.3319 57.8576 55.8607 57.8499 55.3894 57.8473C54.1879 57.7365 52.989 57.6127 51.7876 57.5225C51.0807 57.4684 50.5006 57.654 50.4126 58.4969Z" fill="#4B3837"/>
<path id="Vector_49" d="M93.7225 54.3649C95.0094 55.4062 96.4439 56.3471 97.3787 57.7003C98.4895 59.3062 99.9577 60.5125 101.34 61.8194C102.068 62.505 102.394 63.2345 102.182 64.2011C101.954 64.013 101.724 63.8248 101.496 63.6366C101.364 63.4227 101.247 63.1984 101.1 62.9974C99.357 60.6337 98.9608 60.6775 97.5936 63.3892L97.011 64.1161C96.7702 64.2192 96.5294 64.3197 96.286 64.4228C95.6982 64.1728 95.0638 63.9923 94.7116 63.3866C94.6805 63.1237 94.6521 62.8582 94.621 62.5953C95.3512 61.4869 96.0503 60.3579 96.8271 59.2856C97.1819 58.7958 97.143 58.4813 96.721 58.0973C95.9027 57.3523 95.1026 56.5842 94.3025 55.8212C93.8882 55.4269 93.5153 55.0093 93.7199 54.3674L93.7225 54.3649Z" fill="#463231"/>
<path id="Vector_50" d="M94.6236 62.5927C94.6547 62.8556 94.6832 63.1211 94.7142 63.384C92.5676 63.2423 90.6722 62.2885 88.725 61.5127C88.4298 61.3967 88.0103 61.1441 88.2175 60.7574C88.4169 60.3837 88.8312 60.6079 89.1445 60.7213C90.9596 61.3761 92.7411 62.1339 94.6236 62.5927Z" fill="#BCD4D1"/>
<path id="Vector_51" d="M33.8975 54.3804C34.2497 55.5635 34.4517 56.7905 35.3269 57.7828C35.8965 58.4273 35.5677 58.7855 34.765 58.7443C33.6075 58.685 32.5407 58.9737 31.5645 59.5743C29.5293 60.8219 29.506 62.8067 31.5205 64.0774C32.4086 64.6368 33.3848 64.9255 34.4594 64.9177C35.042 64.9126 35.6505 64.776 36.3704 65.1162C35.0783 66.5597 35.3735 68.6166 34.1927 70.0833C34.0607 70.1916 33.926 70.2998 33.7966 70.4081C33.7577 70.4364 33.7189 70.4674 33.68 70.4983C33.5894 71.1195 33.2165 71.4288 32.6003 71.4701C29.5008 68.6244 26.3625 65.8173 23.3122 62.9175C21.4271 61.1235 21.5177 60.1517 23.5271 58.5252C26.5489 56.0765 30.0031 54.6665 33.9053 54.3855L33.8975 54.3804Z" fill="#406F88"/>
<path id="Vector_52" d="M17.8848 71.635C14.8268 71.6376 13.6616 69.7482 14.6662 67.6088C15.1505 66.5777 15.7823 65.6859 16.6575 64.9693C17.9185 63.9382 19.1692 63.9021 20.4276 64.843C21.5333 65.6678 21.844 67.0185 21.1319 68.413C20.3007 70.0395 19.2935 71.5139 17.8848 71.6376V71.635Z" fill="#FCFDFD"/>
<path id="Vector_53" d="M21.2044 71.1762C21.1837 70.0394 22.2453 68.8408 23.2837 68.828C24.3324 68.8151 25.0522 69.444 25.0885 70.4055C25.1325 71.6402 24.12 72.8388 22.9807 72.898C21.945 72.9522 21.2225 72.2511 21.2044 71.1736V71.1762Z" fill="#FCFDFD"/>
<path id="Vector_54" d="M84.6442 37.1205C84.6235 35.0197 84.8927 33.6123 85.61 32.2874C86.6846 30.3026 88.4687 29.3154 90.4754 29.6608C92.3527 29.983 93.8416 31.6945 94.2404 33.7695C94.6573 35.9322 94.1705 37.9556 93.4429 39.9378C92.8344 41.5875 92.1093 43.2011 91.0063 44.6008C89.5769 46.418 87.565 46.2659 86.4153 44.209C85.0792 41.8195 84.8539 39.1568 84.6468 37.1179L84.6442 37.1205Z" fill="#FABDB9"/>
<path id="Vector_55" d="M50.1847 43.3145C47.8543 41.2421 46.3395 38.5485 44.5865 36.0353C43.9184 35.0764 43.2503 34.1356 41.9531 33.9835C42.2819 31.7358 43.9495 29.8902 45.8915 29.6273C48.2582 29.3077 50.2002 30.4959 51.1531 32.8467C52.2277 35.5043 51.7072 38.1541 51.0521 40.7833C50.8372 41.6416 50.744 42.5618 50.1873 43.3145H50.1847Z" fill="#FABDB9"/>
<path id="Vector_56" d="M39.5346 52.6224C39.3896 52.3595 39.242 52.0965 39.097 51.8336C39.0815 50.934 39.0763 50.0344 39.0504 49.1348C38.9805 46.6139 40.2778 44.8431 42.1629 43.3867C42.7895 42.9047 43.1546 42.9485 43.209 43.8327C43.2504 44.5157 43.3358 45.1988 43.3954 45.8819C43.6751 49.0317 42.3726 51.2717 39.5346 52.625V52.6224Z" fill="#3C4856"/>
<path id="Vector_57" d="M69.2762 140.963C69.2814 141.296 69.2891 141.626 69.2943 141.955C67.4352 141.927 65.5734 141.899 63.7142 141.868C63.6262 141.742 63.5407 141.613 63.4527 141.486C63.5278 141.048 63.6055 140.613 63.6806 140.174C65.5242 140.587 67.3989 140.785 69.2762 140.96V140.963Z" fill="#9AC5C7"/>
<path id="Vector_58" d="M63.4527 141.489C63.5407 141.615 63.6262 141.744 63.7142 141.87C63.6081 141.909 63.5045 141.948 63.3983 141.986C63.4164 141.821 63.4346 141.654 63.4527 141.489Z" fill="#69A0B0"/>
<path id="Vector_59" d="M43.978 132.447C44.0893 132.026 44.1981 131.604 44.3094 131.183C45.9744 131.601 47.6678 131.856 49.3587 132.148C52.0749 132.619 54.8119 132.918 57.5463 133.194C61.8835 133.63 66.2466 133.596 70.5942 133.436C73.2897 133.338 75.9982 133.168 78.686 132.784C81.7958 132.341 84.8772 131.743 87.9637 131.178C88.1087 131.681 88.2537 132.186 88.3987 132.689C83.6032 133.962 78.686 134.349 73.7662 134.808C69.3331 135.223 64.8872 135.189 60.4775 134.955C55.3013 134.679 50.1536 133.841 45.0422 132.9C44.6719 132.833 44.3301 132.601 43.978 132.447Z" fill="#BCD4D1"/>
<path id="Vector_60" d="M69.2762 140.963C67.3989 140.788 65.5242 140.592 63.6806 140.177C63.678 139.991 63.6728 139.803 63.6702 139.618C63.722 139.097 63.7712 138.574 63.3983 138.13C65.4025 138.153 67.4093 138.226 69.4005 137.916C69.429 137.968 69.4186 138.014 69.3772 138.053C69.0069 138.633 68.8412 139.213 69.3642 139.798C69.3332 140.187 69.3047 140.574 69.2736 140.963H69.2762Z" fill="#69A0B0"/>
<path id="Vector_61" d="M63.3983 138.13C63.7712 138.576 63.722 139.097 63.6702 139.618C62.8183 139.783 62.0622 139.803 62.0959 138.605C62.1891 138.458 62.2823 138.313 62.3755 138.166C62.7173 138.153 63.0565 138.141 63.3983 138.128V138.13Z" fill="#F0E2DC"/>
<path id="Vector_62" d="M77.8626 137.447C77.7875 137.499 77.7124 137.55 77.6399 137.602C77.1686 137.303 76.019 137.457 76.7466 136.354C76.9719 136.011 77.4302 135.988 77.7849 136.207C78.3572 136.56 77.9558 137.024 77.8652 137.447H77.8626Z" fill="#E2F0EE"/>
<path id="Vector_63" d="M55.8503 138.192C55.3505 137.983 54.9207 137.708 54.8404 137.11C55.133 136.383 55.6638 136.555 56.0781 136.888C56.6944 137.385 56.0496 137.775 55.8503 138.192Z" fill="#F0E2DC"/>
<path id="Vector_64" d="M84.8357 135.648C84.771 136.094 84.4965 136.298 84.0563 136.298C83.5876 136.298 83.352 136.078 83.3986 135.599C83.4478 135.099 83.7974 135.004 84.2091 135.024C84.6001 135.042 84.8409 135.228 84.8357 135.651V135.648Z" fill="#E2F0EE"/>
<path id="Vector_65" d="M47.9371 136.063C47.5695 136.035 47.2354 135.908 47.2743 135.486C47.3053 135.127 47.5669 134.852 47.9604 134.913C48.3126 134.968 48.5612 135.228 48.5586 135.609C48.5534 135.999 48.2505 136.053 47.9397 136.063H47.9371Z" fill="#E2F0EE"/>
<path id="Vector_66" d="M69.3772 138.053C69.4212 138.014 69.429 137.968 69.4005 137.916C70.5605 136.707 70.7651 137.965 71.2053 138.61C71.0499 138.617 70.8972 138.628 70.7444 138.635C70.3819 138.226 69.9624 137.95 69.3798 138.053H69.3772Z" fill="#5C3E4D"/>
<path id="Vector_67" d="M63.3957 138.13C63.0539 138.143 62.7147 138.156 62.3729 138.169C62.0389 137.813 62.0259 137.372 62.4868 137.259C63.0694 137.117 63.4527 137.463 63.3957 138.13Z" fill="#69A0B0"/>
<path id="Vector_68" d="M88.725 100.569C88.8415 99.8987 88.9528 99.2286 89.0797 98.5609C89.1419 98.2387 89.3257 97.9861 89.683 98.0274C89.9964 98.0635 90.0792 98.3522 90.0559 98.6099C89.9653 99.5817 89.8617 100.553 89.7271 101.517C89.6908 101.786 89.4578 101.969 89.1652 101.932C88.9244 101.902 88.8156 101.695 88.8027 101.471C88.7845 101.175 88.7975 100.876 88.7975 100.577C88.7742 100.574 88.7483 100.571 88.725 100.566V100.569Z" fill="#FABDB9"/>
<path id="Vector_69" d="M86.9953 99.525C86.8969 100.095 86.7933 100.721 86.6794 101.347C86.6224 101.662 86.48 101.961 86.1071 101.886C85.7627 101.817 85.6669 101.487 85.698 101.18C85.755 100.59 85.8663 100.007 85.9285 99.4193C85.9803 98.9321 86.0812 98.3341 86.6302 98.3857C87.1947 98.4398 86.8736 99.0868 86.9979 99.5276L86.9953 99.525Z" fill="#FABDB9"/>
<path id="Vector_70" d="M80.0506 112.723C80.0869 112.774 80.1231 112.823 80.1594 112.875C79.7192 113.785 80.5089 113.787 81.0035 114.011C81.089 114.308 81.1718 114.602 81.2573 114.898C81.7285 116.004 82.7436 116.656 83.4945 117.527C84.1496 118.288 84.3568 118.955 83.4013 119.68C82.7617 120.164 82.2309 120.793 81.6508 121.355C80.9776 120.613 79.9263 120.133 79.9289 118.917C80.149 118.476 80.7213 118.298 80.7989 117.752C80.8145 117.721 80.8507 117.679 80.843 117.661C80.8145 117.605 80.7679 117.558 80.729 117.509C80.1516 117.092 79.8668 117.594 79.5509 117.906C78.1138 119.329 76.6818 120.76 75.2603 122.198C72.6346 124.858 69.7993 127.309 67.3316 130.124C66.8966 130.214 66.4642 130.307 66.0291 130.397C65.5786 130.145 65.2394 129.779 64.9494 129.361C64.8639 129.281 64.7811 129.201 64.6956 129.119C64.6076 129.039 64.5169 128.959 64.4289 128.879C64.3305 128.789 64.2295 128.699 64.1311 128.611C63.577 128.142 63.0462 127.642 62.461 127.214C61.5806 126.572 61.0653 125.464 59.8794 125.214C58.7892 124.123 57.6913 123.041 56.6168 121.935C56.3008 121.61 55.8658 121.216 56.71 120.953C57.6629 120.654 57.6577 119.937 57.3832 119.19C57.0906 118.396 56.8524 117.458 55.7131 117.548C54.7731 117.623 54.4236 118.28 54.3977 119.149C54.1154 119.149 53.8332 119.149 53.5509 119.146C53.4163 118.507 53.1548 117.932 52.6421 117.499C52.4323 117.321 52.1889 117.221 51.9481 117.414C51.7099 117.602 51.6944 117.896 51.8704 118.102C52.2951 118.602 52.5929 119.293 53.4215 119.267C53.4784 119.381 53.538 119.494 53.595 119.607C53.2739 120.138 53.3619 120.633 53.8798 120.932C56.029 122.172 57.5256 124.19 59.5453 125.58C61.3967 127.603 63.6909 129.111 65.7624 130.877C65.5708 131.593 64.9804 131.648 64.3875 131.699C63.2223 131.209 62.4195 130.091 61.1223 129.828C60.0477 128.709 58.8773 127.727 57.3806 127.206L57.3314 127.147L57.2537 127.157C57.3133 126.897 57.1605 126.796 56.9404 126.747L56.9741 126.781C56.8783 126.678 56.7799 126.572 56.6841 126.469C56.6064 126.405 56.5261 126.338 56.4484 126.273C54.7058 124.814 52.9606 123.355 51.2231 121.891C50.7958 121.53 50.3789 121.157 49.9698 120.778C47.9631 118.927 47.9682 118.79 49.8973 116.847C50.5291 116.21 51.2334 115.628 51.6814 114.826C51.7953 114.609 51.9067 114.393 52.0206 114.176C52.422 113.888 53.1599 113.723 52.4556 113.022C53.7788 112.212 55.3065 112.751 56.7048 112.393C57.1942 112.266 57.7302 112.323 58.2455 112.295C58.9472 112.661 59.0456 113.524 59.6411 113.98C59.1802 114.519 59.6178 114.947 59.8561 115.359C60.9876 117.318 61.9897 119.342 62.8856 121.417C63.3362 122.26 63.6547 123.175 64.2787 123.922C64.7215 124.853 65.1488 125.791 65.6148 126.709C65.9463 127.358 66.3399 127.428 66.6687 126.698C67.1063 125.722 67.6501 124.788 67.8728 123.724C68.3855 123.018 68.836 122.28 69.0199 121.412C70.2187 119.981 70.8816 118.244 71.7413 116.623C72.1737 115.811 72.9816 115.174 72.9946 114.151C73.5357 113.635 72.746 112.168 74.2815 112.362C76.2054 112.483 78.1293 112.607 80.0532 112.728L80.0506 112.723Z" fill="#5C6F89"/>
<path id="Vector_71" d="M87.9638 131.176C84.8772 131.743 81.7959 132.338 78.686 132.782C75.9982 133.163 73.2898 133.333 70.5942 133.434C66.2467 133.594 61.8836 133.627 57.5463 133.191C54.812 132.916 52.075 132.617 49.3587 132.145C47.6679 131.851 45.9744 131.599 44.3094 131.181C44.47 130.66 44.6305 130.14 44.7911 129.619C44.8118 129.516 44.8351 129.413 44.8558 129.31C44.918 129.307 44.9542 129.273 44.9672 129.214C45.0526 129.098 45.138 128.982 45.2235 128.866C46.2774 129.191 47.3105 129.658 48.3903 129.804C49.6358 129.975 50.7881 130.245 51.9196 130.823C52.4893 131.114 53.2998 131.029 53.9264 130.72C54.8534 130.261 55.5862 130.472 56.42 131C57.4661 131.663 58.6235 131.614 59.7188 131.021C60.058 130.838 60.3636 130.606 60.7701 130.588C61.9172 131.263 62.9089 132.361 64.46 131.928C65.8349 133.124 67.197 132.764 68.5538 131.895C69.486 132.47 70.0297 131.676 70.6512 131.266C71.0991 130.972 71.3788 130.436 71.9821 130.356C73.8206 131.807 75.672 131.828 77.526 130.395C77.8911 130.114 78.1811 130.173 78.5747 130.387C79.3877 130.825 80.3329 130.954 81.1951 130.748C82.5882 130.415 84.1004 130.526 85.3537 129.547C85.9026 129.119 86.7338 129.103 87.4744 129.346C87.6375 129.957 87.8006 130.565 87.9664 131.176H87.9638Z" fill="#9AC5C7"/>
<path id="Vector_72" d="M68.5512 131.895C67.1943 132.764 65.8323 133.124 64.4574 131.928C64.4315 131.851 64.4082 131.774 64.3797 131.696C64.9727 131.645 65.563 131.588 65.7521 130.874C66.1819 130.903 66.1793 130.694 66.0188 130.395C66.4538 130.304 66.8862 130.212 67.3212 130.121C68.0773 130.217 68.4787 129.652 68.9603 129.248C72.8081 126.01 76.3038 122.399 79.9211 118.917C79.9185 120.133 80.9672 120.613 81.6431 121.355C79.7787 123.288 77.5286 124.778 75.5529 126.582C75.3846 126.716 75.2162 126.85 75.0479 126.985C73.7947 127.686 72.7537 128.665 71.6559 129.567C70.545 130.245 69.5093 131.021 68.5486 131.897L68.5512 131.895Z" fill="#47677E"/>
<path id="Vector_73" d="M75.0531 126.982C75.2214 126.848 75.3897 126.714 75.558 126.58C76.8993 127.188 78.0464 126.58 79.1987 126.008C78.2872 127.907 76.876 128.24 75.0531 126.982Z" fill="white"/>
<path id="Vector_74" d="M83.3443 125.237C83.0051 126.487 82.034 126.887 80.4053 126.428C79.9962 126.312 79.6 126.149 79.1987 126.01C79.3126 125.569 79.6 125.526 79.991 125.631C81.1562 125.941 82.2749 125.799 83.3391 125.234L83.3443 125.24V125.237Z" fill="white"/>
<path id="Vector_75" d="M68.5511 131.895C69.5118 131.019 70.5476 130.24 71.6584 129.565C71.7646 129.828 71.8733 130.093 71.9795 130.356C71.3788 130.436 71.0965 130.972 70.6485 131.266C70.0271 131.673 69.4833 132.47 68.5511 131.895Z" fill="#BCD4D1"/>
<path id="Vector_76" d="M88.0906 126.454C87.4096 127.696 86.3635 127.954 84.973 127.193C86.1408 127.01 87.1869 127.018 88.0906 126.454Z" fill="white"/>
<path id="Vector_77" d="M90.5868 125.495C90.2709 125.407 89.5847 125.59 89.7426 125.08C89.9446 124.425 90.7965 124.799 91.3273 124.567C91.5889 124.451 91.8659 124.644 91.7753 124.971C91.607 125.58 91.058 125.456 90.5894 125.497L90.5868 125.495Z" fill="white"/>
<path id="Vector_78" d="M84.8539 125.25C85.6566 124.569 86.9616 124.799 87.565 123.574C87.5546 124.873 87.0833 125.154 84.8539 125.25Z" fill="white"/>
<path id="Vector_79" d="M76.1432 129.56C75.6927 129.583 75.3535 129.616 75.0168 129.611C74.688 129.603 74.2866 129.691 74.139 129.271C74.0976 129.15 74.1882 128.928 74.2918 128.822C74.5896 128.523 74.9314 128.663 75.2395 128.822C75.5321 128.977 75.8998 129.031 76.1432 129.557V129.56Z" fill="white"/>
<path id="Vector_80" d="M83.3365 125.232C83.3598 125.154 83.3831 125.077 83.4064 125C83.5825 125.134 83.3701 125.16 83.3417 125.237L83.3365 125.232Z" fill="#FBC6C2"/>
<path id="Vector_81" d="M101.498 63.6366C101.726 63.8248 101.957 64.0129 102.185 64.2011C102.291 64.3558 102.397 64.5104 102.503 64.6625C100.657 64.6548 98.8339 64.3944 97.0136 64.116C97.2078 63.8737 97.402 63.6314 97.5962 63.3891C98.9142 63.2036 100.188 63.7165 101.498 63.6366Z" fill="#BCD4D1"/>
<path id="Vector_82" d="M102.503 64.6599C102.397 64.5053 102.291 64.3506 102.185 64.1985C102.581 64.1496 102.92 64.1985 103.016 64.6728C102.845 64.6702 102.674 64.6651 102.503 64.6625V64.6599Z" fill="#463231"/>
<path id="Vector_83" d="M50.1381 124.819C48.8356 126.152 47.0775 125.987 46.1349 124.52C45.7595 123.938 45.4565 123.605 44.7211 123.873C44.2084 124.062 43.675 123.879 43.2762 123.536C42.8464 123.167 41.9841 122.731 42.357 122.206C42.7351 121.672 43.0691 122.693 43.5197 122.765C45.1251 123.023 46.456 123.786 47.7144 124.773C48.3799 125.296 49.2007 124.683 50.1381 124.817V124.819Z" fill="white"/>
<path id="Vector_84" d="M57.2485 127.155L57.3262 127.144C57.3262 127.144 57.3754 127.206 57.3754 127.204C56.855 127.351 56.3423 127.271 55.8658 127.075C54.7394 126.611 53.6312 126.363 52.3883 126.698C51.7539 126.871 51.179 126.454 50.7311 125.672C52.7378 125.933 54.6281 125.667 56.4432 126.268C56.5235 126.335 56.6012 126.399 56.6815 126.466C56.7799 126.57 56.8757 126.675 56.9715 126.778L56.9378 126.745C57.0414 126.881 57.145 127.018 57.2511 127.155H57.2485Z" fill="white"/>
<path id="Vector_85" d="M64.3823 131.696C64.4082 131.774 64.434 131.851 64.4599 131.928C62.9063 132.361 61.9146 131.263 60.7701 130.588C60.8866 130.333 61.0031 130.078 61.1196 129.825C62.4169 130.091 63.2196 131.207 64.3848 131.696H64.3823Z" fill="#BCD4D1"/>
<path id="Vector_86" d="M46.3032 127.333C47.2924 127.333 47.9527 127.327 48.6129 127.338C48.7864 127.34 48.9884 127.425 48.9625 127.616C48.9444 127.748 48.789 127.933 48.6647 127.964C47.9138 128.137 47.194 128.129 46.3058 127.333H46.3032Z" fill="white"/>
<path id="Vector_87" d="M47.6653 99.7312C47.5565 100.316 47.4555 100.858 47.3519 101.402C47.3053 101.654 47.2587 101.956 46.9143 101.902C46.5958 101.853 46.601 101.541 46.5803 101.291C46.5337 100.731 46.6192 100.185 46.7875 99.6513C46.9066 99.2802 46.7253 98.5971 47.3053 98.6667C47.8724 98.7337 47.4529 99.4013 47.6601 99.7312H47.6653Z" fill="#FABDB9"/>
<path id="Vector_88" d="M50.7492 99.623C50.643 100.203 50.5369 100.829 50.4074 101.453C50.3634 101.662 50.2443 101.873 49.9879 101.845C49.7134 101.814 49.716 101.561 49.6927 101.353C49.6125 100.703 49.7911 100.087 49.9232 99.4606C49.9905 99.1358 49.9491 98.6281 50.3556 98.6461C50.9227 98.6719 50.6353 99.2364 50.7492 99.623Z" fill="#FABDB9"/>
<path id="Vector_89" d="M61.0631 62.6216C61.0397 62.6008 61.0162 62.5826 60.9902 62.5618C61.024 62.5722 61.0579 62.5826 61.0918 62.593L61.0631 62.6216Z" fill="#FCFDFD"/>
<path id="Vector_90" d="M69.3772 138.053C69.9598 137.952 70.3819 138.228 70.7418 138.635C70.9308 139.782 70.1747 139.824 69.3643 139.798C68.8386 139.213 69.0043 138.633 69.3772 138.053Z" fill="#F0E2DC"/>
<path id="Vector_91" d="M44.8583 129.312C44.8376 129.415 44.8143 129.518 44.7936 129.621C44.6408 129.482 44.7315 129.395 44.8583 129.312Z" fill="#47677E"/>
<path id="Vector_92" d="M81.0009 114.009C80.5089 113.787 79.7165 113.782 80.1567 112.872C81.2831 112.985 81.019 112.207 80.9957 111.583C81.5032 112.199 82.0107 112.813 82.6865 113.261C82.9688 113.743 83.1216 114.158 82.2774 114.091C81.8528 114.058 81.4255 114.037 81.0009 114.009Z" fill="white"/>
<path id="Vector_93" d="M52.4478 113.016C53.1522 113.72 52.4142 113.882 52.0128 114.171H50.1304C49.9232 113.553 50.5317 113.295 50.5498 112.831C50.7181 112.668 50.8864 112.503 51.0548 112.339C51.3836 112.377 51.482 112.689 51.6917 112.869C51.9429 112.918 52.1941 112.965 52.4478 113.014V113.016Z" fill="white"/>
<path id="Vector_94" d="M36.4818 80.1C36.5646 81.0743 36.2358 81.8579 35.5081 82.5178C34.8323 83.1287 34.3714 82.9225 34.2394 82.1363C34.0451 80.9841 34.0892 79.8164 34.6407 78.739C34.853 78.324 35.0964 77.8368 35.679 77.9425C36.1969 78.0353 36.2332 78.5611 36.3419 78.9581C36.4403 79.3267 36.4403 79.7185 36.4843 80.1026L36.4818 80.1Z" fill="#FABDB9"/>
<path id="Vector_95" d="M32.3336 75.5169C33.0715 75.4628 33.7603 75.7051 33.6956 76.4861C33.6205 77.3934 32.7375 77.6692 31.9659 77.6898C31.2719 77.7079 30.3993 77.2929 30.4433 76.6175C30.5055 75.6483 31.4998 75.5555 32.331 75.5169H32.3336Z" fill="#FABDB9"/>
<path id="Vector_96" d="M33.6722 70.4932C33.7111 70.4597 33.7499 70.4313 33.7888 70.403C33.7629 70.4519 33.724 70.4829 33.6722 70.4932Z" fill="#5C3E4D"/>
<path id="Vector_97" d="M67.7951 111.88C67.9452 111.957 68.098 112.034 68.2482 112.114C68.2715 112.282 68.2948 112.449 68.3155 112.617C68.0022 113.032 68.1394 113.516 68.1213 113.973C68.0229 116.432 68.2327 118.896 67.9711 121.35C67.6552 121.69 67.2073 121.597 66.8189 121.695C66.0964 121.592 65.3481 121.67 64.6541 121.383C64.6464 118.44 64.6386 115.494 64.6308 112.55C64.8017 112.271 64.5065 112.088 64.4807 111.851L64.4625 111.867C65.5734 111.805 66.6842 112.096 67.7976 111.88H67.7951Z" fill="#FCFDFD"/>
<path id="Vector_98" d="M62.883 121.409C61.9845 119.334 60.985 117.311 59.8534 115.352C59.6152 114.937 59.1776 114.511 59.6385 113.973C60.1098 113.666 60.5811 113.357 61.0497 113.05C62.0208 115.104 62.0466 115.107 63.6935 113.406C63.8385 113.256 64.0094 113.132 64.1673 112.998C63.8825 115.785 63.999 118.579 63.9369 121.37C63.5847 121.383 63.2352 121.396 62.883 121.409Z" fill="#FCFDFD"/>
<path id="Vector_99" d="M80.0506 112.722C78.1267 112.601 76.2028 112.478 74.2789 112.356C74.2866 112.083 74.2918 111.807 74.2996 111.534C74.5818 111.253 74.5197 110.898 74.5119 110.552C74.9392 110.086 74.732 109.511 74.7864 108.98C74.7864 108.82 74.7864 108.66 74.7838 108.5C75.4752 107.405 76.529 108.165 77.3991 107.998L77.412 108.109C77.5052 108.245 77.601 108.379 77.6943 108.516C78.8103 109.57 79.5042 110.949 80.4727 112.117C80.9595 112.704 80.4442 112.694 80.0506 112.72V112.722Z" fill="#3C4856"/>
<path id="Vector_100" d="M72.9894 114.145C72.9764 115.169 72.1685 115.803 71.7361 116.617C70.8764 118.239 70.2136 119.976 69.0147 121.407L68.9784 121.363C68.748 120.922 68.8075 120.445 68.8101 119.976C68.8231 117.749 68.8412 115.522 68.8541 113.295C69.8882 114.295 70.7452 114.224 71.4254 113.081C72.0132 113.341 72.5233 113.71 72.9868 114.148L72.9894 114.145Z" fill="#FCFDFD"/>
<path id="Vector_101" d="M67.7951 111.88C66.6816 112.096 65.5708 111.805 64.46 111.867C64.4574 111.612 64.4496 111.354 64.4522 111.099C64.4833 108.109 63.9887 108.529 67.272 108.462C68.1602 108.444 68.4424 108.864 68.3026 109.642C68.1679 110.395 67.9686 111.135 67.7951 111.882V111.88Z" fill="#463231"/>
<path id="Vector_102" d="M64.1647 112.998C64.0068 113.135 63.8359 113.259 63.6909 113.406C62.044 115.107 62.0181 115.104 61.0471 113.05C61.231 111.978 62.1295 112.199 62.8416 112.039C63.3853 111.918 63.9187 111.81 64.4755 111.849C64.5013 112.086 64.7965 112.269 64.6256 112.547C64.3434 112.568 64.1518 112.676 64.1647 112.996V112.998Z" fill="#463231"/>
<path id="Vector_103" d="M71.428 113.078C70.7496 114.221 69.8925 114.292 68.8567 113.292C68.7791 112.985 68.5538 112.797 68.3155 112.617C68.2922 112.449 68.2689 112.282 68.2482 112.114C69.416 112.086 70.6201 111.931 71.428 113.078Z" fill="#463231"/>
<path id="Vector_104" d="M74.5093 110.552C74.5145 110.895 74.5792 111.253 74.297 111.534C73.1654 110.769 71.8215 111.068 70.589 110.805C70.3016 110.743 69.9908 110.8 69.6931 110.784C69.4031 110.769 68.9939 110.812 68.9888 110.421C68.9836 110.026 69.3953 110.024 69.6801 110.052C70.9929 110.176 72.3057 110.325 73.6186 110.464C73.9163 110.495 74.2115 110.524 74.5093 110.555V110.552Z" fill="#4B3837"/>
<path id="Vector_105" d="M74.7812 108.5C74.7812 108.66 74.7812 108.82 74.7838 108.98C72.9402 109.14 71.138 108.66 69.2995 108.5H74.7786H74.7812Z" fill="#5C3E4D"/>
<path id="Vector_106" d="M49.8118 57.6462C50.498 57.6513 51.1842 57.6539 51.873 57.6591C53.1392 58.007 54.3588 58.4555 55.4075 59.2752C56.93 60.4635 56.9611 61.5075 55.4722 62.7061C54.0274 63.8686 52.3132 64.1882 50.511 64.1495C49.9025 64.1367 49.294 64.0774 48.4421 64.0258C49.0428 65.1187 49.6591 65.9951 50.0268 66.9669C50.5628 68.3897 51.2179 70.0523 49.975 71.2819C48.7191 72.5269 47.0697 71.8206 45.643 71.2561C43.2064 70.2946 42.6419 69.2713 41.3964 66.9978C41.7977 67.7144 41.1711 67.9954 41.0054 69.1605C40.718 71.1891 39.6123 73.545 38.0457 75.0581C36.3497 76.6949 34.4387 76.2154 33.7707 73.9445C32.8955 70.97 32.9524 68.8254 34.6355 66.3096C34.9436 65.9126 35.648 65.361 35.9431 64.9563C35.9665 64.9254 35.9716 65.111 35.9431 64.9563C34.4465 65.093 33.4988 65.013 31.9736 64.9383C30.3889 64.8584 28.9467 64.4717 27.8203 63.2783C26.6033 61.9869 26.6343 60.943 28.0171 59.832C29.6898 58.4891 31.6396 58.0096 33.7681 58.2184C34.3714 58.2777 34.9721 58.3524 35.6298 58.4272C35.1258 57.5113 34.7184 56.8806 34.4076 56.5352C32.8178 54.767 31.8209 52.8131 32.3258 50.3592C32.766 48.2198 34.3714 47.498 36.2694 48.6116C37.7661 49.488 38.9313 51.068 39.5476 52.6172C39.8557 53.3957 40.3425 53.5658 40.1923 54.9422C42.1991 50.5396 45.92 49.8153 50.1588 50.2097C52.3469 51.3748 52.6446 52.5837 51.1972 54.6174C50.7777 55.2077 50.2676 55.7387 49.7989 56.2955C49.2992 56.6022 48.4887 56.7724 48.6311 57.4889C48.7191 57.9297 49.3924 57.7158 49.8196 57.641L49.8118 57.6462ZM40.9614 58.5973C39.6408 58.5896 38.6257 59.4376 38.6102 60.5692C38.5921 61.8606 39.7262 62.9226 41.1245 62.92C42.2897 62.92 43.2737 62.0049 43.297 60.9043C43.3255 59.5665 42.3544 58.6076 40.9614 58.5973Z" fill="#F4C185"/>
<path id="Vector_107" d="M47.8672 58.7108C47.541 58.7675 47.0309 58.9299 46.9635 58.5948C46.8548 58.0509 47.4711 57.9221 47.8491 57.6875C47.8543 58.0277 47.8595 58.368 47.8646 58.7108H47.8672Z" fill="#F4C185"/>
<path id="Vector_108" d="M101.498 63.6366C100.188 63.7191 98.9142 63.2036 97.5962 63.3892C98.9634 60.6775 99.3596 60.6337 101.102 62.9974C101.25 63.1984 101.369 63.4227 101.498 63.6366Z" fill="#E2F0EE"/>
<path id="Vector_109" d="M79.9263 118.914C76.3116 122.399 72.8159 126.008 68.9655 129.245C68.4813 129.652 68.0799 130.217 67.3264 130.119C69.7941 127.304 72.6295 124.853 75.2551 122.193C76.6767 120.754 78.1086 119.324 79.5457 117.901C79.8616 117.589 80.1464 117.086 80.7238 117.504C80.7472 117.584 80.773 117.666 80.7964 117.746C80.7187 118.293 80.1438 118.471 79.9263 118.911V118.914Z" fill="white"/>
<path id="Vector_110" d="M54.3873 119.148C54.4158 118.28 54.7627 117.623 55.7027 117.548C56.842 117.458 57.0828 118.396 57.3728 119.19C57.6473 119.937 57.6525 120.654 56.6996 120.953C55.8554 121.216 56.2905 121.613 56.6064 121.935C57.681 123.041 58.7789 124.123 59.869 125.214C59.7576 125.335 59.6463 125.456 59.535 125.577C57.5152 124.188 56.0186 122.169 53.8694 120.93C53.3515 120.631 53.2609 120.136 53.582 119.607C53.9497 119.651 54.3174 119.692 54.6876 119.736C55.3479 120.747 55.915 119.891 56.4614 119.605C56.7281 119.466 56.7721 119.045 56.4536 118.86C55.8373 118.504 55.3169 118.615 55.0424 119.342C54.9984 119.422 54.9569 119.499 54.9129 119.579C54.8326 119.631 54.7524 119.679 54.6721 119.731C54.5763 119.538 54.4779 119.344 54.3821 119.148H54.3873Z" fill="white"/>
<path id="Vector_111" d="M67.8676 123.719C67.6475 124.783 67.1011 125.716 66.6635 126.693C66.3372 127.423 65.9411 127.353 65.6096 126.704C65.1435 125.786 64.7163 124.845 64.2735 123.917C65.0374 123.822 65.7986 123.729 66.5625 123.634L67.8676 123.719Z" fill="#9AC5C7"/>
<path id="Vector_112" d="M66.5625 123.631C65.8012 123.726 65.0374 123.819 64.2735 123.915C63.6495 123.167 63.331 122.249 62.8804 121.409C63.2326 121.396 63.5822 121.383 63.9343 121.37C64.1725 121.376 64.4108 121.378 64.649 121.383C65.3455 121.667 66.0938 121.592 66.8137 121.695C66.5988 122.324 66.547 122.974 66.5599 123.631H66.5625Z" fill="#5C6F89"/>
<path id="Vector_113" d="M59.5375 125.577C59.6489 125.456 59.7602 125.335 59.8716 125.214C61.0575 125.464 61.5728 126.572 62.4532 127.214C63.0384 127.642 63.5692 128.142 64.1233 128.611C64.2243 128.701 64.3227 128.792 64.4211 128.879C64.5091 128.959 64.5998 129.039 64.6878 129.119C64.7733 129.199 64.8561 129.279 64.9416 129.361C65.2316 129.779 65.5734 130.145 66.0213 130.397C66.1819 130.694 66.1845 130.905 65.7546 130.877C63.6831 129.111 61.3889 127.603 59.5375 125.58V125.577Z" fill="white"/>
<path id="Vector_114" d="M66.5625 123.631C66.547 122.974 66.6014 122.322 66.8163 121.695C67.2047 121.595 67.6527 121.69 67.9712 121.35C68.3078 121.352 68.6444 121.358 68.981 121.36L69.0173 121.404C68.8334 122.273 68.3829 123.01 67.8702 123.716C67.4352 123.688 67.0001 123.659 66.5651 123.631H66.5625Z" fill="#5C6F89"/>
<path id="Vector_115" d="M53.4111 119.264C52.5825 119.29 52.2821 118.599 51.86 118.099C51.6866 117.893 51.6995 117.602 51.9377 117.411C52.1811 117.218 52.4245 117.321 52.6317 117.496C53.1444 117.929 53.4033 118.504 53.5405 119.143C53.4862 119.172 53.4422 119.21 53.4111 119.264Z" fill="white"/>
<path id="Vector_116" d="M53.4111 119.265C53.4421 119.21 53.4862 119.172 53.5405 119.143C53.8228 119.143 54.105 119.146 54.3873 119.149C54.4831 119.342 54.5815 119.538 54.6773 119.731L54.6902 119.736C54.3225 119.692 53.9523 119.651 53.5846 119.607C53.5276 119.494 53.468 119.381 53.4111 119.267V119.265Z" fill="white"/>
<path id="Vector_117" d="M64.4211 128.879C64.3227 128.789 64.2217 128.699 64.1234 128.611C64.2217 128.701 64.3227 128.792 64.4211 128.879Z" fill="white"/>
<path id="Vector_118" d="M57.2486 127.155C57.145 127.018 57.0414 126.881 56.9352 126.745C57.1553 126.794 57.3081 126.894 57.2486 127.155Z" fill="#F0E2DC"/>
<path id="Vector_119" d="M80.7963 117.749C80.773 117.669 80.7471 117.586 80.7238 117.507C80.7627 117.558 80.8093 117.605 80.8377 117.659C80.8481 117.677 80.8093 117.718 80.7937 117.749H80.7963Z" fill="#47677E"/>
<path id="Vector_120" d="M68.9784 121.36C68.6418 121.358 68.3052 121.352 67.9686 121.35C68.2301 118.896 68.0204 116.432 68.1188 113.973C68.1369 113.516 67.9996 113.032 68.313 112.617C68.5512 112.797 68.7765 112.985 68.8541 113.292C68.8386 115.519 68.8231 117.746 68.8101 119.973C68.8075 120.443 68.748 120.919 68.9784 121.36Z" fill="#5C6F89"/>
<path id="Vector_121" d="M64.6516 121.383C64.4133 121.378 64.1751 121.376 63.9369 121.37C63.999 118.579 63.8825 115.782 64.1673 112.998C64.1544 112.679 64.3486 112.568 64.6283 112.55C64.636 115.493 64.6438 118.44 64.6516 121.383Z" fill="#5C6F89"/>
<path id="Vector_122" d="M40.9095 58.6335C42.2716 58.6412 43.2219 59.582 43.1934 60.8915C43.1701 61.9689 42.2068 62.8634 41.0675 62.866C39.6977 62.866 38.5869 61.8297 38.6076 60.5641C38.6231 59.4583 39.6149 58.6257 40.9095 58.6335Z" fill="#5C3E4D"/>
<path id="Vector_123" d="M54.6903 119.734L54.6773 119.729C54.7576 119.68 54.8378 119.628 54.9181 119.576C54.9621 119.497 55.0036 119.419 55.0476 119.339C55.3221 118.612 55.8425 118.502 56.4588 118.857C56.7773 119.04 56.7333 119.463 56.4666 119.602C55.9202 119.888 55.3531 120.744 54.6928 119.734H54.6903Z" fill="#47677E"/>
<path id="Vector_124" d="M55.045 119.342C55.001 119.422 54.957 119.499 54.9155 119.579C54.9595 119.499 55.001 119.422 55.045 119.342Z" fill="#D47E92"/>
</g>
<defs>
<clipPath id="clip0_358_9684">
<rect width="119" height="148" fill="white"/>
</clipPath>
</defs>
</svg>
