<svg width="51" height="50" viewBox="0 0 51 50" fill="none" xmlns="http://www.w3.org/2000/svg">
<g id="Frame 43">
<g id="Group">
<path id="Vector" d="M25.694 -2.03379e-06C39.5016 -9.10527e-07 50.694 11.1925 50.694 25C50.694 38.8075 39.5016 50 25.694 50C11.8865 50 0.694032 38.8075 0.694033 25C0.694034 11.1925 11.8865 -3.15706e-06 25.694 -2.03379e-06ZM25.694 47.2803C37.9325 47.2803 47.9744 37.2385 47.9744 25C47.9744 12.7615 37.9325 2.71967 25.694 2.71967C13.4555 2.71967 3.41371 12.7615 3.41371 25C3.41371 37.2385 13.4555 47.2803 25.694 47.2803Z" fill="#496B8C" fill-opacity="0.5"/>
<path id="Vector_2" d="M24.4731 11.8L39.1955 25.5L24.4731 39.2L22.5388 37.3L35.1119 25.5L22.5388 13.7L24.4731 11.8Z" fill="#496B8C" fill-opacity="0.5"/>
<path id="Vector_3" d="M37.1537 27.2L11.3627 27.2L11.3627 24.4L37.1537 24.4L37.1537 27.2Z" fill="#496B8C" fill-opacity="0.5"/>
</g>
</g>
</svg>
