<svg width="290" height="330" viewBox="0 0 290 330" fill="none" xmlns="http://www.w3.org/2000/svg">
<g clip-path="url(#clip0_336_7668)">
<path d="M152.453 104.146C152.173 142.861 156.223 297.499 165.097 293.893C171.641 296.194 161.849 112.778 156.01 96.9056C154.831 99.5349 154.328 102.783 153.797 105.383" fill="#E8E9EA"/>
<path d="M177.586 81.1392C178.35 98.9162 168.152 113.793 154.821 114.364C141.491 114.934 130.055 100.985 129.301 83.2079C128.538 65.4309 138.726 50.5539 152.066 49.9836C165.397 49.4132 176.832 63.3622 177.586 81.1392Z" fill="#E8E9EA"/>
<path fill-rule="evenodd" clip-rule="evenodd" d="M62.582 141.295C58.3384 132.305 32.944 91.6082 51.6684 87.2002C64.9504 84.0779 75.7287 148.1 62.1567 141.024" fill="#E8AD4D"/>
<path fill-rule="evenodd" clip-rule="evenodd" d="M59.4887 135.727C53.1377 123.895 35.2253 89.4333 49.5127 88.2346C49.7157 88.2153 44.6503 91.1733 49.0197 105.664C53.5437 120.647 66.0137 139.652 58.783 135.882" fill="#CE9138"/>
<path fill-rule="evenodd" clip-rule="evenodd" d="M102.592 248.044C104.622 257.778 108.847 305.561 126.44 297.808C138.92 292.308 108.982 234.694 102.409 248.518" fill="#E8AD4D"/>
<path fill-rule="evenodd" clip-rule="evenodd" d="M103.472 254.356C105.521 267.629 111.969 305.928 124.091 298.282C124.265 298.175 118.436 298.862 113.206 284.661C107.803 269.978 106.314 247.29 102.815 254.646" fill="#CE9138"/>
<path fill-rule="evenodd" clip-rule="evenodd" d="M77.546 116.171C64.6797 114.654 55.767 119.245 42.5333 125.915C42.5333 125.915 90.335 257.73 96.077 273.38C114.801 278.001 121.955 270.49 128.083 261.732C129.543 259.654 77.546 116.171 77.546 116.171Z" fill="#FDC96D"/>
<path fill-rule="evenodd" clip-rule="evenodd" d="M51.9293 121.034C48.488 122.329 46.429 123.953 42.5333 125.915C42.5333 125.915 90.335 257.73 96.077 273.38C100.582 274.492 104.149 274.879 107.735 274.763C108.363 274.743 52.7897 120.705 51.9293 121.034Z" fill="#F7C169"/>
<path d="M73.7374 124.591C75.4 125.645 77.0337 123.064 75.371 122.01C73.7084 120.956 72.0844 123.537 73.7374 124.591Z" fill="#F7C169"/>
<path d="M75.9993 130.526C77.662 131.58 79.2957 128.999 77.633 127.945C75.9703 126.892 74.3463 129.473 75.9993 130.526Z" fill="#F7C169"/>
<path d="M77.9906 136.897C79.6533 137.95 81.2869 135.369 79.6146 134.316C77.9519 133.262 76.3279 135.843 77.9906 136.897Z" fill="#F7C169"/>
<path d="M127.6 112.372C96.976 125.935 95.8547 148.245 102.969 178.956C119.267 182.862 129.688 181.692 144.188 177.11C139.625 153.842 131.051 110.903 129.91 112.469" fill="#FFE5C0"/>
<path d="M132.327 157.293C134.84 166.805 164.884 297.489 155.218 297.615C151.477 297.276 122.834 170.305 121.713 154.345C121.713 154.345 122.138 118.762 132.317 157.293H132.327Z" fill="#EDEDED"/>
<path d="M189.109 184.988C185.194 170.227 182.71 154.712 184.256 139.439C185.967 122.628 197.442 105.683 216.388 112.343C224.044 115.04 230.55 121.855 230.995 130.149C231.381 137.486 227.892 144.9 224.508 151.184C217.452 164.321 207.418 176.104 196.833 186.525C195.499 187.84 197.529 189.908 198.863 188.594C214.9 172.827 256.379 125.432 218.37 110.033C200.902 102.957 186.876 115.098 182.661 131.715C178.253 149.115 181.782 168.719 186.296 185.732C186.779 187.54 189.583 186.796 189.099 184.978L189.109 184.988Z" fill="#5C6F89"/>
<path d="M193.15 183.538C191.642 169.463 196.282 154.055 201.444 141.121C204.373 133.774 208.181 127.539 214.948 123.17C221.802 118.743 232.048 116.858 237.307 124.543C242.904 132.721 240.603 142.532 236.012 150.411C232.57 156.317 228.52 162.387 224.006 167.511C219.066 173.117 213.276 178.057 207.282 182.494C203.155 185.559 198.118 189.396 192.898 190.218C191.052 190.508 191.816 193.311 193.652 193.021C199.549 192.093 205.078 187.714 209.718 184.283C216.495 179.265 222.884 173.514 228.249 166.989C237.742 155.447 250.792 136.172 238.912 121.788C227.901 108.457 208.181 121.488 201.975 133.088C197.635 141.198 194.88 150.236 192.753 159.149C190.878 166.998 189.38 175.467 190.25 183.548C190.443 185.385 193.353 185.404 193.15 183.548V183.538Z" fill="#5C6F89"/>
<path d="M191.603 189.996C187.504 186.332 184.991 180.928 182.768 175.998C179.52 168.787 177.19 161.15 175.421 153.455C172.656 141.469 169.07 121.865 178.94 111.995C184.111 106.833 192.454 108.177 198.65 110.323C206.093 112.904 210.637 118.975 212.038 126.553C214.919 142.117 206.76 159.681 200.1 173.263C197.877 177.787 195.47 182.224 192.956 186.593C192.028 188.217 194.522 189.696 195.45 188.072C202.865 175.167 209.554 161.518 213.276 147.047C216.524 134.412 217.171 118.926 205.388 110.507C195.682 103.576 180.013 102.957 173.604 114.306C166.953 126.089 169.969 142.735 172.84 155.147C174.599 162.784 177.093 170.256 180.254 177.429C182.516 182.572 185.271 188.207 189.534 192.016C190.926 193.263 193.005 191.233 191.603 189.986V189.996Z" fill="#5C6F89"/>
<path d="M203.493 188.574C203.657 186.419 191.748 180.541 182.681 183.422L182.275 184.36C178.466 202.398 161.192 290.384 171.148 291.882C176.523 293.574 202.768 198.077 203.493 188.574ZM174.28 269.272C172.811 267.822 172.772 264.071 173.613 262.379C174.048 261.5 174.628 260.446 175.45 259.837C176.262 259.238 176.939 259.325 177.867 259.344C177.886 259.344 177.896 259.344 177.915 259.344C177.944 259.344 177.963 259.344 177.992 259.344C178.273 259.344 178.959 259.808 179.104 260.137C180.158 262.592 179.897 265.221 178.862 267.145C177.876 268.972 176.02 270.973 174.29 269.272H174.28Z" fill="#5C6F89"/>
<g opacity="0.65">
<path d="M218.964 226.478C213.46 219.077 207.292 217.968 203.848 215.383V198.373C155.75 196.897 113.847 199.117 67.1316 199.117L68.5009 218.722C67.1316 218.722 57.5067 221.685 52.0162 225.38C47.895 228.342 42.3913 317.839 65.7623 325.24C80.8778 330.421 179.813 330.421 204.553 326.715C232.032 322.277 231.354 244.974 218.977 226.489L218.964 226.478Z" fill="#EBEBEA"/>
</g>
</g>
<defs>
<clipPath id="clip0_336_7668">
<rect width="290" height="328.667" fill="white" transform="translate(0 0.666687)"/>
</clipPath>
</defs>
</svg>
