<svg width="290" height="329" viewBox="0 0 290 329" fill="none" xmlns="http://www.w3.org/2000/svg">
<path d="M152.453 103.479C152.173 142.194 156.223 296.832 165.097 293.226C171.641 295.527 161.849 112.112 156.01 96.2389C154.831 98.8682 154.328 102.116 153.797 104.717" fill="#E8E9EA"/>
<path d="M177.586 80.4725C178.35 98.2495 168.152 113.127 154.821 113.697C141.491 114.267 130.055 100.318 129.301 82.5412C128.538 64.7642 138.726 49.8872 152.066 49.3169C165.397 48.7465 176.832 62.6955 177.586 80.4725Z" fill="#E8E9EA"/>
<path fill-rule="evenodd" clip-rule="evenodd" d="M62.582 140.628C58.3384 131.638 32.944 90.9415 51.6684 86.5335C64.9504 83.4112 75.7287 147.434 62.1567 140.358" fill="#E8AD4D"/>
<path fill-rule="evenodd" clip-rule="evenodd" d="M59.4887 135.06C53.1377 123.228 35.2253 88.7666 49.5127 87.5679C49.7157 87.5486 44.6503 90.5066 49.0197 104.997C53.5437 119.98 66.0137 138.985 58.783 135.215" fill="#CE9138"/>
<path fill-rule="evenodd" clip-rule="evenodd" d="M102.592 247.377C104.622 257.112 108.847 304.894 126.44 297.141C138.92 291.641 108.982 234.028 102.409 247.851" fill="#E8AD4D"/>
<path fill-rule="evenodd" clip-rule="evenodd" d="M103.472 253.69C105.521 266.962 111.969 305.261 124.091 297.615C124.265 297.509 118.436 298.195 113.206 283.995C107.803 269.311 106.314 246.623 102.815 253.98" fill="#CE9138"/>
<path fill-rule="evenodd" clip-rule="evenodd" d="M77.546 115.505C64.6797 113.987 55.767 118.579 42.5333 125.249C42.5333 125.249 90.335 257.063 96.077 272.714C114.801 277.334 121.955 269.823 128.083 261.065C129.543 258.987 77.546 115.505 77.546 115.505Z" fill="#FDC96D"/>
<path fill-rule="evenodd" clip-rule="evenodd" d="M51.9293 120.367C48.488 121.662 46.429 123.286 42.5333 125.249C42.5333 125.249 90.335 257.063 96.077 272.714C100.582 273.825 104.149 274.212 107.735 274.096C108.363 274.077 52.7897 120.038 51.9293 120.367Z" fill="#F7C169"/>
<path d="M73.7374 123.924C75.4 124.978 77.0337 122.397 75.371 121.343C73.7084 120.29 72.0844 122.871 73.7374 123.924Z" fill="#F7C169"/>
<path d="M75.9993 129.86C77.662 130.913 79.2957 128.332 77.633 127.279C75.9703 126.225 74.3463 128.806 75.9993 129.86Z" fill="#F7C169"/>
<path d="M77.9906 136.23C79.6533 137.284 81.2869 134.703 79.6146 133.649C77.9519 132.595 76.3279 135.176 77.9906 136.23Z" fill="#F7C169"/>
<path d="M127.6 111.706C96.976 125.268 95.8547 147.579 102.969 178.29C119.267 182.195 129.688 181.025 144.188 176.443C139.625 153.176 131.051 110.236 129.91 111.802" fill="#FFE5C0"/>
<path d="M132.327 156.627C134.84 166.139 164.884 296.822 155.218 296.948C151.477 296.61 122.834 169.638 121.713 153.678C121.713 153.678 122.138 118.095 132.317 156.627H132.327Z" fill="#EDEDED"/>
<path d="M189.109 125.489C185.194 110.728 182.71 95.2134 184.256 79.94C185.967 63.1297 197.442 46.184 216.388 52.8444C224.044 55.5414 230.55 62.3564 230.995 70.6504C231.381 77.9874 227.892 85.4017 224.508 91.685C217.452 104.822 207.418 116.606 196.833 127.026C195.499 128.341 197.529 130.41 198.863 129.095C214.9 113.329 256.379 65.933 218.37 50.534C200.902 43.458 186.876 55.5994 182.661 72.2164C178.253 89.6164 181.782 109.22 186.296 126.234C186.779 128.041 189.583 127.297 189.099 125.48L189.109 125.489Z" fill="#5C6F89"/>
<path d="M193.15 124.039C191.642 109.965 196.282 94.5561 201.444 81.6221C204.373 74.2754 208.181 68.0404 214.948 63.6711C221.802 59.2437 232.048 57.3587 237.307 65.0437C242.904 73.2217 240.603 83.0334 236.012 90.9117C232.57 96.8181 228.52 102.889 224.006 108.012C219.066 113.619 213.276 118.558 207.282 122.995C203.155 126.06 198.118 129.897 192.898 130.719C191.052 131.009 191.816 133.812 193.652 133.522C199.549 132.594 205.078 128.215 209.718 124.784C216.495 119.767 222.884 114.015 228.249 107.49C237.742 95.9481 250.792 76.6727 238.912 62.2887C227.901 48.9584 208.181 61.9891 201.975 73.5891C197.635 81.6994 194.88 90.7377 192.753 99.6504C190.878 107.5 189.38 115.968 190.25 124.049C190.443 125.886 193.353 125.905 193.15 124.049V124.039Z" fill="#5C6F89"/>
<path d="M191.603 130.497C187.504 126.833 184.991 121.429 182.768 116.499C179.52 109.288 177.19 101.651 175.421 93.9567C172.656 81.9701 169.07 62.3661 178.94 52.4964C184.111 47.3344 192.454 48.6781 198.65 50.8241C206.093 53.4051 210.637 59.4757 212.038 67.0544C214.919 82.6177 206.76 100.182 200.1 113.764C197.877 118.288 195.47 122.725 192.956 127.094C192.028 128.718 194.522 130.197 195.45 128.573C202.865 115.668 209.554 102.019 213.276 87.5477C216.524 74.9134 217.171 59.4274 205.388 51.0077C195.682 44.0767 180.013 43.4581 173.604 54.8067C166.953 66.5904 169.969 83.2364 172.84 95.6484C174.599 103.285 177.093 110.757 180.254 117.93C182.516 123.073 185.271 128.708 189.534 132.517C190.926 133.764 193.005 131.734 191.603 130.487V130.497Z" fill="#5C6F89"/>
<path d="M203.493 129.076C203.657 126.92 191.748 121.043 182.681 123.923L182.275 124.861C178.466 142.899 161.192 230.885 171.148 232.383C176.523 234.075 202.768 138.578 203.493 129.076ZM174.28 209.773C172.811 208.323 172.772 204.572 173.613 202.881C174.048 202.001 174.628 200.947 175.45 200.338C176.262 199.739 176.939 199.826 177.867 199.845C177.886 199.845 177.896 199.845 177.915 199.845C177.944 199.845 177.963 199.845 177.992 199.845C178.273 199.845 178.959 200.309 179.104 200.638C180.158 203.093 179.897 205.723 178.862 207.646C177.876 209.473 176.02 211.474 174.29 209.773H174.28Z" fill="#5C6F89"/>
<g opacity="0.65">
<path d="M218.964 225.811C213.46 218.411 207.292 217.301 203.848 214.716V197.706C155.75 196.231 113.847 198.45 67.1316 198.45L68.5009 218.056C67.1316 218.056 57.5067 221.018 52.0162 224.713C47.895 227.676 42.3913 317.172 65.7623 324.573C80.8778 329.755 179.813 329.755 204.553 326.049C232.032 321.61 231.354 244.308 218.977 225.823L218.964 225.811Z" fill="#EBEBEA"/>
</g>
</svg>
