<svg width="290" height="329" viewBox="0 0 290 329" fill="none" xmlns="http://www.w3.org/2000/svg">
<g clip-path="url(#clip0_338_8138)">
<path d="M152.453 103.479C152.173 142.194 156.223 296.832 165.097 293.226C171.641 295.527 161.849 112.111 156.01 96.2388C154.831 98.8681 154.328 102.116 153.797 104.716" fill="#E8E9EA"/>
<path d="M177.586 80.4725C178.35 98.2495 168.152 113.126 154.821 113.697C141.491 114.267 130.055 100.318 129.301 82.5411C128.538 64.7641 138.726 49.8871 152.066 49.3168C165.397 48.7465 176.832 62.6955 177.586 80.4725Z" fill="#E8E9EA"/>
<path fill-rule="evenodd" clip-rule="evenodd" d="M52.582 90.6281C48.3384 81.6381 22.944 40.9414 41.6684 36.5334C54.9504 33.4111 65.7287 97.4334 52.1567 90.3574" fill="#E8AD4D"/>
<path fill-rule="evenodd" clip-rule="evenodd" d="M49.4887 85.0601C43.1377 73.2281 25.2253 38.7664 39.5127 37.5677C39.7157 37.5484 34.6503 40.5064 39.0197 54.9967C43.5437 69.9801 56.0137 88.9847 48.783 85.2147" fill="#CE9138"/>
<path fill-rule="evenodd" clip-rule="evenodd" d="M92.5923 197.377C94.6223 207.111 98.8466 254.894 116.44 247.141C128.92 241.641 98.982 184.027 92.4086 197.851" fill="#E8AD4D"/>
<path fill-rule="evenodd" clip-rule="evenodd" d="M93.472 203.689C95.5213 216.962 101.969 255.261 114.091 247.615C114.265 247.508 108.436 248.195 103.206 233.994C97.8026 219.311 96.314 196.623 92.8146 203.979" fill="#CE9138"/>
<path fill-rule="evenodd" clip-rule="evenodd" d="M67.546 65.5044C54.6797 63.9867 45.767 68.5784 32.5333 75.2484C32.5333 75.2484 80.335 207.063 86.077 222.713C104.801 227.334 111.955 219.823 118.083 211.065C119.543 208.987 67.546 65.5044 67.546 65.5044Z" fill="#FDC96D"/>
<path fill-rule="evenodd" clip-rule="evenodd" d="M41.9293 70.3667C38.488 71.6621 36.429 73.2861 32.5333 75.2484C32.5333 75.2484 80.335 207.063 86.077 222.713C90.5817 223.825 94.1487 224.212 97.735 224.096C98.3633 224.076 42.7897 70.0381 41.9293 70.3667Z" fill="#F7C169"/>
<path d="M63.7374 73.9241C65.4 74.9778 67.0337 72.3968 65.371 71.3431C63.7084 70.2894 62.0844 72.8704 63.7374 73.9241Z" fill="#F7C169"/>
<path d="M65.9993 79.8594C67.662 80.9131 69.2957 78.3321 67.633 77.2784C65.9703 76.2248 64.3463 78.8057 65.9993 79.8594Z" fill="#F7C169"/>
<path d="M67.9906 86.2298C69.6533 87.2834 71.2869 84.7024 69.6146 83.6488C67.9519 82.5951 66.3279 85.1761 67.9906 86.2298Z" fill="#F7C169"/>
<path d="M127.6 111.706C96.976 125.268 95.8546 147.579 102.969 178.29C119.267 182.195 129.688 181.025 144.188 176.443C139.625 153.176 131.051 110.236 129.91 111.802" fill="#FFE5C0"/>
<path d="M132.327 156.627C134.84 166.139 164.884 296.822 155.218 296.948C151.477 296.61 122.834 169.638 121.713 153.678C121.713 153.678 122.138 118.095 132.317 156.627H132.327Z" fill="#EDEDED"/>
<path d="M189.109 184.321C185.194 169.56 182.71 154.045 184.256 138.772C185.967 121.962 197.442 105.016 216.388 111.676C224.044 114.373 230.55 121.188 230.995 129.482C231.381 136.819 227.892 144.234 224.508 150.517C217.452 163.654 207.418 175.438 196.833 185.858C195.499 187.173 197.529 189.242 198.863 187.927C214.9 172.161 256.379 124.765 218.37 109.366C200.902 102.29 186.876 114.431 182.661 131.048C178.253 148.448 181.782 168.052 186.296 185.066C186.779 186.873 189.583 186.129 189.099 184.312L189.109 184.321Z" fill="#5C6F89"/>
<path d="M193.15 182.871C191.642 168.797 196.282 153.388 201.444 140.454C204.373 133.107 208.181 126.872 214.948 122.503C221.802 118.076 232.048 116.191 237.307 123.876C242.904 132.054 240.603 141.865 236.012 149.744C232.57 155.65 228.52 161.721 224.006 166.844C219.066 172.451 213.276 177.39 207.282 181.827C203.155 184.892 198.118 188.729 192.898 189.551C191.052 189.841 191.816 192.644 193.652 192.354C199.549 191.426 205.078 187.047 209.718 183.616C216.495 178.599 222.884 172.847 228.249 166.322C237.742 154.78 250.792 135.505 238.912 121.121C227.901 107.79 208.181 120.821 201.975 132.421C197.635 140.531 194.88 149.57 192.753 158.482C190.878 166.332 189.38 174.8 190.25 182.881C190.443 184.718 193.353 184.737 193.15 182.881V182.871Z" fill="#5C6F89"/>
<path d="M191.603 189.329C187.504 185.665 184.991 180.261 182.768 175.331C179.52 168.12 177.19 160.483 175.421 152.789C172.656 140.802 169.07 121.198 178.94 111.328C184.111 106.166 192.454 107.51 198.65 109.656C206.093 112.237 210.637 118.308 212.038 125.886C214.919 141.45 206.76 159.014 200.1 172.596C197.877 177.12 195.47 181.557 192.956 185.926C192.028 187.55 194.522 189.029 195.45 187.405C202.865 174.5 209.554 160.851 213.276 146.38C216.524 133.745 217.171 118.259 205.388 109.84C195.682 102.909 180.013 102.29 173.604 113.639C166.953 125.422 169.969 142.068 172.84 154.48C174.599 162.117 177.093 169.589 180.254 176.762C182.516 181.905 185.271 187.54 189.534 191.349C190.926 192.596 193.005 190.566 191.603 189.319V189.329Z" fill="#5C6F89"/>
<path d="M203.493 187.908C203.657 185.752 191.748 179.875 182.681 182.755L182.275 183.693C178.466 201.731 161.192 289.717 171.148 291.215C176.523 292.907 202.768 197.41 203.493 187.908ZM174.28 268.605C172.811 267.155 172.772 263.404 173.613 261.713C174.048 260.833 174.628 259.779 175.45 259.17C176.262 258.571 176.939 258.658 177.867 258.677C177.886 258.677 177.896 258.677 177.915 258.677C177.944 258.677 177.963 258.677 177.992 258.677C178.273 258.677 178.959 259.141 179.104 259.47C180.158 261.925 179.897 264.555 178.862 266.478C177.876 268.305 176.02 270.306 174.29 268.605H174.28Z" fill="#5C6F89"/>
<g opacity="0.65">
<path d="M218.964 225.811C213.46 218.411 207.292 217.301 203.848 214.716V197.706C155.75 196.231 113.847 198.45 67.1316 198.45L68.5009 218.056C67.1316 218.056 57.5067 221.018 52.0162 224.713C47.895 227.675 42.3913 317.172 65.7623 324.573C80.8778 329.754 179.813 329.754 204.553 326.049C232.032 321.61 231.354 244.308 218.977 225.822L218.964 225.811Z" fill="#EBEBEA"/>
</g>
</g>
<defs>
<clipPath id="clip0_338_8138">
<rect width="290" height="328.667" fill="white"/>
</clipPath>
</defs>
</svg>
