<svg width="290" height="329" viewBox="0 0 290 329" fill="none" xmlns="http://www.w3.org/2000/svg">
<g clip-path="url(#clip0_338_8220)">
<path d="M151.453 63.4791C151.173 102.194 155.223 256.832 164.097 253.226C170.641 255.527 160.849 72.1114 155.01 56.2388C153.831 58.8681 153.328 62.1161 152.797 64.7164" fill="#E8E9EA"/>
<path d="M176.586 40.4725C177.35 58.2495 167.152 73.1265 153.821 73.6968C140.491 74.2672 129.055 60.3181 128.301 42.5411C127.538 24.7641 137.726 9.88714 151.066 9.31681C164.397 8.74648 175.832 22.6955 176.586 40.4725Z" fill="#E8E9EA"/>
<path fill-rule="evenodd" clip-rule="evenodd" d="M62.582 140.628C58.3384 131.638 32.944 90.9414 51.6684 86.5334C64.9504 83.4111 75.7287 147.433 62.1567 140.357" fill="#E8AD4D"/>
<path fill-rule="evenodd" clip-rule="evenodd" d="M59.4887 135.06C53.1377 123.228 35.2253 88.7664 49.5127 87.5677C49.7157 87.5484 44.6503 90.5064 49.0197 104.997C53.5437 119.98 66.0137 138.985 58.783 135.215" fill="#CE9138"/>
<path fill-rule="evenodd" clip-rule="evenodd" d="M102.592 247.377C104.622 257.112 108.847 304.894 126.44 297.141C138.92 291.641 108.982 234.028 102.409 247.851" fill="#E8AD4D"/>
<path fill-rule="evenodd" clip-rule="evenodd" d="M103.472 253.689C105.521 266.962 111.969 305.261 124.091 297.615C124.265 297.508 118.436 298.195 113.206 283.994C107.803 269.311 106.314 246.623 102.815 253.979" fill="#CE9138"/>
<path fill-rule="evenodd" clip-rule="evenodd" d="M77.546 115.504C64.6797 113.987 55.767 118.578 42.5333 125.248C42.5333 125.248 90.335 257.063 96.077 272.713C114.801 277.334 121.955 269.823 128.083 261.065C129.543 258.987 77.546 115.504 77.546 115.504Z" fill="#FDC96D"/>
<path fill-rule="evenodd" clip-rule="evenodd" d="M51.9293 120.367C48.488 121.662 46.429 123.286 42.5333 125.248C42.5333 125.248 90.335 257.063 96.077 272.713C100.582 273.825 104.149 274.212 107.735 274.096C108.363 274.076 52.7897 120.038 51.9293 120.367Z" fill="#F7C169"/>
<path d="M73.7374 123.924C75.4 124.978 77.0337 122.397 75.371 121.343C73.7084 120.289 72.0844 122.87 73.7374 123.924Z" fill="#F7C169"/>
<path d="M75.9993 129.859C77.662 130.913 79.2957 128.332 77.633 127.278C75.9703 126.225 74.3463 128.806 75.9993 129.859Z" fill="#F7C169"/>
<path d="M77.9906 136.23C79.6533 137.283 81.2869 134.702 79.6146 133.649C77.9519 132.595 76.3279 135.176 77.9906 136.23Z" fill="#F7C169"/>
<path d="M127.6 111.706C96.976 125.268 95.8547 147.579 102.969 178.29C119.267 182.195 129.688 181.025 144.188 176.443C139.625 153.176 131.051 110.236 129.91 111.802" fill="#FFE5C0"/>
<path d="M132.327 156.626C134.84 166.138 164.884 296.822 155.218 296.948C151.477 296.609 122.834 169.638 121.713 153.678C121.713 153.678 122.138 118.095 132.317 156.626H132.327Z" fill="#EDEDED"/>
<path d="M189.109 184.321C185.194 169.56 182.71 154.045 184.256 138.772C185.967 121.962 197.442 105.016 216.388 111.676C224.044 114.373 230.55 121.188 230.995 129.482C231.381 136.819 227.892 144.234 224.508 150.517C217.452 163.654 207.418 175.438 196.833 185.858C195.499 187.173 197.529 189.242 198.863 187.927C214.9 172.161 256.379 124.765 218.37 109.366C200.902 102.29 186.876 114.431 182.661 131.048C178.253 148.448 181.782 168.052 186.296 185.066C186.779 186.873 189.583 186.129 189.099 184.312L189.109 184.321Z" fill="#5C6F89"/>
<path d="M193.15 182.871C191.642 168.797 196.282 153.388 201.444 140.454C204.373 133.107 208.181 126.872 214.948 122.503C221.802 118.076 232.048 116.191 237.307 123.876C242.904 132.054 240.603 141.865 236.012 149.744C232.57 155.65 228.52 161.721 224.006 166.844C219.066 172.451 213.276 177.39 207.282 181.827C203.155 184.892 198.118 188.729 192.898 189.551C191.052 189.841 191.816 192.644 193.652 192.354C199.549 191.426 205.078 187.047 209.718 183.616C216.495 178.599 222.884 172.847 228.249 166.322C237.742 154.78 250.792 135.505 238.912 121.121C227.901 107.79 208.181 120.821 201.975 132.421C197.635 140.531 194.88 149.57 192.753 158.482C190.878 166.332 189.38 174.8 190.25 182.881C190.443 184.718 193.353 184.737 193.15 182.881V182.871Z" fill="#5C6F89"/>
<path d="M191.603 189.329C187.504 185.665 184.991 180.261 182.768 175.331C179.52 168.12 177.19 160.483 175.421 152.789C172.656 140.802 169.07 121.198 178.94 111.328C184.111 106.166 192.454 107.51 198.65 109.656C206.093 112.237 210.637 118.308 212.038 125.886C214.919 141.45 206.76 159.014 200.1 172.596C197.877 177.12 195.47 181.557 192.956 185.926C192.028 187.55 194.522 189.029 195.45 187.405C202.865 174.5 209.554 160.851 213.276 146.38C216.524 133.745 217.171 118.259 205.388 109.84C195.682 102.909 180.013 102.29 173.604 113.639C166.953 125.422 169.969 142.068 172.84 154.48C174.599 162.117 177.093 169.589 180.254 176.762C182.516 181.905 185.271 187.54 189.534 191.349C190.926 192.596 193.005 190.566 191.603 189.319V189.329Z" fill="#5C6F89"/>
<path d="M203.493 187.908C203.657 185.752 191.748 179.875 182.681 182.755L182.275 183.693C178.466 201.731 161.192 289.717 171.148 291.215C176.523 292.907 202.768 197.41 203.493 187.908ZM174.28 268.605C172.811 267.155 172.772 263.404 173.613 261.713C174.048 260.833 174.628 259.779 175.45 259.17C176.262 258.571 176.939 258.658 177.867 258.677C177.886 258.677 177.896 258.677 177.915 258.677C177.944 258.677 177.963 258.677 177.992 258.677C178.273 258.677 178.959 259.141 179.104 259.47C180.158 261.925 179.897 264.555 178.862 266.478C177.876 268.305 176.02 270.306 174.29 268.605H174.28Z" fill="#5C6F89"/>
<g opacity="0.65">
<path d="M218.964 225.811C213.46 218.411 207.292 217.301 203.848 214.716V197.706C155.75 196.231 113.847 198.45 67.1316 198.45L68.5009 218.056C67.1316 218.056 57.5067 221.018 52.0162 224.713C47.895 227.675 42.3913 317.172 65.7623 324.573C80.8778 329.754 179.813 329.754 204.553 326.049C232.032 321.61 231.354 244.308 218.977 225.822L218.964 225.811Z" fill="#EBEBEA"/>
</g>
</g>
<defs>
<clipPath id="clip0_338_8220">
<rect width="290" height="328.667" fill="white"/>
</clipPath>
</defs>
</svg>
