<svg width="135" height="24" viewBox="0 0 135 24" fill="none" xmlns="http://www.w3.org/2000/svg">
<g id="text">
<g id="Group">
<path id="Vector" d="M6.57826 10.0447C6.01829 10.5006 4.97471 11.1592 4.66927 11.1845C4.13475 11.2605 3.65113 11.4125 3.14207 11.4125C2.96389 11.4631 2.70936 11.4125 2.45483 11.4125H2.17484C2.12393 12.1977 1.97122 13.5149 1.94576 14.3001C1.92031 14.8574 1.76759 15.516 1.79304 15.9973C1.8185 16.2506 1.69123 17.6184 1.69123 17.5931C1.53851 17.745 1.15671 17.6944 0.902176 17.7957C0.54583 17.7957 0.265845 17.8464 0.0113126 17.8464C0.0622192 17.0105 0.0113126 15.44 0.0113126 14.3508C0.0113126 13.8695 0.113123 13.2616 0.0876693 12.7297V10.7032C0.113123 10.4499 0.0622171 9.918 0.0622171 9.6647C0.0113105 8.72748 0.113125 7.66361 0.0367648 6.92904C-0.0141418 6.47309 0.0113126 5.94116 0.0113126 5.45988C0.0113126 4.82663 -0.0141407 4.19337 0.0113126 3.53479C0.0113126 3.20549 0.0367659 2.85087 0.0113126 2.54691C0.164032 2.39493 0.418565 2.39493 0.545832 2.39493C1.33488 2.26827 2.88754 2.31894 3.70204 2.44559C4.08384 2.47092 4.49109 2.57224 4.94925 2.64823C5.12742 2.67356 5.28014 2.69889 5.43286 2.74955C6.32373 3.20549 7.01097 3.73743 7.41822 4.44667C7.62185 4.75064 7.85092 5.18125 7.90183 5.71318V7.41031C7.85092 7.8156 7.67275 8.47418 7.46913 8.87946C7.21459 9.36074 6.98552 9.63937 6.57826 10.0447ZM4.5929 5.40922C4.542 5.23191 4.03293 4.62399 3.52387 4.472L3.24388 4.42134C2.73481 4.26936 2.37847 4.2187 2.02212 4.24403C2.02212 4.57333 1.99667 4.92795 1.99667 5.3079C1.99667 5.99182 1.99667 6.70107 1.94576 7.20767C1.97122 7.79026 1.99667 8.09423 1.99667 8.65149C1.99667 8.98078 1.94576 9.76602 1.99667 9.86734C2.14939 9.918 2.55664 9.918 3.04025 9.84201C3.19297 9.81668 3.7784 9.6647 4.08384 9.36074C4.41473 9.03145 4.59291 8.49951 4.77108 7.99291C4.9238 6.9797 4.77108 5.8905 4.5929 5.40922Z" fill="black"/>
<path id="Vector_2" d="M10.3707 16.3237C10.218 16.1464 10.0653 16.0704 10.0399 15.9184C9.81078 15.4118 9.45443 15.1079 9.35262 14.6266C9.2508 14.1707 9.14899 13.6387 9.09808 13.2081C9.09808 12.7522 9.04718 12.3722 9.04718 11.8909C9.04718 11.3843 9.12354 11.0297 9.12354 10.5231C9.12354 10.1938 9.09808 9.81385 9.09808 9.48456V9.12994C9.09808 8.82598 9.17445 8.49668 9.17445 8.16739C9.5817 8.14206 10.2944 8.16739 10.5998 8.16739C10.7016 8.19272 11.1853 8.14206 11.3125 8.14206C11.4652 8.14206 12.2543 8.14206 12.407 8.16739C12.407 8.16739 12.3307 8.598 12.3307 8.74998C12.3307 9.20593 12.2797 9.56055 12.2797 9.96583C12.2797 10.3711 12.3816 12.6508 12.4579 13.0561C12.4579 13.3854 12.4834 13.5627 12.5088 13.892C12.5343 14.2466 12.7379 14.5253 12.8143 14.6013L12.967 15.0066L13.3233 15.4625C13.5524 15.7665 14.0106 15.7665 14.3924 15.7411L14.9778 15.6905C15.2578 15.6651 15.6396 15.2092 15.8941 15.0572C16.0468 14.9052 16.1741 14.5253 16.2759 14.196C16.3014 14.1453 16.5813 12.9041 16.5813 12.8282C16.6068 12.5495 16.6577 12.1949 16.6323 11.9163C16.5814 11.6123 16.6832 11.207 16.6832 10.8777C16.6832 10.5991 16.7341 10.2191 16.7595 10.0418C16.7595 10.0925 16.8104 9.28192 16.785 9.20593C16.7595 9.00329 16.6832 8.82598 16.6832 8.62333C16.6832 8.52201 16.7341 8.42069 16.7341 8.31937H17.2686C17.3959 8.31937 17.5231 8.37003 17.5995 8.37003C17.9304 8.37003 18.1849 8.39536 18.3376 8.37003C18.4904 8.31937 18.5667 8.3447 18.7449 8.31937C18.9994 8.37003 19.1521 8.29404 19.4576 8.31937C19.483 8.49668 19.4067 8.82598 19.4067 9.12994C19.4067 9.76319 19.4321 10.4471 19.4067 11.1057C19.3812 11.4603 19.4067 11.8149 19.3558 12.1442C19.3558 12.2456 19.3303 13.0055 19.3558 13.0815C19.483 13.816 19.3049 15.4118 19.3303 16.1464C19.3303 16.653 19.3812 17.1343 19.3812 17.6409C18.5667 17.7929 17.8286 17.7422 17.0141 17.7929C16.9632 17.7169 16.9377 17.6409 16.9377 17.4636C16.9377 17.2863 16.9122 17.1596 16.8868 17.0076C16.8613 16.8557 16.8359 16.6277 16.8359 16.6277C16.785 16.6277 16.6068 16.881 16.4541 16.9316C16.1232 17.0836 15.7923 17.2863 15.4614 17.3369C14.7996 17.6409 13.9342 17.6409 13.0688 17.6409C12.5597 17.6409 12.2288 17.4383 11.8979 17.2609C11.3634 17.0583 10.6253 16.5264 10.3707 16.3237Z" fill="black"/>
<path id="Vector_3" d="M21.1884 12.5017C21.2139 12.1977 21.2139 11.8937 21.2139 11.5645L21.1375 9.51271V8.37285C21.4939 8.37285 21.9011 8.34752 22.4102 8.39818C22.4102 8.39818 22.792 8.42351 22.9702 8.42351C23.1992 8.47417 23.1229 8.44884 23.2247 8.4995C23.2247 8.65148 23.1738 8.70214 23.1738 8.87945V9.69002C23.301 9.51271 23.301 9.43672 23.4792 9.25941L23.6319 9.20875C24.0646 8.77813 24.7773 8.67681 25.4137 8.72747C25.5409 8.72747 25.8973 8.85412 26.2027 9.03143C26.4827 9.08209 26.5845 9.20875 26.5845 9.20875C26.9154 9.51271 27.2718 9.69002 27.399 10.0193C27.7299 10.5006 27.9081 11.0325 28.0863 11.6658C28.0863 11.8431 28.0863 11.9951 27.9081 11.9951C27.399 12.1724 27.0681 12.0964 26.3554 12.1471H26.0754C26.0245 12.1217 25.9991 12.0204 25.9991 11.9951C25.9736 11.7924 25.8973 11.6404 25.8973 11.5391C25.8973 11.3618 25.7446 11.1592 25.7446 11.1592C25.4137 10.8299 25.1337 10.6779 24.8028 10.6779C24.7264 10.6779 24.5992 10.6779 24.4973 10.7286C24.3446 10.7792 23.9119 10.9819 23.8101 11.0832C23.6319 11.2605 23.4283 11.4378 23.3265 11.6658C23.301 11.7924 23.2756 12.223 23.2756 12.299C23.2247 12.603 23.1229 13.2109 23.1229 13.5655C23.1229 13.7935 23.0465 14.2241 23.0465 14.5281C23.0465 14.7561 23.0211 14.9587 23.0211 15.1613V16.1239C23.0211 16.3265 22.9956 16.5798 22.9956 16.8078V17.3651C22.1556 17.5424 21.5702 17.5424 21.2393 17.3651C21.163 17.1371 21.1375 16.6812 21.163 16.6052C21.2393 15.9972 21.163 15.3893 21.163 14.7561C21.1375 14.4268 21.1884 14.0215 21.1884 13.7175C21.1884 13.4896 21.2139 12.9323 21.1884 12.5017Z" fill="black"/>
<path id="Vector_4" d="M37.0713 12.7522C36.9695 12.8535 36.7149 12.8788 36.5622 12.8788C36.3331 12.9295 35.9259 12.9295 35.6968 12.9295C35.2387 12.9295 35.1114 12.9548 34.5769 13.0055L33.0497 13.1321V13.4361C33.0497 13.816 33.126 14.1707 33.406 14.5253C33.5587 14.7786 33.8387 15.0572 34.0678 15.1332C34.0678 15.1332 34.5769 15.3612 34.8059 15.3358C35.7223 15.3358 35.9768 15.1079 36.5877 14.8039C36.7149 14.8039 36.8931 14.6013 36.9695 14.5759C37.1222 14.5253 37.5549 14.1453 37.7076 14.0693C37.8094 14.1453 37.7331 14.6266 37.784 14.9559C37.784 14.9559 37.8094 15.4118 37.784 15.7411C37.4276 16.1211 37.5804 16.0198 37.1476 16.425C36.8168 16.7543 36.5113 16.9316 36.1804 17.033C35.7986 17.2356 35.2896 17.2863 35.035 17.3876C34.755 17.4383 34.3987 17.4383 34.3987 17.4383C33.7624 17.4383 33.1515 17.4889 32.4897 17.1596C32.2606 17.185 31.7006 16.957 31.5734 16.805C31.217 16.6024 30.9371 16.2477 30.6062 16.0198C30.148 15.6905 29.9953 15.3105 29.8171 14.9052C29.6389 14.6013 29.5117 14.196 29.3844 13.8414C29.3844 13.4867 29.3589 13.1321 29.3589 12.8028V11.8656C29.3589 11.2577 29.6644 10.2951 30.0207 9.6872C30.0207 9.6872 30.3007 9.38324 30.6316 9.05395C30.7334 9.02862 30.8352 8.95263 31.0643 8.82598C31.1661 8.77532 31.3188 8.54734 31.5734 8.47135C31.9552 8.3447 32.3115 8.14206 32.4897 8.14206C32.7188 8.14206 33.4569 8.19272 34.0424 8.21805C34.3478 8.24338 34.5514 8.3447 34.6532 8.3447C34.9078 8.37003 35.0859 8.39536 35.2896 8.47135C35.9004 8.67399 36.1295 8.90197 36.3332 9.12994C36.4604 9.28192 36.5877 9.56055 36.7149 9.71253C36.8677 9.91518 37.0458 10.3205 37.1222 10.6498C37.1986 10.9284 37.224 11.435 37.224 11.7643C37.224 12.0936 37.1986 12.1949 37.1986 12.4989C37.1986 12.5748 37.1477 12.6762 37.0713 12.7522ZM34.9587 10.6498C34.6787 10.2191 34.0933 10.1685 33.7369 10.2445C33.5078 10.2951 33.4824 10.3964 33.3551 10.5991C33.3042 10.6498 33.2788 10.7257 33.2024 10.8017C33.1515 10.8777 33.126 11.0044 33.1006 11.1057C33.0497 11.2577 33.0497 11.283 33.1006 11.5363C33.3551 11.6883 34.8569 11.6883 35.1114 11.5363C35.1368 11.511 35.0096 11.359 35.0096 11.0297C35.0096 10.9537 35.0096 10.7257 34.9587 10.6498Z" fill="black"/>
<path id="Vector_5" d="M42.0347 10.9819C41.9838 11.1592 41.9838 11.2858 41.9838 11.4631C41.9838 11.6658 42.0347 12.4003 42.0347 12.6283V13.1856C42.0347 13.4895 42.0602 13.7935 42.0602 14.0975C42.0602 14.3254 42.0092 14.5534 42.0347 14.7814C42.0347 14.984 42.0856 15.1613 42.0856 15.364V17.669C42.0856 17.8463 42.1874 18.049 42.0856 18.0237C41.7547 18.0237 41.2457 18.1503 40.8893 18.1503C40.5839 18.1503 40.4057 18.1503 40.0493 17.973V17.6437C39.8966 17.0104 39.8966 16.5038 39.8966 16.0226C39.8966 15.6679 39.8712 15.3387 39.9475 15.0094C39.9475 14.9587 39.9475 14.8827 39.8966 14.8067C39.8712 14.7307 39.8712 14.1228 39.8712 14.0215V12.9576C39.8712 12.5523 39.8457 12.147 39.8966 11.7418C39.9475 11.6911 40.0239 10.3739 40.0239 10.2219C40.0493 9.69001 40.0239 9.13275 40.0493 8.62614C40.0493 7.66359 40.0239 6.72637 40.0493 5.78916C40.0493 5.18123 40.0493 4.59863 40.0239 4.01604C39.973 3.38278 40.1003 3.45877 40.0493 2.80019C40.0493 2.4709 40.1002 2.1416 40.1002 1.83764C40.1002 1.50835 40.0748 1.30571 40.0748 0.976412L40.2021 0.849762C40.533 0.849762 40.9911 0.900422 41.2966 0.875092C41.5765 0.849762 41.6275 0.849762 41.9074 0.849762C41.9838 0.849762 42.0856 0.900421 42.1111 0.925752C42.1874 2.04028 42.0602 3.07882 42.0602 4.26934V6.04246C42.0347 7.25831 41.9583 8.27152 41.9583 9.28473C41.9583 9.63935 42.0092 10.07 42.0092 10.4246C42.0347 10.5006 42.0347 10.8552 42.0347 10.9819Z" fill="black"/>
<path id="Vector_6" d="M48.169 15.3612C48.0417 15.1839 47.889 14.8799 47.7363 14.7533C47.2781 14.4493 46.4127 12.9042 45.9036 12.2962C45.7764 11.9923 45.4455 11.7136 45.2928 11.4097C45.14 11.2324 45.0128 11.0804 44.8346 10.9537C44.8346 10.8017 44.6819 10.4724 44.5292 10.3205C44.3764 10.1938 44.071 9.86452 43.9183 9.56056V9.2566C44.2237 8.95263 44.6819 8.80065 45.0128 8.49669L45.2928 8.19273C45.4455 8.04075 45.5982 8.04074 45.7764 7.91409L45.9036 8.04075C46.1582 8.29405 46.1836 8.47136 46.3872 8.674C46.54 8.674 46.7436 9.18061 46.82 9.2566C46.9981 9.43391 46.9981 9.56056 47.1508 9.86452C47.5072 10.3458 47.7872 10.8017 48.169 11.2324C48.3471 11.4097 48.3471 11.5616 48.4999 11.7136C48.8562 11.9416 48.958 12.3216 49.2635 12.5749L49.7216 13.0561C49.9762 12.6508 50.2052 12.2962 50.4852 11.9923C50.7907 11.7136 50.9688 11.2324 51.2234 10.8017C51.427 10.3711 51.7579 9.96584 51.987 9.43391C52.1397 9.10461 52.3179 8.95263 52.3179 8.80065C52.6233 8.49669 52.7506 8.19273 52.9287 8.04075H53.2342C53.4378 8.11674 54.6087 9.07928 54.6087 9.2566C54.5323 9.71254 53.9214 10.1432 53.6923 10.6498C53.6923 10.8017 53.5142 10.9537 53.5142 10.9537C53.3869 11.2324 53.0815 11.5616 52.9287 11.8149C52.7506 12.1442 52.6233 12.4482 52.4706 12.5749C52.3179 12.9041 51.9615 13.3601 51.8597 13.6641C51.6815 14.1453 51.5543 14.1707 51.3761 14.424C51.3761 14.424 51.2997 14.6013 51.2234 14.6013C51.1216 14.7533 51.1216 14.8799 50.9688 15.0319C50.7907 15.3612 50.6379 15.6145 50.4852 15.9438C50.358 16.0958 50.1798 16.3744 50.0271 16.7037C49.7216 17.0076 49.4162 17.3116 49.2635 17.7676C48.8053 18.5021 48.169 19.338 48.0417 19.566C47.8381 20.1486 47.3545 20.7312 46.9981 21.0858C46.82 21.4151 46.54 21.6937 46.3872 22.175C46.2091 22.4536 45.9036 22.7829 45.7764 23.0869C45.6576 23.1713 45.5473 23.1713 45.4455 23.0869C45.14 22.9349 44.8346 22.7829 44.5292 22.4536C44.3764 22.327 44.071 22.0737 44.071 22.023C44.0201 21.9724 44.6819 21.0858 45.0128 20.8072V20.6552C45.2928 20.3259 45.5982 19.8953 45.9036 19.566C46.2091 18.9834 46.54 18.5528 46.9981 17.9195C46.9981 17.7676 47.1508 17.4636 47.3036 17.3116C47.5835 16.7797 48.0163 16.3237 48.169 15.7665C48.169 15.7665 48.3471 15.6145 48.3471 15.5132L48.169 15.3612Z" fill="black"/>
<path id="Vector_7" d="M62.5755 15.3865C62.6009 15.3105 62.6264 15.1079 62.6009 15.0066L62.5246 14.2213C62.4991 13.9427 62.55 13.6641 62.55 13.3601C62.5246 13.2334 62.55 13.1068 62.55 12.9801C62.5246 12.6255 62.6773 12.1696 62.6009 11.815C62.5755 11.7643 62.6264 11.207 62.6264 11.131C62.6519 10.8017 62.6519 10.4725 62.6264 10.1178C62.6264 9.33259 62.6264 8.69934 62.6773 8.26872C62.7028 8.11674 62.7028 7.83811 62.7028 7.55948C62.6773 7.17952 62.6519 6.72358 62.6519 6.29297C62.6519 5.53306 62.6264 5.00112 62.6009 4.24122C62.6009 3.96258 62.55 3.70928 62.5755 3.45598C62.5755 3.37999 62.5755 3.02537 62.6009 2.94937C62.6009 2.94937 62.6009 2.82272 62.7537 2.82272H64.5863C65.0699 2.82272 65.579 2.82272 65.9862 2.84805C66.3426 2.87338 66.8262 3.05069 67.1062 3.15202C67.997 3.45598 68.2261 3.5573 68.557 3.83593C69.1679 4.31721 69.9315 4.51985 70.4915 5.63438C70.6951 6.03966 71.0769 6.47028 71.0514 6.95155C71.2042 7.45815 71.1787 7.81278 71.3314 8.11674C71.5096 8.85132 71.5096 9.71255 71.3314 10.3965C71.3569 10.8524 71.1787 11.3337 71.1533 11.815C71.1023 12.6002 70.8987 12.6509 70.7205 13.1828C70.6696 13.3601 70.0842 14.1707 70.0078 14.348C69.8042 14.9052 69.4988 15.0319 68.9897 15.5638C68.7861 15.7918 68.0225 16.501 67.7425 16.6784C67.488 16.805 66.2408 17.5396 66.0117 17.5649C65.3245 17.6156 63.6954 17.7169 63.0082 17.7169H62.7282C62.55 17.5649 62.55 17.4383 62.55 17.4383V16.0198C62.5755 15.8171 62.5246 15.6145 62.5755 15.3865ZM64.459 15.4372C65.4517 15.3865 65.9862 15.1332 66.6989 14.6013C67.1571 14.272 67.2843 13.8667 67.4625 13.4614C67.6407 13.1575 67.7425 12.7015 67.8698 12.3469C67.9207 12.1442 68.0989 11.7136 68.0989 11.435C68.0989 11.283 68.2261 10.5991 68.2007 10.4471V9.99118C68.2007 9.38325 68.3025 8.72467 68.2007 7.68613V7.53415C68.1243 6.64759 67.6662 6.16631 67.1062 5.50773C66.8262 5.17844 66.5971 5.07711 65.7062 4.77315C65.4263 4.67183 64.8663 4.62117 64.5099 4.59584C64.459 4.69716 64.459 4.77315 64.459 4.77315V4.97579C64.4081 5.33042 64.4336 5.96367 64.4336 6.44495C64.4336 7.00221 64.5099 7.78745 64.4336 8.57269C64.4336 8.75 64.4081 8.95264 64.4081 9.12995C64.4336 9.56057 64.3572 10.0165 64.459 10.4725C64.3827 11.1817 64.4845 11.8909 64.459 12.6002C64.4336 13.4108 64.4336 14.6266 64.459 15.4372Z" fill="black"/>
<path id="Vector_8" d="M80.9782 12.7522C80.8764 12.8535 80.6219 12.8788 80.4692 12.8788C80.2401 12.9295 79.8328 12.9295 79.6037 12.9295C79.1456 12.9295 79.0183 12.9548 78.4838 13.0055L76.9566 13.1321V13.4361C76.9566 13.816 77.033 14.1707 77.3129 14.5253C77.4657 14.7786 77.7456 15.0572 77.9747 15.1332C77.9747 15.1332 78.4838 15.3612 78.7129 15.3358C79.6292 15.3358 79.8837 15.1079 80.4946 14.8039C80.6219 14.8039 80.8 14.6013 80.8764 14.5759C81.0291 14.5253 81.4618 14.1453 81.6145 14.0693C81.7164 14.1453 81.64 14.6266 81.6909 14.9559C81.6909 14.9559 81.7164 15.4118 81.6909 15.7411C81.3346 16.1211 81.4873 16.0198 81.0546 16.425C80.7237 16.7543 80.4182 16.9316 80.0873 17.033C79.7056 17.2356 79.1965 17.2863 78.9419 17.3876C78.662 17.4383 78.3056 17.4383 78.3056 17.4383C77.6693 17.4383 77.0584 17.4889 76.3966 17.1596C76.1675 17.185 75.6076 16.957 75.4803 16.805C75.124 16.6024 74.844 16.2477 74.5131 16.0198C74.0549 15.6905 73.9022 15.3105 73.724 14.9052C73.5459 14.6013 73.4186 14.196 73.2913 13.8414C73.2913 13.4867 73.2659 13.1321 73.2659 12.8028V11.8656C73.2659 11.2577 73.5713 10.2951 73.9277 9.6872C73.9277 9.6872 74.2076 9.38324 74.5385 9.05395C74.6403 9.02862 74.7422 8.95263 74.9712 8.82598C75.0731 8.77532 75.2258 8.54734 75.4803 8.47135C75.8621 8.3447 76.2184 8.14206 76.3966 8.14206C76.6257 8.14206 77.3638 8.19272 77.9493 8.21805C78.2547 8.24338 78.4583 8.3447 78.5602 8.3447C78.8147 8.37003 78.9929 8.39536 79.1965 8.47135C79.8074 8.67399 80.0364 8.90197 80.2401 9.12994C80.3673 9.28192 80.4946 9.56055 80.6219 9.71253C80.7746 9.91518 80.9528 10.3205 81.0291 10.6498C81.1055 10.9284 81.1309 11.435 81.1309 11.7643C81.1309 12.0936 81.1055 12.1949 81.1055 12.4989C81.1055 12.5748 81.0546 12.6762 80.9782 12.7522ZM78.8656 10.6498C78.5856 10.2191 78.0002 10.1685 77.6438 10.2445C77.4148 10.2951 77.3893 10.3964 77.262 10.5991C77.2111 10.6498 77.1857 10.7257 77.1093 10.8017C77.0584 10.8777 77.033 11.0044 77.0075 11.1057C76.9566 11.2577 76.9566 11.283 77.0075 11.5363C77.262 11.6883 78.7638 11.6883 79.0183 11.5363C79.0438 11.511 78.9165 11.359 78.9165 11.0297C78.9165 10.9537 78.9165 10.7257 78.8656 10.6498Z" fill="black"/>
<path id="Vector_9" d="M89.3269 14.5253C89.3269 14.2213 89.1488 13.892 88.8179 13.7147C88.0034 13.4107 87.1889 13.0814 86.1962 12.9041C85.7126 12.7268 85.2289 12.5748 84.5417 12.3975C83.9054 12.0936 83.4472 11.5616 83.269 10.7764C83.269 10.1431 83.1927 9.53522 83.4981 8.90196C83.8799 7.96474 84.0836 8.14205 84.4908 7.78743C85.2544 7.48347 85.7126 7.38215 86.5271 7.20483C86.858 7.02752 87.1889 7.02752 87.4943 7.02752H88.8688C89.3778 7.02752 89.8105 7.00219 90.2687 7.02752C91.0068 7.05285 91.5923 7.1795 92.4322 7.33148C92.7886 7.38215 93.0686 7.43281 93.2722 7.5088C93.2213 7.66078 93.1449 8.09139 93.1195 8.47135C93.1195 8.52201 93.094 8.598 93.094 8.64866C93.094 8.69932 93.0686 8.77531 93.0177 8.80064C92.9668 8.82597 92.8649 8.77531 92.7631 8.74998C92.1777 8.69932 91.5668 8.69932 90.956 8.72465C90.3451 8.74998 89.7087 8.87663 89.1488 8.95262C88.8942 9.02861 88.6397 9.07927 88.4106 9.12993C88.1561 9.18059 87.927 9.30724 87.6725 9.45923C87.5197 9.63654 87.3925 9.81385 87.3161 10.0165C87.2398 10.1938 87.1889 10.3964 87.1889 10.6244C87.138 10.8017 87.1889 11.2323 87.3925 11.4603C87.5961 11.6883 87.7743 11.8403 88.0034 11.9163C88.6397 12.0936 89.2506 12.2202 89.7342 12.3469C89.8869 12.3469 90.1414 12.4482 90.2942 12.4482C90.9814 12.4989 91.465 12.6762 92.1013 12.9041C92.585 13.0814 93.094 13.2334 93.5522 13.5374C93.9085 14.044 94.0612 14.348 94.2394 14.8546V15.5131C94.2394 15.8424 94.0613 16.1717 93.9085 16.349C93.7304 16.805 93.4249 17.1596 92.9159 17.4889C92.2795 17.9702 91.5923 18.2995 90.7778 18.4261C89.6324 18.7807 88.487 18.8314 87.1889 18.6541L85.7889 18.5274C85.4835 18.5021 85.0508 18.4261 84.6435 18.2995C84.0581 18.1222 83.829 18.1475 83.8036 18.0968C83.7781 18.0462 83.7272 17.9702 83.7272 17.9449C83.5745 17.5649 83.5999 17.3116 83.4218 16.8303C83.3454 16.653 83.32 16.5264 83.2945 16.3997C83.2945 16.3997 83.2691 16.2731 83.2945 16.1717C83.4727 16.1717 83.5745 16.2224 83.7272 16.2224C84.1345 16.3237 84.7453 16.4504 85.0508 16.4504C85.3562 16.4504 85.7126 16.4757 86.1962 16.4757C86.6034 16.501 87.0616 16.5517 87.4943 16.3744C87.7234 16.1971 88.5379 15.9691 88.8179 15.6651C89.1488 15.3612 89.3269 15.0319 89.3269 14.5253Z" fill="black"/>
<path id="Vector_10" d="M101.85 14.5253C101.85 14.2213 101.672 13.892 101.341 13.7147C100.526 13.4107 99.7118 13.0814 98.7191 12.9041C98.2355 12.7268 97.7519 12.5748 97.0647 12.3975C96.4283 12.0936 95.9702 11.5616 95.792 10.7764C95.792 10.1431 95.7156 9.53522 96.0211 8.90196C96.4029 7.96474 96.6065 8.14205 97.0138 7.78743C97.7774 7.48347 98.2355 7.38215 99.05 7.20483C99.3809 7.02752 99.7118 7.02752 100.017 7.02752H101.392C101.901 7.02752 102.333 7.00219 102.792 7.02752C103.53 7.05285 104.115 7.1795 104.955 7.33148C105.312 7.38215 105.592 7.43281 105.795 7.5088C105.744 7.66078 105.668 8.09139 105.642 8.47135C105.642 8.52201 105.617 8.598 105.617 8.64866C105.617 8.69932 105.592 8.77531 105.541 8.80064C105.49 8.82597 105.388 8.77531 105.286 8.74998C104.701 8.69932 104.09 8.69932 103.479 8.72465C102.868 8.74998 102.232 8.87663 101.672 8.95262C101.417 9.02861 101.163 9.07927 100.934 9.12993C100.679 9.18059 100.45 9.30724 100.195 9.45923C100.043 9.63654 99.9154 9.81385 99.8391 10.0165C99.7627 10.1938 99.7118 10.3964 99.7118 10.6244C99.6609 10.8017 99.7118 11.2323 99.9154 11.4603C100.119 11.6883 100.297 11.8403 100.526 11.9163C101.163 12.0936 101.774 12.2202 102.257 12.3469C102.41 12.3469 102.664 12.4482 102.817 12.4482C103.504 12.4989 103.988 12.6762 104.624 12.9041C105.108 13.0814 105.617 13.2334 106.075 13.5374C106.431 14.044 106.584 14.348 106.762 14.8546V15.5131C106.762 15.8424 106.584 16.1717 106.431 16.349C106.253 16.805 105.948 17.1596 105.439 17.4889C104.802 17.9702 104.115 18.2995 103.301 18.4261C102.155 18.7807 101.01 18.8314 99.7118 18.6541L98.3119 18.5274C98.0064 18.5021 97.5737 18.4261 97.1665 18.2995C96.581 18.1222 96.352 18.1475 96.3265 18.0968C96.3011 18.0462 96.2502 17.9702 96.2502 17.9449C96.0974 17.5649 96.1229 17.3116 95.9447 16.8303C95.8683 16.653 95.8429 16.5264 95.8175 16.3997C95.8175 16.3997 95.792 16.2731 95.8175 16.1717C95.9956 16.1717 96.0974 16.2224 96.2502 16.2224C96.6574 16.3237 97.2683 16.4504 97.5737 16.4504C97.8792 16.4504 98.2355 16.4757 98.7191 16.4757C99.1264 16.501 99.5845 16.5517 100.017 16.3744C100.246 16.1971 101.061 15.9691 101.341 15.6651C101.672 15.3612 101.85 15.0319 101.85 14.5253Z" fill="black"/>
<path id="Vector_11" d="M115.999 12.7522C115.897 12.8535 115.643 12.8788 115.49 12.8788C115.261 12.9295 114.854 12.9295 114.625 12.9295C114.166 12.9295 114.039 12.9548 113.505 13.0055L111.977 13.1321V13.4361C111.977 13.816 112.054 14.1707 112.334 14.5253C112.487 14.7786 112.767 15.0572 112.996 15.1332C112.996 15.1332 113.505 15.3612 113.734 15.3358C114.65 15.3358 114.905 15.1079 115.515 14.8039C115.643 14.8039 115.821 14.6013 115.897 14.5759C116.05 14.5253 116.483 14.1453 116.635 14.0693C116.737 14.1453 116.661 14.6266 116.712 14.9559C116.712 14.9559 116.737 15.4118 116.712 15.7411C116.355 16.1211 116.508 16.0198 116.075 16.425C115.745 16.7543 115.439 16.9316 115.108 17.033C114.726 17.2356 114.217 17.2863 113.963 17.3876C113.683 17.4383 113.326 17.4383 113.326 17.4383C112.69 17.4383 112.079 17.4889 111.418 17.1596C111.188 17.185 110.628 16.957 110.501 16.805C110.145 16.6024 109.865 16.2477 109.534 16.0198C109.076 15.6905 108.923 15.3105 108.745 14.9052C108.567 14.6013 108.439 14.196 108.312 13.8414C108.312 13.4867 108.287 13.1321 108.287 12.8028V11.8656C108.287 11.2577 108.592 10.2951 108.949 9.6872C108.949 9.6872 109.229 9.38324 109.559 9.05395C109.661 9.02862 109.763 8.95263 109.992 8.82598C110.094 8.77532 110.247 8.54734 110.501 8.47135C110.883 8.3447 111.239 8.14206 111.418 8.14206C111.647 8.14206 112.385 8.19272 112.97 8.21805C113.276 8.24338 113.479 8.3447 113.581 8.3447C113.836 8.37003 114.014 8.39536 114.217 8.47135C114.828 8.67399 115.057 8.90197 115.261 9.12994C115.388 9.28192 115.515 9.56055 115.643 9.71253C115.795 9.91518 115.974 10.3205 116.05 10.6498C116.126 10.9284 116.152 11.435 116.152 11.7643C116.152 12.0936 116.126 12.1949 116.126 12.4989C116.126 12.5748 116.075 12.6762 115.999 12.7522ZM113.886 10.6498C113.606 10.2191 113.021 10.1685 112.665 10.2445C112.436 10.2951 112.41 10.3964 112.283 10.5991C112.232 10.6498 112.207 10.7257 112.13 10.8017C112.079 10.8777 112.054 11.0044 112.028 11.1057C111.977 11.2577 111.977 11.283 112.028 11.5363C112.283 11.6883 113.785 11.6883 114.039 11.5363C114.065 11.511 113.937 11.359 113.937 11.0297C113.937 10.9537 113.937 10.7257 113.886 10.6498Z" fill="black"/>
<path id="Vector_12" d="M118.445 12.5017C118.471 12.1977 118.471 11.8937 118.471 11.5645L118.395 9.51271V8.37285C118.751 8.37285 119.158 8.34752 119.667 8.39818C119.667 8.39818 120.049 8.42351 120.227 8.42351C120.456 8.47417 120.38 8.44884 120.482 8.4995C120.482 8.65148 120.431 8.70214 120.431 8.87945V9.69002C120.558 9.51271 120.558 9.43672 120.736 9.25941L120.889 9.20875C121.322 8.77813 122.034 8.67681 122.671 8.72747C122.798 8.72747 123.154 8.85412 123.46 9.03143C123.74 9.08209 123.842 9.20875 123.842 9.20875C124.172 9.51271 124.529 9.69002 124.656 10.0193C124.987 10.5006 125.165 11.0325 125.343 11.6658C125.343 11.8431 125.343 11.9951 125.165 11.9951C124.656 12.1724 124.325 12.0964 123.613 12.1471H123.333C123.282 12.1217 123.256 12.0204 123.256 11.9951C123.231 11.7924 123.154 11.6404 123.154 11.5391C123.154 11.3618 123.002 11.1592 123.002 11.1592C122.671 10.8299 122.391 10.6779 122.06 10.6779C121.984 10.6779 121.856 10.6779 121.754 10.7286C121.602 10.7792 121.169 10.9819 121.067 11.0832C120.889 11.2605 120.685 11.4378 120.584 11.6658C120.558 11.7924 120.533 12.223 120.533 12.299C120.482 12.603 120.38 13.2109 120.38 13.5655C120.38 13.7935 120.304 14.2241 120.304 14.5281C120.304 14.7561 120.278 14.9587 120.278 15.1613V16.1239C120.278 16.3265 120.253 16.5798 120.253 16.8078V17.3651C119.413 17.5424 118.827 17.5424 118.496 17.3651C118.42 17.1371 118.395 16.6812 118.42 16.6052C118.496 15.9972 118.42 15.3893 118.42 14.7561C118.395 14.4268 118.445 14.0215 118.445 13.7175C118.445 13.4896 118.471 12.9323 118.445 12.5017Z" fill="black"/>
<path id="Vector_13" d="M131.958 17.4889C131.958 17.6915 131.958 18.1728 131.933 18.3755C131.958 18.5021 131.806 18.6541 131.755 18.7047H131.093C130.915 18.7047 130.686 18.6794 130.508 18.6794C130.253 18.7807 129.413 18.7047 129.311 18.7047C129.209 18.5865 129.158 18.4768 129.158 18.3755V15.9438L129.108 14.4493L129.158 12.7521L129.133 11.283L129.031 10.0671C128.624 10.0671 127.937 10.1431 127.631 10.0671C127.046 9.96582 126.817 10.0671 126.359 10.0671V8.44601H126.511C126.664 8.44601 126.817 8.42068 126.868 8.44601C127.046 8.57266 127.479 8.47133 127.453 8.42067C127.835 8.39534 127.784 8.39535 128.089 8.39535C128.369 8.39535 129.031 8.42068 129.209 8.39535C129.235 8.39535 129.209 7.45813 129.209 7.1035C129.286 6.47025 129.286 5.98897 129.311 5.33039C129.337 4.87444 129.337 4.44383 129.337 3.96255C129.337 3.48128 129.413 2.69604 129.388 2.16411C129.388 1.9868 129.311 1.9868 129.311 1.83482C129.311 1.68283 129.311 1.58151 129.489 1.58151C129.795 1.58151 130.151 1.63217 130.457 1.63217C130.966 1.63217 131.424 1.63217 131.678 1.6575C131.907 1.68283 132.086 1.70816 132.264 1.75882C132.289 1.75882 132.264 2.44274 132.238 2.82269C132.213 3.65859 132.213 4.19053 132.238 5.02642C132.238 5.40638 132.213 5.81166 132.238 6.19161C132.238 6.39426 132.137 7.73676 132.111 7.9394C132.111 8.11671 132.213 8.26869 132.264 8.26869C132.442 8.26869 132.747 8.34468 132.926 8.34468C133.078 8.34468 133.256 8.42067 133.587 8.42067C133.893 8.42067 134.224 8.44601 134.58 8.44601C134.733 8.44601 134.885 8.47133 134.885 8.47133C135.038 8.97794 135.038 9.73785 134.885 10.0671H134.733C134.071 10.1431 133.409 10.1938 132.747 10.1938C132.595 10.1938 132.315 10.2191 132.137 10.2191C132.137 10.3711 132.111 10.5484 132.111 10.5484V10.7764C132.111 11.0803 132.137 11.3083 132.111 11.587L132.162 12.9295L132.06 14.0693C132.086 14.4239 131.984 15.9691 131.958 16.3237C131.958 16.7037 131.933 17.1089 131.958 17.4889Z" fill="black"/>
</g>
</g>
</svg>
