<svg width="190" height="50" viewBox="0 0 190 50" fill="none" xmlns="http://www.w3.org/2000/svg">
<g clip-path="url(#clip0_308_6428)">
<path d="M24.7651 10.078C26.5314 11.8287 28.0137 11.4693 29.7981 10.5061C29.1339 9.60347 28.5378 8.64635 27.4136 8.23644C26.4294 7.87701 25.5292 8.09913 24.6771 8.63221C24.487 8.29096 24.6851 7.7498 24.105 7.71345C23.6829 7.6872 23.5688 8.0123 23.4888 8.32932C23.3368 8.32529 23.2848 8.23038 23.2148 8.16375C22.8767 7.82653 22.5386 7.50345 22.0726 7.33181C21.2104 7.01075 20.3862 7.16825 19.5481 7.43681C18.4498 7.78615 18.4518 7.76797 19.04 8.76548C19.5101 9.56309 20.1302 10.1608 21.0624 10.3445C21.8305 10.496 22.5246 10.292 23.1908 9.89828C23.6529 9.62569 23.7009 9.66607 23.7109 10.2214C23.7209 10.7746 23.7289 11.3259 23.6589 11.8792C23.6129 12.2487 23.6449 12.6364 23.1228 12.6828C22.7767 12.7131 22.5386 13.0665 22.1006 12.9171C21.3144 12.6465 20.4922 12.6808 19.6961 12.9373C17.7797 13.5552 16.5355 15.4835 16.6835 17.6361C16.7095 18.0116 16.6215 18.1146 16.2614 18.1651C15.0452 18.3408 13.8429 18.5992 12.6667 18.9587C11.0684 19.4453 9.52409 20.0531 8.27585 21.2324C7.46369 21.9997 6.84557 22.9184 6.80756 24.0553C6.74155 25.9473 6.77355 27.8454 6.79756 29.7395C6.80556 30.4462 7.15963 30.9975 7.81976 31.2781C8.06981 31.3852 8.13782 31.5225 8.13582 31.7668C8.13182 32.6048 8.12382 33.4448 8.14382 34.2828C8.15182 34.5978 8.0278 34.7129 7.74174 34.7957C7.06961 34.9895 6.42549 35.2702 5.85537 35.6842C5.14723 36.197 4.59113 36.827 4.4711 37.7438C4.29907 39.0583 4.94519 40.1386 6.35547 40.8474C8.25584 41.8005 10.3323 42.0852 12.3967 42.3638C15.2452 42.7475 18.1118 42.903 20.9863 42.9373C26.4374 43.0019 31.8785 42.901 37.2335 41.6854C38.2577 41.4532 39.2639 41.1644 40.1661 40.6071C42.1505 39.3814 42.2345 37.1077 40.3561 35.7286C39.758 35.2884 39.0879 34.9956 38.3898 34.7775C38.1597 34.7048 38.0697 34.5998 38.0757 34.3555C38.0897 33.8184 38.0877 33.2812 38.0757 32.7461C38.0717 32.5361 38.1377 32.415 38.3317 32.3181C39.0799 31.9405 39.3919 31.3024 39.3879 30.4745C39.3799 29.0327 39.3879 27.589 39.3859 26.1472C39.3859 25.5273 39.428 24.8993 39.3459 24.2875C39.1079 22.5348 38.0157 21.3777 36.5934 20.4852C34.9171 19.4352 33.0507 18.9001 31.1463 18.4922C30.8103 18.4195 30.7503 18.3065 30.7823 17.9692C30.9823 15.8409 29.694 14.0438 27.6657 13.5774C27.5336 13.5471 27.4056 13.5127 27.3076 13.4158C26.6474 12.7575 25.8613 12.4264 24.9291 12.4425C24.8411 12.4425 24.6691 12.487 24.7031 12.2992C24.8291 11.5844 24.7111 10.8655 24.7631 10.0861L24.7651 10.078ZM16.4054 11.4854C16.4034 11.34 15.6113 10.5081 15.4853 10.4839C15.2072 10.4293 14.305 11.2774 14.4471 11.4794C14.6871 11.8247 14.9912 12.1316 15.3052 12.4123C15.4533 12.5455 15.6273 12.3981 15.7113 12.2467C15.8213 12.0488 15.9734 11.9135 16.1634 11.8024C16.2914 11.7277 16.4034 11.6227 16.4074 11.4854H16.4054ZM32.9767 12.695C32.7907 12.6929 32.0385 13.4199 32.0265 13.6137C32.0145 13.7934 32.8067 14.6678 32.9787 14.6637C33.1347 14.6617 33.9189 13.8984 33.9249 13.7429C33.9329 13.5228 33.1887 12.697 32.9787 12.695H32.9767Z" fill="#F3ACB2"/>
<path d="M49.876 46.0004C49.876 31.9605 49.876 17.9207 49.874 3.88079C49.874 3.03674 49.964 3.12761 49.1278 3.12761C32.4186 3.12761 15.7093 3.12761 -1 3.12559C-0.909982 2.91761 -0.729947 3.03069 -0.601922 3.03069C1.47449 3.02261 3.55289 3.02463 5.6293 3.02463C20.2702 3.02463 34.909 3.02463 49.5499 3.01453C49.904 3.01453 49.986 3.07915 49.986 3.44867C49.974 17.4986 49.976 31.5486 49.97 45.5965C49.97 45.7278 50.082 45.9075 49.876 45.9984V46.0004Z" fill="#FCFCFC"/>
<path d="M24.765 10.0781C24.713 10.8575 24.831 11.5763 24.705 12.2912C24.671 12.481 24.843 12.4365 24.9311 12.4345C25.8632 12.4184 26.6514 12.7495 27.3095 13.4078C27.4076 13.5067 27.5356 13.5391 27.6676 13.5693C29.696 14.0358 30.9843 15.8329 30.7842 17.9612C30.7522 18.3005 30.8142 18.4135 31.1483 18.4842C33.0547 18.8921 34.921 19.4272 36.5954 20.4772C38.0196 21.3697 39.1118 22.5247 39.3479 24.2795C39.4299 24.8893 39.3859 25.5173 39.3879 26.1392C39.3919 27.5809 39.3819 29.0247 39.3899 30.4665C39.3939 31.2964 39.0818 31.9324 38.3337 32.31C38.1397 32.409 38.0736 32.5281 38.0776 32.7381C38.0896 33.2752 38.0916 33.8124 38.0776 34.3475C38.0716 34.5918 38.1617 34.6968 38.3917 34.7695C39.0918 34.9896 39.76 35.2824 40.3581 35.7206C42.2365 37.1017 42.1524 39.3754 40.1681 40.5991C39.2639 41.1564 38.2577 41.4451 37.2355 41.6774C31.8804 42.8929 26.4394 42.9939 20.9883 42.9293C18.1157 42.895 15.2472 42.7395 12.3986 42.3558C10.3342 42.0772 8.2578 41.7945 6.35742 40.8394C4.94515 40.1306 4.30102 39.0483 4.47305 37.7358C4.59308 36.819 5.14919 36.189 5.85732 35.6761C6.42944 35.2622 7.07156 34.9815 7.74369 34.7877C8.02975 34.7049 8.15378 34.5898 8.14577 34.2748C8.12577 33.4368 8.13377 32.5968 8.13777 31.7588C8.13777 31.5165 8.07176 31.3771 7.82171 31.2701C7.16158 30.9915 6.80951 30.4382 6.79951 29.7315C6.77551 27.8374 6.7455 25.9393 6.80951 24.0473C6.84952 22.9104 7.46564 21.9937 8.2778 21.2243C9.52604 20.0451 11.0703 19.4373 12.6687 18.9507C13.8449 18.5912 15.0471 18.3328 16.2634 18.1571C16.6234 18.1046 16.7115 18.0036 16.6854 17.628C16.5374 15.4735 17.7817 13.5471 19.698 12.9292C20.4922 12.6728 21.3144 12.6385 22.1025 12.9091C22.5386 13.0585 22.7786 12.7051 23.1247 12.6748C23.6468 12.6304 23.6148 12.2427 23.6608 11.8712C23.7308 11.3179 23.7228 10.7666 23.7128 10.2133C23.7028 9.65805 23.6548 9.61767 23.1927 9.89027C22.5266 10.284 21.8325 10.488 21.0643 10.3365C20.1321 10.1528 19.512 9.55507 19.0419 8.75747C18.4538 7.75995 18.4538 7.77813 19.55 7.4288C20.3882 7.16226 21.2123 7.00273 22.0745 7.3238C22.5406 7.49745 22.8787 7.81851 23.2167 8.15573C23.2847 8.22438 23.3388 8.31727 23.4908 8.32131C23.5708 8.00428 23.6828 7.67918 24.1069 7.70543C24.685 7.74178 24.487 8.28294 24.679 8.62419C25.5312 8.09111 26.4314 7.86899 27.4156 8.22842C28.5398 8.64035 29.1359 9.59546 29.8 10.4981C28.0157 11.4612 26.5334 11.8207 24.767 10.07L24.765 10.0781ZM26.6594 18.0541C26.3753 19.1748 25.9113 20.1965 25.0871 21.0244C24.9491 21.1638 24.9891 21.2607 25.1571 21.3132C25.3151 21.3616 25.4772 21.4061 25.6412 21.4263C28.2177 21.7514 30.2741 19.5665 29.862 16.9637C29.74 16.1924 29.474 15.5038 28.8778 14.9909C27.9977 14.2357 27.0135 13.9348 25.8853 14.3791C25.7092 14.4477 25.5032 14.4962 25.7332 14.7405C26.2273 15.2675 26.4674 15.9218 26.6534 16.6043C26.6554 17.0869 26.6594 17.5695 26.6614 18.0521L26.6594 18.0541ZM5.56127 37.7398C5.36323 38.598 5.7153 39.2462 6.68949 39.7853C7.73769 40.3648 8.88792 40.6334 10.0441 40.8616C13.4508 41.536 16.9035 41.7561 20.3642 41.8409C22.7326 41.8995 25.1031 41.9419 27.4716 41.7743C28.8958 41.6733 30.3241 41.6006 31.7464 41.4633C33.8548 41.2573 35.9552 40.9787 37.9916 40.3588C38.8158 40.1084 39.646 39.8398 40.2441 39.1553C40.6541 38.6848 40.8662 38.1639 40.5441 37.548C40.054 36.5 39.0638 36.1769 38.0896 35.8316C37.8916 35.7609 37.8276 35.9083 37.7556 36.0457C37.2315 37.0492 36.3793 37.6671 35.3571 38.0528C33.2187 38.8605 30.9622 39.0584 28.7158 39.2522C24.701 39.5975 20.6842 39.539 16.6734 39.1553C14.9551 38.9917 13.2428 38.7737 11.5824 38.2608C10.4842 37.9215 9.49404 37.4167 8.75589 36.4818C8.56986 36.2456 8.55785 35.7933 8.20178 35.7892C7.90773 35.7852 7.60567 35.975 7.31561 36.0982C7.08757 36.1951 6.86152 36.3061 6.65348 36.4414C6.16138 36.7605 5.69729 37.1138 5.56327 37.7418L5.56127 37.7398ZM36.6274 32.1081C36.3793 31.7487 36.1113 31.4014 35.9352 30.9834C34.571 32.1364 33.7348 32.1747 32.2745 31.1873C32.2185 31.151 32.1645 31.1106 32.1065 31.0783C31.4844 30.731 30.9062 30.947 30.6702 31.6195C30.6202 31.7608 30.5882 31.9082 30.5482 32.0536C30.2521 33.15 29.44 33.7901 28.3817 33.7619C27.3035 33.7336 26.4554 33.041 26.2233 31.9567C26.1293 31.5165 26.1073 31.0621 26.0513 30.6139C25.9953 30.1595 25.7332 29.9071 25.3051 29.7799C24.9491 29.6749 24.615 29.7375 24.2769 29.8324C23.2667 30.1171 22.2525 30.1757 21.2303 29.895C20.6502 29.7355 20.1081 29.4891 19.58 29.2024C19.1499 28.9702 18.9299 29.0974 18.8579 29.582C18.8139 29.8789 18.7959 30.1838 18.7258 30.4745C18.5058 31.4014 17.5736 32.0516 16.5814 31.993C15.5432 31.9304 14.7571 31.2338 14.639 30.2464C14.563 29.6143 14.531 28.9783 14.457 28.3462C14.373 27.6334 13.9989 27.1024 13.3068 26.9146C12.4366 26.6783 11.6245 26.8177 10.9723 27.5163C10.4522 28.0736 10.1742 28.744 10.0922 29.4972C10.0261 30.101 9.85011 30.6502 9.37001 31.044C9.17998 31.1994 9.18998 31.3832 9.19198 31.5831C9.19598 32.5564 9.21398 33.5276 9.19398 34.5009C9.17998 35.2521 9.48604 35.8235 10.0441 36.2859C10.6343 36.7746 11.3264 37.0512 12.0485 37.2612C14.201 37.8872 16.4194 38.0891 18.6398 38.2184C22.6906 38.4546 26.7434 38.4506 30.7802 37.9357C32.2125 37.7539 33.6528 37.5843 35.003 37.027C35.9352 36.6434 36.7374 36.1022 36.9834 35.0179C37.0734 34.2566 36.9914 33.4893 37.0354 32.728C37.0554 32.3908 36.9514 32.1909 36.6334 32.1021L36.6274 32.1081ZM17.6576 20.4348C17.5076 20.142 17.3016 19.8634 17.2176 19.5524C17.1095 19.1546 16.8995 19.1425 16.5654 19.201C15.2052 19.4333 13.8609 19.722 12.5466 20.1481C11.4024 20.5196 10.2942 20.9739 9.34401 21.7291C8.54785 22.3612 7.88972 23.1265 7.86972 24.2108C7.83371 26.0221 7.85772 27.8334 7.85772 29.6446C7.85772 29.7113 7.86372 29.7799 7.87772 29.8445C7.92973 30.0727 8.05776 30.2403 8.2918 30.2948C8.53385 30.3514 8.71188 30.2342 8.84191 30.0384C9.00594 29.794 9.02795 29.5093 9.07196 29.2266C9.25999 27.9989 9.78209 26.9651 10.8363 26.2624C12.3486 25.2527 15.0871 25.6627 15.4932 28.1706C15.5872 28.7521 15.6372 29.3337 15.6552 29.9213C15.6753 30.5291 16.0233 30.9046 16.5954 30.939C17.1915 30.9773 17.6496 30.632 17.7477 30.0646C17.7857 29.8506 17.7977 29.6325 17.8317 29.4164C18.0297 28.1746 18.9079 27.6637 19.9921 28.2534C21.4024 29.0207 22.8227 29.164 24.367 28.736C25.5732 28.4008 27.1535 29.0752 27.1395 30.8925C27.1395 31.0924 27.1715 31.2923 27.2035 31.4902C27.3315 32.2858 27.7116 32.6876 28.3497 32.7139C29.0019 32.7401 29.4359 32.3948 29.582 31.5892C29.866 30.0101 31.4944 29.3862 32.8526 30.3029C34.2029 31.2116 34.765 31.0076 35.2911 29.4811C35.4071 29.1438 35.6252 28.9359 35.9692 28.9015C36.2993 28.8672 36.5353 29.057 36.7154 29.3175C36.8514 29.5154 36.8794 29.7516 36.9154 29.9839C36.9594 30.2645 36.9914 30.5492 37.0734 30.8198C37.1695 31.1389 37.3615 31.4296 37.7396 31.3731C38.1096 31.3186 38.2997 31.0399 38.3157 30.6603C38.3257 30.4422 38.3277 30.2241 38.3277 30.0061C38.3297 28.429 38.2777 26.85 38.3497 25.277C38.4197 23.7625 37.7796 22.6641 36.6294 21.8039C35.0891 20.6529 33.2967 20.1016 31.4643 19.6655C30.4601 19.4252 30.4562 19.4373 30.0201 20.4005C29.9861 20.4368 29.948 20.4671 29.922 20.5075C28.6698 22.3652 26.3093 23.0154 24.2989 22.028C24.0309 21.8967 23.8429 21.9492 23.6088 22.0522C22.6706 22.4662 21.7004 22.5611 20.6922 22.3753C19.418 22.1391 18.4638 21.4061 17.6616 20.4288L17.6576 20.4348ZM21.6744 21.5191C23.1807 21.5494 25.0591 20.5055 25.6652 18.6599C26.2573 16.8627 25.5792 15.4957 24.739 14.8334C24.1269 14.3508 23.9529 14.3649 23.5288 15.0131C23.2487 15.4412 22.9287 15.7057 22.3786 15.6048C22.1365 15.5603 22.0485 15.4008 21.9685 15.2272C21.8765 15.0293 21.9765 14.8758 22.1485 14.7607C22.3005 14.6577 22.4446 14.5446 22.5946 14.4396C22.9107 14.2175 22.8367 14.0742 22.5226 13.9227C21.2263 13.3008 19.8041 13.5269 18.7859 14.5669C17.7357 15.6391 17.4976 16.9233 17.8477 18.3671C18.2938 20.2046 19.8701 21.5232 21.6744 21.5191ZM20.9983 7.88313C20.5942 7.81851 20.2001 8.05275 19.7761 8.10928C19.59 8.13352 19.646 8.23044 19.692 8.34958C20.1661 9.59142 21.8225 10.0518 22.9107 9.25218C23.0947 9.11689 23.0987 9.01997 22.9587 8.85641C22.4526 8.26073 21.8605 7.84274 20.9983 7.88313ZM27.3976 10.5728C27.7156 10.5829 28.0677 10.5001 28.4117 10.3688C28.5858 10.3022 28.6558 10.2093 28.5298 10.0336C27.7716 8.96545 26.7134 8.45054 25.4292 8.99776C25.1891 9.10074 25.1411 9.21584 25.3031 9.44199C25.8072 10.1487 26.4574 10.5788 27.3976 10.5748V10.5728ZM26.1653 13.5047C25.7132 13.2543 25.2851 13.1695 24.833 13.1897C24.695 13.1958 24.561 13.2099 24.507 13.3593C24.443 13.533 24.2069 13.7491 24.407 13.8843C24.663 14.058 24.9811 14.2438 25.3251 14.0277C25.5892 13.8621 25.8552 13.6966 26.1653 13.5027V13.5047Z" fill="#1A3B58"/>
<path d="M16.4054 11.4855C16.4014 11.6228 16.2874 11.7278 16.1614 11.8025C15.9714 11.9136 15.8193 12.0489 15.7093 12.2468C15.6253 12.3982 15.4513 12.5456 15.3032 12.4124C14.9892 12.1317 14.6851 11.8227 14.4451 11.4795C14.303 11.2755 15.2052 10.4294 15.4833 10.484C15.6093 10.5082 16.4014 11.3421 16.4034 11.4855H16.4054Z" fill="#FCFCFC"/>
<path d="M32.9747 12.695C33.1847 12.699 33.9289 13.5229 33.9209 13.743C33.9149 13.8984 33.1327 14.6617 32.9747 14.6637C32.8046 14.6658 32.0125 13.7914 32.0225 13.6137C32.0345 13.4199 32.7886 12.6909 32.9727 12.695H32.9747Z" fill="#FCFCFC"/>
<path d="M30.0181 20.4046C30.4542 19.4414 30.4582 19.4293 31.4624 19.6695C33.2947 20.1077 35.0871 20.657 36.6274 21.8079C37.7776 22.6661 38.4177 23.7646 38.3477 25.2811C38.2757 26.8541 38.3277 28.4331 38.3257 30.0101C38.3257 30.2282 38.3237 30.4463 38.3137 30.6644C38.2977 31.046 38.1077 31.3227 37.7376 31.3772C37.3595 31.4337 37.1675 31.1429 37.0715 30.8239C36.9895 30.5533 36.9595 30.2686 36.9135 29.9879C36.8774 29.7557 36.8494 29.5195 36.7134 29.3216C36.5334 29.0611 36.2973 28.8713 35.9673 28.9056C35.6232 28.9399 35.4052 29.1479 35.2891 29.4851C34.763 31.0097 34.2009 31.2156 32.8507 30.307C31.4904 29.3902 29.8621 30.0142 29.58 31.5932C29.436 32.4009 28.9999 32.7442 28.3478 32.718C27.7097 32.6917 27.3296 32.2899 27.2015 31.4943C27.1695 31.2964 27.1355 31.0945 27.1375 30.8966C27.1515 29.0793 25.5712 28.4048 24.365 28.74C22.8227 29.1681 21.4004 29.0247 19.9901 28.2574C18.9059 27.6678 18.0298 28.1787 17.8297 29.4205C17.7957 29.6346 17.7837 29.8547 17.7457 30.0687C17.6457 30.6361 17.1896 30.9814 16.5935 30.943C16.0234 30.9067 15.6733 30.5311 15.6533 29.9253C15.6353 29.3377 15.5853 28.7562 15.4913 28.1746C15.0852 25.6667 12.3466 25.2568 10.8343 26.2664C9.78013 26.9712 9.25803 28.003 9.06999 29.2307C9.02599 29.5134 9.00398 29.7981 8.83995 30.0425C8.70992 30.2363 8.53189 30.3554 8.28984 30.2989C8.0558 30.2444 7.92777 30.0768 7.87576 29.8486C7.86176 29.784 7.85376 29.7153 7.85576 29.6487C7.85576 27.8374 7.83375 26.0262 7.86776 24.2149C7.88976 23.1285 8.54589 22.3653 9.34205 21.7332C10.2942 20.978 11.4025 20.5217 12.5447 20.1522C13.8589 19.7261 15.2032 19.4373 16.5635 19.2051C16.8975 19.1486 17.1076 19.1587 17.2156 19.5565C17.2996 19.8674 17.5036 20.1461 17.6557 20.4389C17.6337 20.5742 17.5197 20.6065 17.4196 20.6691C16.7495 21.0972 16.7555 21.6242 17.4396 22.0018C17.6997 22.1452 17.9737 22.2724 18.2538 22.3713C19.5801 22.8418 20.9743 22.963 22.3586 23.0377C24.513 23.1507 26.6634 23.0316 28.7759 22.5389C29.336 22.4077 29.9101 22.2542 30.3622 21.8584C30.8423 21.4384 30.8143 21.0972 30.2962 20.7297C30.1741 20.6428 30.0301 20.5863 30.0121 20.4086L30.0181 20.4046ZM12.5227 22.0603C12.1426 22.0583 11.8465 22.0502 11.5505 22.129C11.3945 22.1694 11.3144 22.2703 11.3084 22.4077C11.2984 22.5773 11.4105 22.6924 11.5745 22.7186C11.7045 22.7388 11.8385 22.7247 11.9726 22.7247C13.9389 22.7247 15.8473 22.967 17.5597 24.0533C17.8037 24.2068 18.1038 24.5036 18.3218 24.1321C18.5238 23.7868 18.1118 23.6717 17.8957 23.5243C16.2454 22.4016 14.363 22.1552 12.5227 22.0603ZM28.5718 25.5537C29.9201 25.5496 31.1003 25.3982 32.2505 25.0428C32.4546 24.9802 32.7046 24.8974 32.6066 24.6046C32.5166 24.3381 32.2945 24.3684 32.0665 24.435C30.1341 25.0105 28.1717 24.9782 26.2014 24.6995C25.9513 24.6652 25.6953 24.6571 25.6372 24.9459C25.5692 25.2831 25.8753 25.3012 26.0953 25.3336C26.9655 25.4648 27.8377 25.5678 28.5718 25.5537Z" fill="#FCFCFC"/>
<path d="M36.6274 32.106C36.0773 32.7078 35.5612 33.3438 34.707 33.5498C34.0409 33.7093 33.4588 33.5801 32.9227 33.1742C32.8026 33.0833 32.6846 32.9925 32.5586 32.9097C31.8244 32.421 31.3844 32.6108 31.2323 33.4791C30.9603 35.0299 30.1501 35.9386 28.6258 36.1708C27.1255 36.399 25.8553 35.5327 25.5472 34.0485C25.4832 33.7396 25.4512 33.4185 25.4432 33.1035C25.4192 32.1323 24.8391 31.3872 23.8929 31.2337C23.4268 31.157 22.9587 31.06 22.4626 31.1792C21.9605 31.3003 21.4384 31.1651 20.9323 31.0782C20.1822 30.947 19.9421 31.0863 19.7621 31.8455C19.502 32.9501 18.8339 33.7255 17.8537 34.2222C16.0654 35.1309 14.131 33.9375 14.061 31.9122C14.041 31.3448 14.113 30.7753 13.9969 30.2079C13.9349 29.9071 13.8169 29.6385 13.7029 29.3598C13.2388 28.227 11.8405 28.1564 11.1804 29.172C10.5383 30.1615 10.2422 31.3226 10.0902 32.4816C9.95216 33.5235 10.2882 33.9415 11.2804 34.3474C11.5165 34.4443 11.7445 34.5493 11.7625 34.8583C11.7785 35.1127 11.6285 35.2702 11.4344 35.3792C11.2424 35.4883 11.0504 35.4156 10.8603 35.3328C10.6823 35.254 10.4423 35.1127 10.3302 35.3409C10.2062 35.5933 10.5103 35.666 10.6603 35.7568C11.4525 36.2334 12.3306 36.504 13.2168 36.7241C15.6073 37.3137 18.0457 37.5237 20.4982 37.6711C22.5266 37.7922 24.555 37.8003 26.5754 37.7216C29.292 37.6186 31.9985 37.3238 34.621 36.5342C35.3071 36.3263 35.9553 36.0274 36.4454 35.46C36.5934 35.2884 36.7254 35.0784 36.9775 35.0259C36.7314 36.1102 35.9292 36.6514 34.9971 37.035C33.6468 37.5923 32.2065 37.7599 30.7742 37.9437C26.7374 38.4586 22.6847 38.4626 18.6339 38.2264C16.4154 38.0971 14.195 37.8952 12.0426 37.2693C11.3204 37.0593 10.6283 36.7826 10.0382 36.294C9.48006 35.8315 9.174 35.2581 9.18801 34.5089C9.20601 33.5377 9.18801 32.5644 9.18601 31.5911C9.18601 31.3912 9.176 31.2075 9.36404 31.052C9.84414 30.6582 10.0202 30.109 10.0862 29.5052C10.1682 28.752 10.4463 28.0816 10.9664 27.5243C11.6185 26.8257 12.4326 26.6863 13.3008 26.9226C13.9929 27.1104 14.367 27.6415 14.451 28.3542C14.5271 28.9863 14.5571 29.6223 14.6331 30.2544C14.7511 31.2438 15.5373 31.9404 16.5755 32.001C17.5676 32.0616 18.4998 31.4094 18.7199 30.4825C18.7899 30.1918 18.8079 29.8869 18.8519 29.59C18.9239 29.1054 19.146 28.9782 19.574 29.2104C20.1021 29.4951 20.6443 29.7435 21.2244 29.903C22.2466 30.1817 23.2608 30.1251 24.271 29.8404C24.609 29.7455 24.9431 29.6829 25.2992 29.7879C25.7273 29.9151 25.9893 30.1696 26.0453 30.6219C26.1013 31.0701 26.1233 31.5245 26.2173 31.9647C26.4494 33.049 27.2976 33.7416 28.3758 33.7699C29.434 33.7982 30.2461 33.156 30.5422 32.0616C30.5822 31.9162 30.6142 31.7688 30.6642 31.6275C30.9003 30.9571 31.4764 30.741 32.1005 31.0863C32.1585 31.1186 32.2125 31.157 32.2685 31.1953C33.7288 32.1828 34.565 32.1444 35.9292 30.9914C36.1053 31.4074 36.3713 31.7547 36.6214 32.1161L36.6274 32.106Z" fill="#E0B8AF"/>
<path d="M40.5422 37.546C40.8642 38.1618 40.6522 38.6828 40.2421 39.1533C39.644 39.8378 38.8138 40.1064 37.9897 40.3568C35.9533 40.9767 33.8528 41.2553 31.7444 41.4613C30.3221 41.6006 28.8959 41.6733 27.4696 41.7723C25.1011 41.9399 22.7307 41.8975 20.3622 41.8389C16.9015 41.7541 13.4488 41.534 10.0422 40.8596C8.88595 40.6314 7.73572 40.3628 6.68752 39.7833C5.71333 39.2462 5.36326 38.596 5.55929 37.7378C6.5955 38.3133 7.68971 38.7555 8.83594 39.0382C12.3426 39.9024 15.9273 40.2174 19.518 40.3325C22.2186 40.4214 24.9271 40.4375 27.6336 40.28C29.718 40.1589 31.7924 39.9852 33.8548 39.6581C35.6892 39.3673 37.5196 39.0564 39.2499 38.3456C39.72 38.1517 40.2241 37.9942 40.5422 37.5439V37.546Z" fill="#FEF5F1"/>
<path d="M40.5421 37.5459C40.2241 37.9962 39.72 38.1537 39.2499 38.3475C37.5175 39.0603 35.6892 39.3693 33.8548 39.6601C31.7924 39.9872 29.718 40.1608 27.6336 40.282C24.9271 40.4395 22.2185 40.4233 19.518 40.3345C15.9273 40.2174 12.3446 39.9044 8.83591 39.0401C7.68968 38.7574 6.59547 38.3152 5.55927 37.7397C5.69529 37.1118 6.15738 36.7584 6.64948 36.4393C6.85752 36.3041 7.08356 36.193 7.31161 36.0961C7.60167 35.9729 7.90372 35.7851 8.19778 35.7871C8.55385 35.7912 8.56585 36.2415 8.75189 36.4797C9.49004 37.4146 10.4802 37.9215 11.5784 38.2587C13.2388 38.7716 14.9511 38.9897 16.6694 39.1532C20.6802 39.5369 24.697 39.5954 28.7118 39.2501C30.9582 39.0563 33.2147 38.8584 35.3531 38.0507C36.3733 37.665 37.2275 37.0471 37.7516 36.0436C37.8216 35.9083 37.8876 35.7609 38.0856 35.8295C39.0598 36.1748 40.05 36.4959 40.5401 37.5459H40.5421Z" fill="#E0B8AF"/>
<path d="M21.6745 21.5171C19.8701 21.5211 18.2938 20.2046 17.8477 18.3651C17.4977 16.9213 17.7357 15.637 18.7859 14.5648C19.8041 13.5249 21.2264 13.2987 22.5226 13.9207C22.8367 14.0721 22.9107 14.2155 22.5947 14.4376C22.4446 14.5426 22.3006 14.6557 22.1486 14.7587C21.9765 14.8738 21.8785 15.0272 21.9685 15.2251C22.0485 15.3988 22.1366 15.5583 22.3786 15.6027C22.9287 15.7037 23.2468 15.4392 23.5288 15.0111C23.9529 14.3649 24.125 14.3508 24.7391 14.8314C25.5812 15.4937 26.2574 16.8607 25.6653 18.6578C25.0591 20.5034 23.1808 21.5454 21.6745 21.5171ZM23.0948 16.6871C22.8127 16.6891 22.5326 16.6972 22.2606 16.79C21.7125 16.9778 21.5965 17.3857 21.9785 17.8259C22.2326 18.1167 22.5406 18.3449 22.8787 18.5266C23.4268 18.8214 24.0369 18.7164 24.459 18.254C24.9071 17.7633 24.8051 17.1858 24.207 16.9031C23.8569 16.7396 23.4808 16.679 23.0948 16.685V16.6871Z" fill="#E52958"/>
<path d="M26.6515 16.6063C26.4654 15.9238 26.2274 15.2695 25.7313 14.7425C25.5032 14.4982 25.7073 14.4497 25.8833 14.3811C27.0115 13.9368 27.9977 14.2377 28.8759 14.9929C29.472 15.5058 29.7381 16.1923 29.8601 16.9657C30.2722 19.5685 28.2158 21.7534 25.6393 21.4283C25.4752 21.4081 25.3132 21.3636 25.1552 21.3152C24.9871 21.2627 24.9471 21.1637 25.0851 21.0264C25.9093 20.1965 26.3734 19.1748 26.6555 18.0561C27.5676 18.2197 28.2138 18.0036 28.5398 17.4221C28.6919 17.1515 28.7919 16.8748 28.5998 16.574C28.4138 16.2812 28.1257 16.2287 27.8177 16.2448C27.3996 16.2691 26.9995 16.3619 26.6475 16.6083L26.6515 16.6063Z" fill="#E52958"/>
<path d="M30.0181 20.4045C30.0341 20.5822 30.1781 20.6388 30.3021 20.7256C30.8202 21.0911 30.8482 21.4344 30.3681 21.8544C29.916 22.2501 29.3419 22.4036 28.7818 22.5349C26.6694 23.0276 24.519 23.1467 22.3646 23.0336C20.9803 22.9609 19.588 22.8398 18.2598 22.3673C17.9797 22.2683 17.7056 22.1411 17.4456 21.9977C16.7615 21.6201 16.7535 21.0931 17.4256 20.665C17.5236 20.6024 17.6376 20.5701 17.6616 20.4348C18.4638 21.4121 19.418 22.1431 20.6922 22.3814C21.7004 22.5692 22.6706 22.4723 23.6088 22.0583C23.8429 21.9553 24.0309 21.9028 24.2989 22.0341C26.3093 23.0215 28.6698 22.3713 29.922 20.5136C29.948 20.4732 29.9881 20.4429 30.0201 20.4066L30.0181 20.4045Z" fill="#E0B8AF"/>
<path d="M20.9963 7.88105C21.8585 7.84066 22.4506 8.25663 22.9567 8.85433C23.0967 9.01789 23.0927 9.11481 22.9087 9.2501C21.8205 10.0497 20.1641 9.58732 19.69 8.3475C19.644 8.22836 19.588 8.13346 19.7741 8.1072C20.1981 8.05067 20.5922 7.81643 20.9963 7.88105Z" fill="#568E35"/>
<path d="M27.3956 10.5707C26.4554 10.5747 25.8073 10.1446 25.3012 9.43789C25.1391 9.21173 25.1871 9.09663 25.4272 8.99365C26.7114 8.44643 27.7697 8.96134 28.5278 10.0295C28.6538 10.2052 28.5818 10.2981 28.4098 10.3647C28.0657 10.498 27.7136 10.5788 27.3956 10.5687V10.5707Z" fill="#568E35"/>
<path d="M26.6514 16.6063C27.0035 16.3599 27.4056 16.2671 27.8217 16.2428C28.1297 16.2247 28.4178 16.2772 28.6038 16.572C28.7959 16.8728 28.6938 17.1495 28.5438 17.4201C28.2177 18.0016 27.5716 18.2156 26.6594 18.0541C26.6574 17.5715 26.6534 17.0889 26.6514 16.6063Z" fill="#FEF5F1"/>
<path d="M26.1633 13.5027C25.8533 13.6966 25.5872 13.8622 25.3232 14.0277C24.9791 14.2438 24.661 14.058 24.405 13.8844C24.2029 13.7491 24.441 13.533 24.505 13.3594C24.559 13.2099 24.693 13.1958 24.8311 13.1897C25.2852 13.1675 25.7112 13.2544 26.1633 13.5047V13.5027Z" fill="#E52958"/>
<path d="M12.5226 22.0623C14.363 22.1572 16.2474 22.4035 17.8957 23.5262C18.1117 23.6736 18.5238 23.7867 18.3218 24.134C18.1037 24.5056 17.8017 24.2087 17.5596 24.0553C15.8473 22.9689 13.9389 22.7266 11.9725 22.7266C11.8405 22.7266 11.7045 22.7407 11.5744 22.7205C11.4104 22.6943 11.3004 22.5792 11.3084 22.4096C11.3164 22.2723 11.3964 22.1713 11.5504 22.1309C11.8445 22.0522 12.1426 22.0602 12.5226 22.0623Z" fill="#1A3B58"/>
<path d="M28.5718 25.5556C27.8376 25.5677 26.9635 25.4648 26.0953 25.3355C25.8753 25.3032 25.5692 25.2871 25.6372 24.9478C25.6952 24.6591 25.9513 24.6651 26.2013 24.7015C28.1717 24.9801 30.1341 25.0124 32.0665 24.437C32.2945 24.3683 32.5166 24.34 32.6066 24.6066C32.7046 24.8994 32.4526 24.9822 32.2505 25.0447C31.1003 25.4001 29.9201 25.5516 28.5718 25.5556Z" fill="#1A3B58"/>
<path d="M36.6274 32.1061C36.0772 32.7078 35.5611 33.3439 34.707 33.5498C34.0408 33.7094 33.4587 33.5801 32.9226 33.1743C32.8026 33.0834 32.6846 32.9925 32.5586 32.9097C31.8244 32.4211 31.3843 32.6109 31.2323 33.4792C30.9602 35.03 30.1501 35.9386 28.6258 36.1708C27.1255 36.399 25.8552 35.5327 25.5472 34.0486C25.4832 33.7396 25.4512 33.4186 25.4432 33.1036C25.4192 32.1323 24.839 31.3872 23.8929 31.2338C23.4268 31.157 22.9587 31.0601 22.4626 31.1792C21.9605 31.3004 21.4384 31.1651 20.9323 31.0783C20.1821 30.947 19.9421 31.0864 19.762 31.8456C19.502 32.9501 18.8339 33.7255 17.8537 34.2223C16.0653 35.1309 14.1309 33.9375 14.0609 31.9122C14.0409 31.3448 14.1129 30.7754 13.9969 30.208C13.9349 29.9071 13.8169 29.6385 13.7029 29.3599C13.2388 28.2271 11.8405 28.1564 11.1804 29.1721C10.5382 30.1636 10.2422 31.3226 10.0901 32.4817C9.95212 33.5236 10.2882 33.9416 11.2804 34.3474C11.5164 34.4444 11.7445 34.5494 11.7625 34.8583C11.7785 35.1127 11.6284 35.2702 11.4344 35.3793C11.2424 35.4883 11.0503 35.4156 10.8603 35.3328C10.6823 35.2541 10.4422 35.1127 10.3302 35.3409C10.2062 35.5933 10.5102 35.666 10.6603 35.7569C11.4524 36.2334 12.3306 36.504 13.2168 36.7241C15.6072 37.3137 18.0457 37.5237 20.4982 37.6711C22.5266 37.7923 24.555 37.8004 26.5754 37.7216C29.2919 37.6186 31.9984 37.3238 34.621 36.5343C35.3071 36.3263 35.9552 36.0275 36.4453 35.4601C36.5933 35.2884 36.7254 35.0784 36.9774 35.0259C37.0674 34.2626 36.9854 33.4973 37.0294 32.7361C37.0494 32.3989 36.9454 32.199 36.6274 32.1101V32.1061Z" fill="#FEF5F1"/>
<path d="M23.0947 16.685C23.4808 16.6789 23.8589 16.7375 24.2069 16.9031C24.8051 17.1837 24.9071 17.7633 24.459 18.254C24.0369 18.7164 23.4268 18.8214 22.8787 18.5266C22.5386 18.3448 22.2306 18.1166 21.9785 17.8259C21.5964 17.3857 21.7125 16.9778 22.2606 16.79C22.5326 16.6971 22.8127 16.689 23.0947 16.687V16.685Z" fill="#FEF5F1"/>
</g>
<path d="M61.5783 23.0446C61.0183 23.5006 59.9747 24.1592 59.6693 24.1845C59.1347 24.2605 58.6511 24.4125 58.1421 24.4125C57.9639 24.4631 57.7094 24.4125 57.4548 24.4125H57.1748C57.1239 25.1977 56.9712 26.5149 56.9458 27.3001C56.9203 27.8574 56.7676 28.516 56.793 28.9972C56.8185 29.2505 56.6912 30.6184 56.6912 30.593C56.5385 30.745 56.1567 30.6944 55.9022 30.7957C55.5458 30.7957 55.2658 30.8463 55.0113 30.8463C55.0622 30.0104 55.0113 28.44 55.0113 27.3508C55.0113 26.8695 55.1131 26.2616 55.0877 25.7296V23.7032C55.1131 23.4499 55.0622 22.918 55.0622 22.6647C55.0113 21.7275 55.1131 20.6636 55.0368 19.929C54.9859 19.4731 55.0113 18.9411 55.0113 18.4599C55.0113 17.8266 54.9859 17.1933 55.0113 16.5348C55.0113 16.2055 55.0368 15.8508 55.0113 15.5469C55.164 15.3949 55.4186 15.3949 55.5458 15.3949C56.3349 15.2682 57.8875 15.3189 58.702 15.4456C59.0838 15.4709 59.4911 15.5722 59.9492 15.6482C60.1274 15.6735 60.2801 15.6989 60.4329 15.7495C61.3237 16.2055 62.011 16.7374 62.4182 17.4466C62.6218 17.7506 62.8509 18.1812 62.9018 18.7132V20.4103C62.8509 20.8156 62.6728 21.4741 62.4691 21.8794C62.2146 22.3607 61.9855 22.6393 61.5783 23.0446ZM59.5929 18.4092C59.542 18.2319 59.0329 17.624 58.5239 17.472L58.2439 17.4213C57.7348 17.2693 57.3785 17.2187 57.0221 17.244C57.0221 17.5733 56.9967 17.9279 56.9967 18.3079C56.9967 18.9918 56.9967 19.701 56.9458 20.2076C56.9712 20.7902 56.9967 21.0942 56.9967 21.6515C56.9967 21.9808 56.9458 22.766 56.9967 22.8673C57.1494 22.918 57.5566 22.918 58.0403 22.842C58.193 22.8167 58.7784 22.6647 59.0838 22.3607C59.4147 22.0314 59.5929 21.4995 59.7711 20.9929C59.9238 19.9797 59.7711 18.8905 59.5929 18.4092Z" fill="black"/>
<path d="M65.3707 29.3236C65.218 29.1463 65.0653 29.0703 65.0399 28.9183C64.8108 28.4117 64.4544 28.1078 64.3526 27.6265C64.2508 27.1706 64.149 26.6386 64.0981 26.208C64.0981 25.7521 64.0472 25.3721 64.0472 24.8908C64.0472 24.3842 64.1235 24.0296 64.1235 23.523C64.1235 23.1937 64.0981 22.8138 64.0981 22.4845V22.1298C64.0981 21.8259 64.1745 21.4966 64.1745 21.1673C64.5817 21.142 65.2944 21.1673 65.5998 21.1673C65.7016 21.1926 66.1853 21.142 66.3125 21.142C66.4652 21.142 67.2543 21.142 67.407 21.1673C67.407 21.1673 67.3307 21.5979 67.3307 21.7499C67.3307 22.2058 67.2797 22.5605 67.2797 22.9657C67.2797 23.371 67.3816 25.6507 67.4579 26.056C67.4579 26.3853 67.4834 26.5626 67.5088 26.8919C67.5343 27.2466 67.7379 27.5252 67.8143 27.6012L67.967 28.0065L68.3233 28.4624C68.5524 28.7664 69.0106 28.7664 69.3924 28.741L69.9778 28.6904C70.2578 28.665 70.6396 28.2091 70.8941 28.0571C71.0468 27.9051 71.1741 27.5252 71.2759 27.1959C71.3014 27.1452 71.5813 25.9041 71.5813 25.8281C71.6068 25.5494 71.6577 25.1948 71.6323 24.9162C71.5814 24.6122 71.6832 24.2069 71.6832 23.8776C71.6832 23.599 71.7341 23.219 71.7595 23.0417C71.7595 23.0924 71.8104 22.2818 71.785 22.2058C71.7595 22.0032 71.6832 21.8259 71.6832 21.6232C71.6832 21.5219 71.7341 21.4206 71.7341 21.3193H72.2686C72.3959 21.3193 72.5231 21.3699 72.5995 21.3699C72.9304 21.3699 73.1849 21.3953 73.3376 21.3699C73.4904 21.3193 73.5667 21.3446 73.7449 21.3193C73.9994 21.3699 74.1521 21.2939 74.4576 21.3193C74.483 21.4966 74.4067 21.8259 74.4067 22.1298C74.4067 22.7631 74.4321 23.447 74.4067 24.1056C74.3812 24.4602 74.4067 24.8149 74.3558 25.1441C74.3558 25.2455 74.3303 26.0054 74.3558 26.0814C74.483 26.8159 74.3049 28.4117 74.3303 29.1463C74.3303 29.6529 74.3812 30.1342 74.3812 30.6408C73.5667 30.7928 72.8286 30.7421 72.0141 30.7928C71.9632 30.7168 71.9377 30.6408 71.9377 30.4635C71.9377 30.2862 71.9122 30.1595 71.8868 30.0075C71.8613 29.8556 71.8359 29.6276 71.8359 29.6276C71.785 29.6276 71.6068 29.8809 71.4541 29.9316C71.1232 30.0835 70.7923 30.2862 70.4614 30.3368C69.7996 30.6408 68.9342 30.6408 68.0688 30.6408C67.5597 30.6408 67.2288 30.4382 66.8979 30.2608C66.3634 30.0582 65.6253 29.5263 65.3707 29.3236Z" fill="black"/>
<path d="M76.1884 25.5016C76.2139 25.1977 76.2139 24.8937 76.2139 24.5644L76.1375 22.5126V21.3728C76.4939 21.3728 76.9011 21.3475 77.4102 21.3981C77.4102 21.3981 77.792 21.4234 77.9702 21.4234C78.1992 21.4741 78.1229 21.4488 78.2247 21.4994C78.2247 21.6514 78.1738 21.7021 78.1738 21.8794V22.69C78.301 22.5126 78.301 22.4367 78.4792 22.2593L78.6319 22.2087C79.0646 21.7781 79.7773 21.6768 80.4137 21.7274C80.5409 21.7274 80.8973 21.8541 81.2027 22.0314C81.4827 22.082 81.5845 22.2087 81.5845 22.2087C81.9154 22.5126 82.2718 22.69 82.399 23.0193C82.7299 23.5005 82.9081 24.0325 83.0863 24.6657C83.0863 24.843 83.0863 24.995 82.9081 24.995C82.399 25.1723 82.0681 25.0963 81.3554 25.147H81.0754C81.0245 25.1217 80.9991 25.0203 80.9991 24.995C80.9736 24.7924 80.8973 24.6404 80.8973 24.5391C80.8973 24.3618 80.7446 24.1591 80.7446 24.1591C80.4137 23.8298 80.1337 23.6778 79.8028 23.6778C79.7264 23.6778 79.5992 23.6778 79.4973 23.7285C79.3446 23.7792 78.9119 23.9818 78.8101 24.0831C78.6319 24.2604 78.4283 24.4377 78.3265 24.6657C78.301 24.7924 78.2756 25.223 78.2756 25.299C78.2247 25.6029 78.1229 26.2109 78.1229 26.5655C78.1229 26.7935 78.0465 27.2241 78.0465 27.528C78.0465 27.756 78.0211 27.9586 78.0211 28.1613V29.1238C78.0211 29.3265 77.9956 29.5798 77.9956 29.8078V30.365C77.1556 30.5423 76.5702 30.5423 76.2393 30.365C76.163 30.137 76.1375 29.6811 76.163 29.6051C76.2393 28.9972 76.163 28.3893 76.163 27.756C76.1375 27.4267 76.1884 27.0214 76.1884 26.7175C76.1884 26.4895 76.2139 25.9322 76.1884 25.5016Z" fill="black"/>
<path d="M92.0713 25.7521C91.9695 25.8534 91.7149 25.8787 91.5622 25.8787C91.3331 25.9294 90.9259 25.9294 90.6968 25.9294C90.2387 25.9294 90.1114 25.9547 89.5769 26.0054L88.0497 26.132V26.436C88.0497 26.8159 88.126 27.1706 88.406 27.5252C88.5587 27.7785 88.8387 28.0571 89.0678 28.1331C89.0678 28.1331 89.5769 28.3611 89.8059 28.3358C90.7223 28.3358 90.9768 28.1078 91.5877 27.8038C91.7149 27.8038 91.8931 27.6012 91.9695 27.5758C92.1222 27.5252 92.5549 27.1452 92.7076 27.0692C92.8094 27.1452 92.7331 27.6265 92.784 27.9558C92.784 27.9558 92.8094 28.4117 92.784 28.741C92.4276 29.121 92.5804 29.0197 92.1476 29.425C91.8168 29.7542 91.5113 29.9316 91.1804 30.0329C90.7986 30.2355 90.2896 30.2862 90.035 30.3875C89.755 30.4382 89.3987 30.4382 89.3987 30.4382C88.7624 30.4382 88.1515 30.4888 87.4897 30.1595C87.2606 30.1849 86.7006 29.9569 86.5734 29.8049C86.217 29.6023 85.9371 29.2476 85.6062 29.0197C85.148 28.6904 84.9953 28.3104 84.8171 27.9051C84.6389 27.6012 84.5117 27.1959 84.3844 26.8413C84.3844 26.4866 84.3589 26.132 84.3589 25.8027V24.8655C84.3589 24.2576 84.6644 23.295 85.0207 22.6871C85.0207 22.6871 85.3007 22.3831 85.6316 22.0539C85.7334 22.0285 85.8352 21.9525 86.0643 21.8259C86.1661 21.7752 86.3188 21.5473 86.5734 21.4713C86.9552 21.3446 87.3115 21.142 87.4897 21.142C87.7188 21.142 88.4569 21.1926 89.0424 21.218C89.3478 21.2433 89.5514 21.3446 89.6532 21.3446C89.9078 21.3699 90.0859 21.3953 90.2896 21.4713C90.9004 21.6739 91.1295 21.9019 91.3332 22.1298C91.4604 22.2818 91.5877 22.5605 91.7149 22.7124C91.8677 22.9151 92.0458 23.3204 92.1222 23.6497C92.1986 23.9283 92.224 24.4349 92.224 24.7642C92.224 25.0935 92.1986 25.1948 92.1986 25.4988C92.1986 25.5748 92.1477 25.6761 92.0713 25.7521ZM89.9587 23.6497C89.6787 23.219 89.0933 23.1684 88.7369 23.2444C88.5078 23.295 88.4824 23.3964 88.3551 23.599C88.3042 23.6497 88.2788 23.7257 88.2024 23.8016C88.1515 23.8776 88.126 24.0043 88.1006 24.1056C88.0497 24.2576 88.0497 24.2829 88.1006 24.5362C88.3551 24.6882 89.8569 24.6882 90.1114 24.5362C90.1368 24.5109 90.0096 24.3589 90.0096 24.0296C90.0096 23.9536 90.0096 23.7256 89.9587 23.6497Z" fill="black"/>
<path d="M97.0347 23.9818C96.9838 24.1591 96.9838 24.2858 96.9838 24.4631C96.9838 24.6657 97.0347 25.4003 97.0347 25.6283V26.1856C97.0347 26.4895 97.0602 26.7935 97.0602 27.0974C97.0602 27.3254 97.0092 27.5534 97.0347 27.7814C97.0347 27.984 97.0856 28.1613 97.0856 28.3639V30.669C97.0856 30.8463 97.1874 31.049 97.0856 31.0236C96.7547 31.0236 96.2457 31.1503 95.8893 31.1503C95.5839 31.1503 95.4057 31.1503 95.0493 30.973V30.6437C94.8966 30.0104 94.8966 29.5038 94.8966 29.0225C94.8966 28.6679 94.8712 28.3386 94.9475 28.0093C94.9475 27.9587 94.9475 27.8827 94.8966 27.8067C94.8712 27.7307 94.8712 27.1228 94.8712 27.0214V25.9576C94.8712 25.5523 94.8457 25.147 94.8966 24.7417C94.9475 24.6911 95.0239 23.3739 95.0239 23.2219C95.0493 22.69 95.0239 22.1327 95.0493 21.6261C95.0493 20.6636 95.0239 19.7263 95.0493 18.7891C95.0493 18.1812 95.0493 17.5986 95.0239 17.016C94.973 16.3828 95.1003 16.4587 95.0493 15.8002C95.0493 15.4709 95.1002 15.1416 95.1002 14.8376C95.1002 14.5083 95.0748 14.3057 95.0748 13.9764L95.2021 13.8497C95.533 13.8497 95.9911 13.9004 96.2966 13.8751C96.5765 13.8497 96.6275 13.8497 96.9074 13.8497C96.9838 13.8497 97.0856 13.9004 97.1111 13.9257C97.1874 15.0403 97.0602 16.0788 97.0602 17.2693V19.0424C97.0347 20.2583 96.9583 21.2715 96.9583 22.2847C96.9583 22.6393 97.0092 23.0699 97.0092 23.4246C97.0347 23.5005 97.0347 23.8552 97.0347 23.9818Z" fill="black"/>
<path d="M103.169 28.3612C103.042 28.1838 102.889 27.8799 102.736 27.7532C102.278 27.4493 101.413 25.9041 100.904 25.2962C100.776 24.9922 100.445 24.7136 100.293 24.4096C100.14 24.2323 100.013 24.0803 99.8346 23.9537C99.8346 23.8017 99.6819 23.4724 99.5292 23.3204C99.3764 23.1938 99.071 22.8645 98.9183 22.5605V22.2566C99.2237 21.9526 99.6819 21.8006 100.013 21.4967L100.293 21.1927C100.445 21.0407 100.598 21.0407 100.776 20.9141L100.904 21.0407C101.158 21.294 101.184 21.4713 101.387 21.674C101.54 21.674 101.744 22.1806 101.82 22.2566C101.998 22.4339 101.998 22.5605 102.151 22.8645C102.507 23.3458 102.787 23.8017 103.169 24.2323C103.347 24.4096 103.347 24.5616 103.5 24.7136C103.856 24.9416 103.958 25.3215 104.263 25.5748L104.722 26.0561C104.976 25.6508 105.205 25.2962 105.485 24.9922C105.791 24.7136 105.969 24.2323 106.223 23.8017C106.427 23.3711 106.758 22.9658 106.987 22.4339C107.14 22.1046 107.318 21.9526 107.318 21.8006C107.623 21.4967 107.751 21.1927 107.929 21.0407H108.234C108.438 21.1167 109.609 22.0793 109.609 22.2566C109.532 22.7125 108.921 23.1431 108.692 23.6497C108.692 23.8017 108.514 23.9537 108.514 23.9537C108.387 24.2323 108.081 24.5616 107.929 24.8149C107.751 25.1442 107.623 25.4482 107.471 25.5748C107.318 25.9041 106.962 26.3601 106.86 26.664C106.682 27.1453 106.554 27.1706 106.376 27.4239C106.376 27.4239 106.3 27.6012 106.223 27.6012C106.122 27.7532 106.122 27.8799 105.969 28.0319C105.791 28.3612 105.638 28.6145 105.485 28.9437C105.358 29.0957 105.18 29.3744 105.027 29.7037C104.722 30.0076 104.416 30.3116 104.263 30.7675C103.805 31.5021 103.169 32.338 103.042 32.566C102.838 33.1486 102.354 33.7312 101.998 34.0858C101.82 34.4151 101.54 34.6937 101.387 35.175C101.209 35.4536 100.904 35.7829 100.776 36.0869C100.658 36.1713 100.547 36.1713 100.445 36.0869C100.14 35.9349 99.8346 35.7829 99.5292 35.4536C99.3764 35.327 99.071 35.0737 99.071 35.023C99.0201 34.9723 99.6819 34.0858 100.013 33.8072V33.6552C100.293 33.3259 100.598 32.8953 100.904 32.566C101.209 31.9834 101.54 31.5528 101.998 30.9195C101.998 30.7675 102.151 30.4636 102.304 30.3116C102.584 29.7796 103.016 29.3237 103.169 28.7664C103.169 28.7664 103.347 28.6145 103.347 28.5131L103.169 28.3612Z" fill="black"/>
<path d="M117.575 28.3864C117.601 28.3104 117.626 28.1078 117.601 28.0065L117.525 27.2212C117.499 26.9426 117.55 26.664 117.55 26.36C117.525 26.2334 117.55 26.1067 117.55 25.9801C117.525 25.6254 117.677 25.1695 117.601 24.8149C117.575 24.7642 117.626 24.2069 117.626 24.1309C117.652 23.8017 117.652 23.4724 117.626 23.1177C117.626 22.3325 117.626 21.6992 117.677 21.2686C117.703 21.1166 117.703 20.838 117.703 20.5594C117.677 20.1794 117.652 19.7235 117.652 19.2929C117.652 18.533 117.626 18.001 117.601 17.2411C117.601 16.9625 117.55 16.7092 117.575 16.4559C117.575 16.3799 117.575 16.0253 117.601 15.9493C117.601 15.9493 117.601 15.8226 117.754 15.8226H119.586C120.07 15.8226 120.579 15.8226 120.986 15.848C121.343 15.8733 121.826 16.0506 122.106 16.1519C122.997 16.4559 123.226 16.5572 123.557 16.8358C124.168 17.3171 124.931 17.5198 125.491 18.6343C125.695 19.0396 126.077 19.4702 126.051 19.9515C126.204 20.4581 126.179 20.8127 126.331 21.1166C126.51 21.8512 126.51 22.7125 126.331 23.3964C126.357 23.8523 126.179 24.3336 126.153 24.8149C126.102 25.6001 125.899 25.6508 125.721 26.1827C125.67 26.36 125.084 27.1706 125.008 27.3479C124.804 27.9052 124.499 28.0318 123.99 28.5637C123.786 28.7917 123.022 29.501 122.743 29.6783C122.488 29.8049 121.241 30.5395 121.012 30.5648C120.324 30.6155 118.695 30.7168 118.008 30.7168H117.728C117.55 30.5648 117.55 30.4382 117.55 30.4382V29.0197C117.575 28.817 117.525 28.6144 117.575 28.3864ZM119.459 28.4371C120.452 28.3864 120.986 28.1331 121.699 27.6012C122.157 27.2719 122.284 26.8666 122.463 26.4613C122.641 26.1574 122.743 25.7014 122.87 25.3468C122.921 25.1442 123.099 24.7135 123.099 24.4349C123.099 24.2829 123.226 23.599 123.201 23.447V22.9911C123.201 22.3832 123.302 21.7246 123.201 20.686V20.5341C123.124 19.6475 122.666 19.1662 122.106 18.5076C121.826 18.1783 121.597 18.077 120.706 17.7731C120.426 17.6717 119.866 17.6211 119.51 17.5957C119.459 17.6971 119.459 17.7731 119.459 17.7731V17.9757C119.408 18.3303 119.434 18.9636 119.434 19.4449C119.434 20.0021 119.51 20.7874 119.434 21.5726C119.434 21.7499 119.408 21.9525 119.408 22.1299C119.434 22.5605 119.357 23.0164 119.459 23.4724C119.383 24.1816 119.484 24.8909 119.459 25.6001C119.434 26.4107 119.434 27.6265 119.459 28.4371Z" fill="black"/>
<path d="M135.978 25.7521C135.876 25.8534 135.622 25.8787 135.469 25.8787C135.24 25.9294 134.833 25.9294 134.604 25.9294C134.146 25.9294 134.018 25.9547 133.484 26.0054L131.957 26.132V26.436C131.957 26.8159 132.033 27.1706 132.313 27.5252C132.466 27.7785 132.746 28.0571 132.975 28.1331C132.975 28.1331 133.484 28.3611 133.713 28.3358C134.629 28.3358 134.884 28.1078 135.495 27.8038C135.622 27.8038 135.8 27.6012 135.876 27.5758C136.029 27.5252 136.462 27.1452 136.615 27.0692C136.716 27.1452 136.64 27.6265 136.691 27.9558C136.691 27.9558 136.716 28.4117 136.691 28.741C136.335 29.121 136.487 29.0197 136.055 29.425C135.724 29.7542 135.418 29.9316 135.087 30.0329C134.706 30.2355 134.196 30.2862 133.942 30.3875C133.662 30.4382 133.306 30.4382 133.306 30.4382C132.669 30.4382 132.058 30.4888 131.397 30.1595C131.168 30.1849 130.608 29.9569 130.48 29.8049C130.124 29.6023 129.844 29.2476 129.513 29.0197C129.055 28.6904 128.902 28.3104 128.724 27.9051C128.546 27.6012 128.419 27.1959 128.291 26.8413C128.291 26.4866 128.266 26.132 128.266 25.8027V24.8655C128.266 24.2576 128.571 23.295 128.928 22.6871C128.928 22.6871 129.208 22.3831 129.539 22.0539C129.64 22.0285 129.742 21.9525 129.971 21.8259C130.073 21.7752 130.226 21.5473 130.48 21.4713C130.862 21.3446 131.218 21.142 131.397 21.142C131.626 21.142 132.364 21.1926 132.949 21.218C133.255 21.2433 133.458 21.3446 133.56 21.3446C133.815 21.3699 133.993 21.3953 134.196 21.4713C134.807 21.6739 135.036 21.9019 135.24 22.1298C135.367 22.2818 135.495 22.5605 135.622 22.7124C135.775 22.9151 135.953 23.3204 136.029 23.6497C136.105 23.9283 136.131 24.4349 136.131 24.7642C136.131 25.0935 136.105 25.1948 136.105 25.4988C136.105 25.5748 136.055 25.6761 135.978 25.7521ZM133.866 23.6497C133.586 23.219 133 23.1684 132.644 23.2444C132.415 23.295 132.389 23.3964 132.262 23.599C132.211 23.6497 132.186 23.7257 132.109 23.8016C132.058 23.8776 132.033 24.0043 132.007 24.1056C131.957 24.2576 131.957 24.2829 132.007 24.5362C132.262 24.6882 133.764 24.6882 134.018 24.5362C134.044 24.5109 133.916 24.3589 133.916 24.0296C133.916 23.9536 133.916 23.7256 133.866 23.6497Z" fill="black"/>
<path d="M144.327 27.5252C144.327 27.2213 144.149 26.892 143.818 26.7147C143.003 26.4107 142.189 26.0814 141.196 25.9041C140.713 25.7268 140.229 25.5748 139.542 25.3975C138.905 25.0935 138.447 24.5616 138.269 23.7764C138.269 23.1431 138.193 22.5352 138.498 21.9019C138.88 20.9647 139.084 21.142 139.491 20.7874C140.254 20.4834 140.713 20.3821 141.527 20.2048C141.858 20.0275 142.189 20.0275 142.494 20.0275H143.869C144.378 20.0275 144.811 20.0022 145.269 20.0275C146.007 20.0528 146.592 20.1795 147.432 20.3315C147.789 20.3821 148.069 20.4328 148.272 20.5088C148.221 20.6607 148.145 21.0914 148.119 21.4713C148.119 21.522 148.094 21.598 148.094 21.6486C148.094 21.6993 148.069 21.7753 148.018 21.8006C147.967 21.8259 147.865 21.7753 147.763 21.7499C147.178 21.6993 146.567 21.6993 145.956 21.7246C145.345 21.7499 144.709 21.8766 144.149 21.9526C143.894 22.0286 143.64 22.0792 143.411 22.1299C143.156 22.1806 142.927 22.3072 142.672 22.4592C142.52 22.6365 142.392 22.8138 142.316 23.0165C142.24 23.1938 142.189 23.3964 142.189 23.6244C142.138 23.8017 142.189 24.2323 142.392 24.4603C142.596 24.6883 142.774 24.8402 143.003 24.9162C143.64 25.0935 144.251 25.2202 144.734 25.3468C144.887 25.3468 145.141 25.4482 145.294 25.4482C145.981 25.4988 146.465 25.6761 147.101 25.9041C147.585 26.0814 148.094 26.2334 148.552 26.5374C148.909 27.044 149.061 27.3479 149.239 27.8545V28.5131C149.239 28.8424 149.061 29.1717 148.909 29.349C148.73 29.805 148.425 30.1596 147.916 30.4889C147.28 30.9702 146.592 31.2994 145.778 31.4261C144.632 31.7807 143.487 31.8314 142.189 31.6541L140.789 31.5274C140.483 31.5021 140.051 31.4261 139.644 31.2994C139.058 31.1221 138.829 31.1475 138.804 31.0968C138.778 31.0461 138.727 30.9702 138.727 30.9448C138.574 30.5649 138.6 30.3116 138.422 29.8303C138.345 29.653 138.32 29.5263 138.295 29.3997C138.295 29.3997 138.269 29.273 138.295 29.1717C138.473 29.1717 138.574 29.2224 138.727 29.2224C139.134 29.3237 139.745 29.4503 140.051 29.4503C140.356 29.4503 140.713 29.4757 141.196 29.4757C141.603 29.501 142.062 29.5517 142.494 29.3743C142.723 29.197 143.538 28.9691 143.818 28.6651C144.149 28.3611 144.327 28.0318 144.327 27.5252Z" fill="black"/>
<path d="M156.85 27.5252C156.85 27.2213 156.672 26.892 156.341 26.7147C155.526 26.4107 154.712 26.0814 153.719 25.9041C153.236 25.7268 152.752 25.5748 152.065 25.3975C151.428 25.0935 150.97 24.5616 150.792 23.7764C150.792 23.1431 150.716 22.5352 151.021 21.9019C151.403 20.9647 151.607 21.142 152.014 20.7874C152.777 20.4834 153.236 20.3821 154.05 20.2048C154.381 20.0275 154.712 20.0275 155.017 20.0275H156.392C156.901 20.0275 157.333 20.0022 157.792 20.0275C158.53 20.0528 159.115 20.1795 159.955 20.3315C160.312 20.3821 160.592 20.4328 160.795 20.5088C160.744 20.6607 160.668 21.0914 160.642 21.4713C160.642 21.522 160.617 21.598 160.617 21.6486C160.617 21.6993 160.592 21.7753 160.541 21.8006C160.49 21.8259 160.388 21.7753 160.286 21.7499C159.701 21.6993 159.09 21.6993 158.479 21.7246C157.868 21.7499 157.232 21.8766 156.672 21.9526C156.417 22.0286 156.163 22.0792 155.934 22.1299C155.679 22.1806 155.45 22.3072 155.195 22.4592C155.043 22.6365 154.915 22.8138 154.839 23.0165C154.763 23.1938 154.712 23.3964 154.712 23.6244C154.661 23.8017 154.712 24.2323 154.915 24.4603C155.119 24.6883 155.297 24.8402 155.526 24.9162C156.163 25.0935 156.774 25.2202 157.257 25.3468C157.41 25.3468 157.664 25.4482 157.817 25.4482C158.504 25.4988 158.988 25.6761 159.624 25.9041C160.108 26.0814 160.617 26.2334 161.075 26.5374C161.431 27.044 161.584 27.3479 161.762 27.8545V28.5131C161.762 28.8424 161.584 29.1717 161.431 29.349C161.253 29.805 160.948 30.1596 160.439 30.4889C159.802 30.9702 159.115 31.2994 158.301 31.4261C157.155 31.7807 156.01 31.8314 154.712 31.6541L153.312 31.5274C153.006 31.5021 152.574 31.4261 152.166 31.2994C151.581 31.1221 151.352 31.1475 151.327 31.0968C151.301 31.0461 151.25 30.9702 151.25 30.9448C151.097 30.5649 151.123 30.3116 150.945 29.8303C150.868 29.653 150.843 29.5263 150.817 29.3997C150.817 29.3997 150.792 29.273 150.817 29.1717C150.996 29.1717 151.097 29.2224 151.25 29.2224C151.657 29.3237 152.268 29.4503 152.574 29.4503C152.879 29.4503 153.236 29.4757 153.719 29.4757C154.126 29.501 154.585 29.5517 155.017 29.3743C155.246 29.197 156.061 28.9691 156.341 28.6651C156.672 28.3611 156.85 28.0318 156.85 27.5252Z" fill="black"/>
<path d="M170.999 25.7521C170.897 25.8534 170.643 25.8787 170.49 25.8787C170.261 25.9294 169.854 25.9294 169.625 25.9294C169.166 25.9294 169.039 25.9547 168.505 26.0054L166.977 26.132V26.436C166.977 26.8159 167.054 27.1706 167.334 27.5252C167.487 27.7785 167.767 28.0571 167.996 28.1331C167.996 28.1331 168.505 28.3611 168.734 28.3358C169.65 28.3358 169.905 28.1078 170.515 27.8038C170.643 27.8038 170.821 27.6012 170.897 27.5758C171.05 27.5252 171.483 27.1452 171.635 27.0692C171.737 27.1452 171.661 27.6265 171.712 27.9558C171.712 27.9558 171.737 28.4117 171.712 28.741C171.355 29.121 171.508 29.0197 171.075 29.425C170.745 29.7542 170.439 29.9316 170.108 30.0329C169.726 30.2355 169.217 30.2862 168.963 30.3875C168.683 30.4382 168.326 30.4382 168.326 30.4382C167.69 30.4382 167.079 30.4888 166.418 30.1595C166.188 30.1849 165.628 29.9569 165.501 29.8049C165.145 29.6023 164.865 29.2476 164.534 29.0197C164.076 28.6904 163.923 28.3104 163.745 27.9051C163.567 27.6012 163.439 27.1959 163.312 26.8413C163.312 26.4866 163.287 26.132 163.287 25.8027V24.8655C163.287 24.2576 163.592 23.295 163.949 22.6871C163.949 22.6871 164.229 22.3831 164.559 22.0539C164.661 22.0285 164.763 21.9525 164.992 21.8259C165.094 21.7752 165.247 21.5473 165.501 21.4713C165.883 21.3446 166.239 21.142 166.418 21.142C166.647 21.142 167.385 21.1926 167.97 21.218C168.276 21.2433 168.479 21.3446 168.581 21.3446C168.836 21.3699 169.014 21.3953 169.217 21.4713C169.828 21.6739 170.057 21.9019 170.261 22.1298C170.388 22.2818 170.515 22.5605 170.643 22.7124C170.795 22.9151 170.974 23.3204 171.05 23.6497C171.126 23.9283 171.152 24.4349 171.152 24.7642C171.152 25.0935 171.126 25.1948 171.126 25.4988C171.126 25.5748 171.075 25.6761 170.999 25.7521ZM168.886 23.6497C168.606 23.219 168.021 23.1684 167.665 23.2444C167.436 23.295 167.41 23.3964 167.283 23.599C167.232 23.6497 167.207 23.7257 167.13 23.8016C167.079 23.8776 167.054 24.0043 167.028 24.1056C166.977 24.2576 166.977 24.2829 167.028 24.5362C167.283 24.6882 168.785 24.6882 169.039 24.5362C169.065 24.5109 168.937 24.3589 168.937 24.0296C168.937 23.9536 168.937 23.7256 168.886 23.6497Z" fill="black"/>
<path d="M173.445 25.5016C173.471 25.1977 173.471 24.8937 173.471 24.5644L173.395 22.5126V21.3728C173.751 21.3728 174.158 21.3475 174.667 21.3981C174.667 21.3981 175.049 21.4234 175.227 21.4234C175.456 21.4741 175.38 21.4488 175.482 21.4994C175.482 21.6514 175.431 21.7021 175.431 21.8794V22.69C175.558 22.5126 175.558 22.4367 175.736 22.2593L175.889 22.2087C176.322 21.7781 177.034 21.6768 177.671 21.7274C177.798 21.7274 178.154 21.8541 178.46 22.0314C178.74 22.082 178.842 22.2087 178.842 22.2087C179.172 22.5126 179.529 22.69 179.656 23.0193C179.987 23.5005 180.165 24.0325 180.343 24.6657C180.343 24.843 180.343 24.995 180.165 24.995C179.656 25.1723 179.325 25.0963 178.613 25.147H178.333C178.282 25.1217 178.256 25.0203 178.256 24.995C178.231 24.7924 178.154 24.6404 178.154 24.5391C178.154 24.3618 178.002 24.1591 178.002 24.1591C177.671 23.8298 177.391 23.6778 177.06 23.6778C176.984 23.6778 176.856 23.6778 176.754 23.7285C176.602 23.7792 176.169 23.9818 176.067 24.0831C175.889 24.2604 175.685 24.4377 175.584 24.6657C175.558 24.7924 175.533 25.223 175.533 25.299C175.482 25.6029 175.38 26.2109 175.38 26.5655C175.38 26.7935 175.304 27.2241 175.304 27.528C175.304 27.756 175.278 27.9586 175.278 28.1613V29.1238C175.278 29.3265 175.253 29.5798 175.253 29.8078V30.365C174.413 30.5423 173.827 30.5423 173.496 30.365C173.42 30.137 173.395 29.6811 173.42 29.6051C173.496 28.9972 173.42 28.3893 173.42 27.756C173.395 27.4267 173.445 27.0214 173.445 26.7175C173.445 26.4895 173.471 25.9322 173.445 25.5016Z" fill="black"/>
<path d="M186.958 30.4889C186.958 30.6916 186.958 31.1728 186.933 31.3755C186.958 31.5021 186.806 31.6541 186.755 31.7048H186.093C185.915 31.7048 185.686 31.6794 185.508 31.6794C185.253 31.7808 184.413 31.7048 184.311 31.7048C184.209 31.5866 184.158 31.4768 184.158 31.3755V28.9438L184.108 27.4493L184.158 25.7522L184.133 24.283L184.031 23.0672C183.624 23.0672 182.937 23.1432 182.631 23.0672C182.046 22.9658 181.817 23.0672 181.359 23.0672V21.446H181.511C181.664 21.446 181.817 21.4207 181.868 21.446C182.046 21.5727 182.479 21.4714 182.453 21.4207C182.835 21.3954 182.784 21.3954 183.089 21.3954C183.369 21.3954 184.031 21.4207 184.209 21.3954C184.235 21.3954 184.209 20.4582 184.209 20.1035C184.286 19.4703 184.286 18.989 184.311 18.3304C184.337 17.8745 184.337 17.4439 184.337 16.9626C184.337 16.4813 184.413 15.6961 184.388 15.1641C184.388 14.9868 184.311 14.9868 184.311 14.8348C184.311 14.6829 184.311 14.5815 184.489 14.5815C184.795 14.5815 185.151 14.6322 185.457 14.6322C185.966 14.6322 186.424 14.6322 186.678 14.6575C186.907 14.6829 187.086 14.7082 187.264 14.7589C187.289 14.7589 187.264 15.4428 187.238 15.8227C187.213 16.6586 187.213 17.1906 187.238 18.0265C187.238 18.4064 187.213 18.8117 187.238 19.1916C187.238 19.3943 187.137 20.7368 187.111 20.9394C187.111 21.1167 187.213 21.2687 187.264 21.2687C187.442 21.2687 187.747 21.3447 187.926 21.3447C188.078 21.3447 188.256 21.4207 188.587 21.4207C188.893 21.4207 189.224 21.446 189.58 21.446C189.733 21.446 189.885 21.4714 189.885 21.4714C190.038 21.978 190.038 22.7379 189.885 23.0672H189.733C189.071 23.1432 188.409 23.1938 187.747 23.1938C187.595 23.1938 187.315 23.2192 187.137 23.2192C187.137 23.3711 187.111 23.5484 187.111 23.5484V23.7764C187.111 24.0804 187.137 24.3084 187.111 24.587L187.162 25.9295L187.06 27.0693C187.086 27.424 186.984 28.9691 186.958 29.3237C186.958 29.7037 186.933 30.109 186.958 30.4889Z" fill="black"/>
<defs>
<clipPath id="clip0_308_6428">
<rect width="50" height="50" fill="white"/>
</clipPath>
</defs>
</svg>
